<?xml version="1.0" standalone="no"?>
<!DOCTYPE svg PUBLIC "-//W3C//DTD SVG 1.1//EN" "http://www.w3.org/Graphics/SVG/1.1/DTD/svg11.dtd" >
<svg xmlns="http://www.w3.org/2000/svg" xmlns:xlink="http://www.w3.org/1999/xlink" version="1.1">
<metadata>
Created by FontForge 20170731 at Wed Jul 22 15:34:26 2020
 By Aleksey,,,
Copyright (c) 2018 by Timo Gaessner. All rights reserved.
</metadata>
<defs>
<font id="MaisonMono-Regular" horiz-adv-x="1269" >
  <font-face 
    font-family="Maison Mono"
    font-weight="400"
    font-stretch="normal"
    units-per-em="2048"
    panose-1="2 11 5 4 3 0 0 0 0 4"
    ascent="1638"
    descent="-410"
    x-height="1085"
    cap-height="1434"
    bbox="-1137 -627 1495 2099"
    underline-thickness="163"
    underline-position="-570"
    unicode-range="U+000D-FEFF"
  />
<missing-glyph 
d="M35 -10v866q-2 124 44.5 236t127 191.5t192 125.5t234.5 45q125 1 237.5 -45t193 -125.5t127 -191.5t44.5 -236v-866h-57l-134 133l-139 -133l-129 133l-145 -133l-142 133l-129 -133l-137 133l-135 -133h-53zM240 614l129 129l131 -129l28 29l-131 129l131 131l-28 29
l-131 -131l-129 131l-29 -29l129 -131l-129 -129zM772 614l129 129l131 -129l29 29l-131 129l131 131l-29 29l-131 -131l-129 131l-29 -29l129 -131l-129 -129z" />
    <glyph glyph-name=".notdef" 
d="M35 -10v866q-2 124 44.5 236t127 191.5t192 125.5t234.5 45q125 1 237.5 -45t193 -125.5t127 -191.5t44.5 -236v-866h-57l-134 133l-139 -133l-129 133l-145 -133l-142 133l-129 -133l-137 133l-135 -133h-53zM240 614l129 129l131 -129l28 29l-131 129l131 131l-28 29
l-131 -131l-129 131l-29 -29l129 -131l-129 -129zM772 614l129 129l131 -129l29 29l-131 129l131 131l-29 29l-131 -131l-129 131l-29 -29l129 -131l-129 -129z" />
    <glyph glyph-name=".null" horiz-adv-x="0" 
 />
    <glyph glyph-name="nonmarkingreturn" horiz-adv-x="682" 
 />
    <glyph glyph-name="CR" unicode="&#xd;" horiz-adv-x="1331" 
 />
    <glyph glyph-name="space" unicode=" " 
 />
    <glyph glyph-name="exclam" unicode="!" 
d="M549 393v1041h174v-1041h-174zM512 0v246h248v-246h-248z" />
    <glyph glyph-name="quotedbl" unicode="&#x22;" 
d="M391 961v473h174v-473h-174zM709 961v473h174v-473h-174z" />
    <glyph glyph-name="numbersign" unicode="#" 
d="M1171 895h-223l-24 -356h215v-136h-224l-28 -403h-150l29 403h-303l-29 -403h-149l28 403h-215v136h224l24 356h-215v137h225l27 402h149l-26 -402h303l27 402h149l-27 -402h213v-137zM774 539l25 356h-303l-25 -356h303z" />
    <glyph glyph-name="dollar" unicode="$" 
d="M702 -31v-211h-174v226q-179 35 -289.5 161.5t-136.5 327.5l172 25q50 -367 398 -367q155 0 238 66.5t83 191.5q0 109 -76 170.5t-280 116.5q-260 74 -358.5 159.5t-98.5 237.5q0 149 94.5 253t253.5 130v219h174v-217q168 -23 285 -137t146 -285l-170 -30
q-25 137 -116.5 218t-221.5 81q-121 0 -196 -64.5t-75 -167.5q0 -89 67.5 -135.5t272.5 -106.5q120 -32 202 -67.5t146 -88t94.5 -125t30.5 -169.5q0 -183 -125.5 -293.5t-339.5 -118.5z" />
    <glyph glyph-name="percent" unicode="%" 
d="M61 1352q0 207 94 327.5t255 120.5t254.5 -120.5t93.5 -327.5t-93.5 -328t-254.5 -121t-255 121t-94 328zM614 1352q0 148 -53.5 233.5t-150.5 85.5t-151 -85.5t-54 -233.5q0 -145 54 -231.5t151 -86.5t150.5 86.5t53.5 231.5zM297 438l-70 119l768 447l70 -121zM514 82
q0 207 93.5 327.5t254.5 120.5q160 0 253 -120.5t93 -327.5t-93 -328t-253 -121q-161 0 -254.5 121t-93.5 328zM1067 82q0 148 -54 233.5t-151 85.5q-99 0 -153 -85.5t-54 -233.5t54 -234t153 -86q97 0 151 86t54 234z" />
    <glyph glyph-name="ampersand" unicode="&#x26;" 
d="M1235 301l-59 -137q-134 54 -185 78q-78 -141 -190.5 -207t-272.5 -66q-201 0 -328.5 105t-127.5 276q0 238 229 393q-115 171 -115 355q0 165 101.5 265.5t267.5 100.5q158 0 260.5 -92t102.5 -233q3 -117 -81 -210t-311 -220q132 -129 379 -260q50 139 80 342l156 -23
q-42 -255 -94 -387zM336 1104q0 -152 94 -283q204 114 271 176.5t67 143.5q0 82 -59.5 134t-153.5 52q-100 0 -159.5 -60.5t-59.5 -162.5zM852 309q-284 147 -457 320q-166 -120 -166 -279q0 -109 81.5 -172t217.5 -63q216 0 324 194z" />
    <glyph glyph-name="quotesingle" unicode="'" 
d="M549 961v473h174v-473h-174z" />
    <glyph glyph-name="parenleft" unicode="(" 
d="M377 563q0 276 100.5 541t290.5 487l125 -96q-164 -190 -253 -434t-89 -498q0 -250 89.5 -493.5t250.5 -434.5l-127 -96q-188 221 -287.5 484.5t-99.5 539.5z" />
    <glyph glyph-name="parenright" unicode=")" 
d="M506 -461l-127 96q161 191 250.5 434.5t89.5 493.5q0 254 -89 498t-253 434l125 96q190 -222 290.5 -487t100.5 -541t-99.5 -539.5t-287.5 -484.5z" />
    <glyph glyph-name="asterisk" unicode="*" 
d="M451 651l-113 82l188 256l-303 96l43 132l301 -101v318h138l-3 -318l304 101l41 -132l-304 -96l189 -256l-111 -82l-186 258z" />
    <glyph glyph-name="plus" unicode="+" 
d="M1157 784v-159h-434v-453h-174v453h-436v159h436v430h174v-430h434z" />
    <glyph glyph-name="comma" unicode="," 
d="M498 -246v133q53 7 73.5 32.5t20.5 80.5h-105v274h295v-231q0 -128 -74 -203.5t-210 -85.5z" />
    <glyph glyph-name="hyphen" unicode="-" 
d="M328 551v162h614v-162h-614z" />
    <glyph glyph-name="period" unicode="." 
d="M498 0v272h276v-272h-276z" />
    <glyph glyph-name="slash" unicode="/" 
d="M946 1507l150 -65l-772 -1546l-150 63z" />
    <glyph glyph-name="zero" unicode="0" 
d="M1157 696q0 -349 -136 -538t-386 -189t-386 189t-136 538t135.5 537t386.5 188t386.5 -188t135.5 -537zM360 281l449 942q-73 49 -174 49q-177 0 -268 -146.5t-91 -429.5q0 -268 84 -415zM993 696q0 269 -84 416l-448 -942q73 -49 174 -49q177 0 267.5 146t90.5 429z" />
    <glyph glyph-name="one" unicode="1" 
d="M719 152h479v-152h-1126v152h483v968q-62 -73 -166 -129.5t-229 -87.5l-45 146q176 54 274 127q105 77 191 215h139v-1239z" />
    <glyph glyph-name="two" unicode="2" 
d="M690 496q-134 -53 -209 -93q-178 -87 -192 -251h850v-152h-1018v96q0 156 69 256q72 104 168 158q96 55 263 121q140 56 206 92q177 90 177 258q0 124 -101 207.5t-248 83.5q-176 0 -282.5 -91t-106.5 -239q0 -90 49 -194l-153 -54q-60 129 -60 248q0 212 154 345.5
t399 133.5q217 0 364.5 -126t147.5 -314q0 -140 -67 -231q-63 -89 -162 -144q-88 -49 -248 -110z" />
    <glyph glyph-name="three" unicode="3" 
d="M1167 430q3 -129 -69 -237t-192 -167t-257 -57q-234 0 -382 121.5t-185 343.5l160 29q29 -170 132.5 -256t272.5 -86q147 0 252 86.5t105 222.5q0 149 -101.5 227t-298.5 78h-194v121l512 385h-734v150h949v-166l-488 -361h2q243 0 379.5 -114t136.5 -320z" />
    <glyph glyph-name="four" unicode="4" 
d="M827 0v295h-755v168q245 199 384.5 420.5t194.5 507.5h166q-56 -301 -189.5 -530t-353.5 -415h553v420h164v-420h207v-151h-207v-295h-164z" />
    <glyph glyph-name="five" unicode="5" 
d="M1178 444q3 -131 -70.5 -241.5t-197.5 -173t-265 -60.5q-218 0 -363 105.5t-190 292.5l158 41q71 -287 395 -287q151 0 260 93.5t109 229.5q0 137 -99 227.5t-251 90.5q-234 0 -385 -193l-148 43l156 779h770v-150h-633l-96 -455q61 58 149 89.5t191 31.5
q221 0 365.5 -131t144.5 -332z" />
    <glyph glyph-name="six" unicode="6" 
d="M670 -31q-253 0 -405 153t-152 419q0 372 213 606t585 274l23 -149q-262 -31 -432.5 -174t-212.5 -373q67 79 171 123.5t226 44.5q211 0 351.5 -131.5t140.5 -329.5q3 -126 -65 -233.5t-186.5 -169.5t-256.5 -60zM1014 432q0 137 -96.5 224t-251.5 87t-260 -88.5
t-105 -222.5q0 -135 101.5 -223t256.5 -88q151 0 254 86q101 88 101 225z" />
    <glyph glyph-name="seven" unicode="7" 
d="M92 1391h1086v-181q-292 -292 -439 -577q-148 -287 -178 -633h-166q36 360 191 678.5t418 562.5h-748v-227h-164v377z" />
    <glyph glyph-name="eight" unicode="8" 
d="M1157 395q0 -188 -147 -307t-375 -119q-227 0 -374.5 119t-147.5 307q0 114 64 209.5t169 143.5q-182 108 -182 296q0 164 133 270.5t338 106.5t338 -106.5t133 -270.5q0 -191 -182 -299q104 -44 168.5 -141t64.5 -209zM328 1040q0 -104 84 -167.5t223 -63.5
q141 0 225 63t84 168q0 103 -86 167.5t-223 64.5q-136 0 -221.5 -64.5t-85.5 -167.5zM993 397q0 128 -97 203.5t-261 75.5t-261.5 -75.5t-97.5 -203.5q0 -124 99.5 -200t259.5 -76q161 0 259.5 75t98.5 201z" />
    <glyph glyph-name="nine" unicode="9" 
d="M1157 866q0 -373 -193.5 -605t-564.5 -292l-24 152q251 38 409 180t199 363q-63 -79 -164.5 -121.5t-228.5 -42.5q-220 0 -359 128t-139 328t148.5 332.5t373.5 132.5q244 0 393.5 -153.5t149.5 -401.5zM973 958q0 134 -101.5 224t-257.5 90q-159 0 -260 -88
q-98 -88 -98 -228q0 -141 93 -225t251 -84q165 0 268 86q105 89 105 225z" />
    <glyph glyph-name="colon" unicode=":" 
d="M498 0v272h276v-272h-276zM498 815v272h276v-272h-276z" />
    <glyph glyph-name="semicolon" unicode=";" 
d="M498 -246v133q53 7 73.5 32.5t20.5 80.5h-105v274h295v-231q0 -128 -74 -203.5t-210 -85.5zM496 815v272h276v-272h-276z" />
    <glyph glyph-name="less" unicode="&#x3c;" 
d="M1073 268l-88 -139l-792 479v168l792 477l88 -137l-706 -424z" />
    <glyph glyph-name="equal" unicode="=" 
d="M215 389v176h840v-176h-840zM215 829v177h840v-177h-840z" />
    <glyph glyph-name="greater" unicode="&#x3e;" 
d="M283 129l-88 139l706 424l-706 424l88 137l792 -477v-168z" />
    <glyph glyph-name="question" unicode="?" 
d="M520 393v322q261 76 362 150t101 196q0 104 -91.5 174t-232.5 70q-169 0 -273.5 -102t-121.5 -281l-172 18q19 241 172 382.5t395 141.5q215 0 356.5 -116t141.5 -287q0 -160 -108 -262q-106 -100 -359 -183v-223h-170zM498 0v246h247v-246h-247z" />
    <glyph glyph-name="at" unicode="@" 
d="M786 791q0 41 -36.5 66.5t-96.5 25.5q-72 0 -116.5 -38.5t-55.5 -107.5l-131 23q17 111 99.5 179.5t203.5 68.5q122 0 193.5 -63.5t71.5 -172.5v-344q0 -33 12 -45t47 -12q125 0 125 325q0 250 -124 396.5t-327 146.5q-216 0 -348.5 -171t-132.5 -454
q0 -293 134.5 -458.5t363.5 -165.5q183 0 362 106l60 -108q-192 -121 -422 -121q-291 0 -461 201t-170 546q0 219 75.5 388.5t215.5 264.5t323 95q265 0 424.5 -183t159.5 -483q0 -448 -260 -448q-118 0 -152 94q-36 -44 -92.5 -69t-122.5 -25q-117 0 -186.5 57t-69.5 154
q0 93 57 146t185 79q116 26 154 47.5t38 59.5zM629 578q-82 -25 -112 -48.5t-30 -64.5q0 -44 32.5 -68t92.5 -24q74 0 124 40t50 101v133q-10 -16 -41 -29t-116 -40z" />
    <glyph glyph-name="A" unicode="A" 
d="M1044 0l-133 395h-551l-133 -395h-176l500 1434h172l496 -1434h-175zM412 547h448l-223 672z" />
    <glyph glyph-name="B" unicode="B" 
d="M1167 412q0 -177 -124 -294.5t-322 -117.5h-567v1434h546q179 0 295.5 -106.5t116.5 -264.5q0 -98 -49 -180.5t-131 -120.5q109 -43 172 -136t63 -214zM328 1274v-438h364q116 0 181 61.5t65 165.5q0 95 -66 153t-180 58h-364zM993 418q0 117 -76.5 187.5t-211.5 70.5
h-377v-514h377q135 0 211.5 69t76.5 187z" />
    <glyph glyph-name="C" unicode="C" 
d="M113 717q0 346 148.5 546.5t404.5 200.5q191 0 327 -127q138 -126 172 -336l-168 -26q-32 159 -118 244.5t-213 85.5q-177 0 -278 -156t-101 -432q0 -275 101 -430.5t278 -155.5q272 0 333 356l168 -26q-35 -232 -167.5 -362t-333.5 -130q-256 0 -404.5 201.5
t-148.5 546.5z" />
    <glyph glyph-name="D" unicode="D" 
d="M154 1434h411q283 0 437.5 -184.5t154.5 -532.5q0 -349 -154 -533t-438 -184h-411v1434zM983 717q0 557 -432 557h-223v-1112h223q432 0 432 555z" />
    <glyph glyph-name="E" unicode="E" 
d="M154 0v1434h1003v-160h-827v-459h657v-153h-657v-500h827v-162h-1003z" />
    <glyph glyph-name="F" unicode="F" 
d="M154 0v1434h1013v-160h-837v-498h667v-160h-667v-616h-176z" />
    <glyph glyph-name="G" unicode="G" 
d="M588 721h579v-721h-108l-39 147q-126 -178 -354 -178q-256 0 -404.5 201.5t-148.5 546.5q0 346 148.5 546.5t404.5 200.5q191 0 327 -127q138 -126 172 -336l-168 -26q-32 159 -118 244.5t-213 85.5q-177 0 -278 -156t-101 -432q0 -275 101 -430.5t278 -155.5
q149 0 241 108t92 267v53h-411v162z" />
    <glyph glyph-name="H" unicode="H" 
d="M154 1434h174v-615h614v615h174v-1434h-174v659h-614v-659h-174v1434z" />
    <glyph glyph-name="I" unicode="I" 
d="M174 0v162h373v1112h-373v160h922v-160h-373v-1112h373v-162h-922z" />
    <glyph glyph-name="J" unicode="J" 
d="M639 131q154 0 233.5 97.5t79.5 281.5v762h-585v162h759v-934q0 -241 -132 -386t-355 -145q-209 0 -336 112.5t-160 321.5l172 29q25 -154 102.5 -227.5t221.5 -73.5z" />
    <glyph glyph-name="K" unicode="K" 
d="M967 0l-443 662l-196 -263v-399h-174v1434h174v-779l569 779h213l-477 -637l545 -797h-211z" />
    <glyph glyph-name="L" unicode="L" 
d="M154 1434h174v-1272h870v-162h-1044v1434z" />
    <glyph glyph-name="M" unicode="M" 
d="M952 1434h185v-1434h-166v1096l-297 -674h-76l-297 668v-1090h-168v1434h186l316 -746z" />
    <glyph glyph-name="N" unicode="N" 
d="M942 1434h174v-1434h-182l-606 1124v-1124h-174v1434h182l606 -1123v1123z" />
    <glyph glyph-name="O" unicode="O" 
d="M113 717q0 358 136 552.5t386 194.5t386 -194.5t136 -552.5t-136 -553t-386 -195t-386 195t-136 553zM983 717q0 288 -89 438t-259 150t-259 -150t-89 -438q0 -289 88 -437.5t260 -148.5t260 148.5t88 437.5z" />
    <glyph glyph-name="P" unicode="P" 
d="M154 0v1434h581q186 0 314.5 -123.5t128.5 -304.5q0 -183 -128.5 -307t-314.5 -124h-407v-575h-174zM328 737h393q125 0 204 74t79 195t-79 194.5t-204 73.5h-393v-537z" />
    <glyph glyph-name="Q" unicode="Q" 
d="M1198 111l-20 -142q-145 15 -246 99q-120 -99 -297 -99q-250 0 -386 195t-136 553t136 552.5t386 194.5t386 -194.5t136 -552.5q0 -343 -127 -541q71 -56 168 -65zM635 131q107 0 184 59l-33 43q-72 92 -127 138q-53 44 -145 53l23 137q102 -15 163 -51q64 -34 99 -72
q19 -21 110 -133q74 148 74 412q0 288 -89 438t-259 150t-259 -150t-89 -438q0 -289 88 -437.5t260 -148.5z" />
    <glyph glyph-name="R" unicode="R" 
d="M1044 399l111 -399h-205l-86 356q-59 256 -315 256h-221v-612h-174v1434h561q181 0 304.5 -118t123.5 -292q0 -135 -78 -240.5t-207 -148.5q136 -48 186 -236zM328 774h372q123 0 196 67.5t73 182.5q0 113 -73 181.5t-196 68.5h-372v-500z" />
    <glyph glyph-name="S" unicode="S" 
d="M102 473l172 25q50 -367 398 -367q155 0 238 66.5t83 191.5q0 109 -76 170.5t-280 116.5q-260 74 -358.5 159.5t-98.5 237.5q0 171 125 281t320 110q194 0 335.5 -118.5t172.5 -309.5l-170 -30q-25 137 -116.5 218t-221.5 81q-121 0 -196 -64.5t-75 -167.5
q0 -89 67.5 -135.5t272.5 -106.5q95 -25 164.5 -52t130.5 -64.5t98.5 -84t58.5 -109t21 -140.5q0 -187 -135 -301q-132 -111 -360 -111q-239 0 -388.5 132.5t-181.5 371.5z" />
    <glyph glyph-name="T" unicode="T" 
d="M547 0v1274h-475v160h1126v-160h-475v-1274h-176z" />
    <glyph glyph-name="U" unicode="U" 
d="M143 500v934h174v-924q0 -188 81 -283.5t237 -95.5q317 0 317 379v924h174v-934q0 -250 -130.5 -390.5t-358.5 -140.5q-230 0 -362 141t-132 390z" />
    <glyph glyph-name="V" unicode="V" 
d="M1026 1434h193l-500 -1434h-166l-502 1434h193l391 -1172z" />
    <glyph glyph-name="W" unicode="W" 
d="M1036 1434h168l-147 -1434h-213l-207 811l-209 -811h-213l-147 1434h168l114 -1172l215 832h142l215 -832z" />
    <glyph glyph-name="X" unicode="X" 
d="M1198 0h-192l-371 627l-369 -627h-192l448 745l-411 689h192l330 -572l336 572h192l-416 -686z" />
    <glyph glyph-name="Y" unicode="Y" 
d="M1001 1434h197l-475 -820v-614h-174v614l-477 820h198l365 -650z" />
    <glyph glyph-name="Z" unicode="Z" 
d="M92 0v147l877 1133h-848v154h1057v-146l-877 -1134h868v-154h-1077z" />
    <glyph glyph-name="bracketleft" unicode="[" 
d="M393 -430v1956h484v-160h-310v-1636h310v-160h-484z" />
    <glyph glyph-name="backslash" unicode="\" 
d="M174 1442l150 65l772 -1548l-150 -63z" />
    <glyph glyph-name="bracketright" unicode="]" 
d="M877 -430h-484v160h309v1636h-309v160h484v-1956z" />
    <glyph glyph-name="asciicircum" unicode="^" 
d="M1116 666h-186l-293 594l-295 -594h-188l391 768h180z" />
    <glyph glyph-name="underscore" unicode="_" 
d="M154 -264v162h962v-162h-962z" />
    <glyph glyph-name="grave" unicode="`" 
d="M840 1188h-181l-227 256h242z" />
    <glyph glyph-name="a" unicode="a" 
d="M1171 150l25 -140q-62 -16 -119 -16q-159 0 -196 137q-49 -72 -141.5 -111.5t-209.5 -39.5q-170 0 -272 83.5t-102 223.5q0 137 86.5 217t281.5 121q194 43 260 80t66 104q0 74 -67 119t-177 45q-122 0 -202 -67t-97 -183l-151 25q24 164 147 266q126 102 303 102
q184 0 292 -90.5t108 -243.5v-540q0 -50 21.5 -77.5t59.5 -27.5q17 0 84 13zM850 375v237q-17 -31 -80 -56.5t-215 -63.5q-132 -33 -188 -78.5t-56 -122.5q0 -80 57 -124t162 -44q141 0 230.5 71t89.5 181z" />
    <glyph glyph-name="b" unicode="b" 
d="M1147 543q0 -254 -136.5 -414t-355.5 -160q-97 0 -184 36.5t-143 98.5v-104h-164v1434h164v-455q52 64 138 100.5t189 36.5q220 0 356 -158.5t136 -414.5zM983 543q0 195 -91.5 309.5t-246.5 114.5q-141 0 -229 -87t-88 -227v-211q0 -146 88 -233.5t231 -87.5
q154 0 245 115t91 307z" />
    <glyph glyph-name="c" unicode="c" 
d="M123 543q0 253 150.5 413t385.5 160q188 0 324 -100.5t174 -270.5l-160 -36q-32 123 -121 190.5t-217 67.5q-164 0 -268 -119.5t-104 -304.5q0 -186 104 -304t268 -118q133 0 221.5 69.5t118.5 204.5l158 -39q-38 -182 -172 -284.5t-326 -102.5q-235 0 -385.5 160.5
t-150.5 413.5z" />
    <glyph glyph-name="d" unicode="d" 
d="M942 1434h164v-1434h-164v104q-56 -62 -143.5 -98.5t-184.5 -36.5q-219 0 -355 160t-136 414q0 256 135.5 414.5t355.5 158.5q103 0 189.5 -36.5t138.5 -100.5v455zM942 442v211q0 140 -88 227t-229 87q-155 0 -246.5 -114.5t-91.5 -309.5q0 -192 91 -307t245 -115
q143 0 231 87.5t88 233.5z" />
    <glyph glyph-name="e" unicode="e" 
d="M635 115q240 0 340 237l139 -69q-62 -148 -187.5 -231t-291.5 -83q-230 0 -370 158.5t-140 415.5q0 259 140.5 416t369.5 157t369.5 -157t140.5 -416v-68h-858q17 -168 109 -264t239 -96zM285 610h700q-7 168 -103 265.5t-247 97.5q-150 0 -248 -101q-99 -99 -102 -262z
" />
    <glyph glyph-name="f" unicode="f" 
d="M645 1077v-129h512v-149h-512v-799h-164v799h-368v149h368v152q0 167 90.5 265.5t245.5 98.5q168 0 340 -112l-74 -131q-143 94 -260 94q-178 0 -178 -238z" />
    <glyph glyph-name="g" unicode="g" 
d="M1135 -184q0 -147 -130.5 -227.5t-369.5 -80.5q-234 0 -368 80.5t-134 221.5q0 73 44 139.5t122 107.5q-125 64 -125 185q0 119 123 190q-104 113 -104 275q0 180 124 294.5t318 114.5q119 0 215 -47q32 87 102.5 143.5t167.5 73.5l37 -145q-161 -27 -207 -137
q125 -119 125 -297q0 -180 -124 -295t-316 -115q-137 0 -244 61q-72 -37 -72 -98q0 -54 49 -83.5t154 -41.5l266 -33q179 -23 263 -91.5t84 -194.5zM350 707q0 -119 79 -193t206 -74t206 74t79 193t-79 193.5t-206 74.5q-128 0 -206.5 -73.5t-78.5 -194.5zM979 -180
q0 68 -50.5 103.5t-162.5 49.5l-270 33l-41 6q-74 -20 -119 -72.5t-45 -119.5q0 -82 89 -126t255 -44q344 0 344 170z" />
    <glyph glyph-name="h" unicode="h" 
d="M1116 676v-676h-164v649q0 155 -75.5 236.5t-217.5 81.5q-150 0 -239.5 -87t-89.5 -233l-2 -647h-164v1434h164v-467q56 69 149 109t203 40q194 0 315 -121t121 -319z" />
    <glyph glyph-name="i" unicode="i" 
d="M164 0v152h399v784h-348v149h512v-933h379v-152h-942zM537 1239v219h217v-219h-217z" />
    <glyph glyph-name="j" unicode="j" 
d="M123 -233l98 122q85 -67 162 -98t162 -31q123 0 188.5 81t65.5 233v862h-520v149h684v-1019q0 -211 -112 -333t-304 -122q-244 0 -424 156zM752 1239v219h217v-219h-217z" />
    <glyph glyph-name="k" unicode="k" 
d="M942 0l-401 535l-224 -234v-301h-163v1434h163v-924l541 575h217l-426 -446l488 -639h-195z" />
    <glyph glyph-name="l" unicode="l" 
d="M164 0v152h399v1132h-325v150h489v-1282h379v-152h-942z" />
    <glyph glyph-name="m" unicode="m" 
d="M1174 819v-819h-158v807q0 78 -40.5 122t-109.5 44q-72 0 -112.5 -44t-40.5 -122v-807h-154v807q0 77 -41 121.5t-110 44.5q-72 0 -113 -44t-41 -122v-807h-156v1085h150v-67q32 43 86 67.5t117 24.5q71 0 127.5 -27t87.5 -75q36 49 94.5 75.5t126.5 26.5q129 0 208 -80
t79 -211z" />
    <glyph glyph-name="n" unicode="n" 
d="M1116 676v-676h-164v649q0 155 -75.5 236.5t-217.5 81.5q-150 0 -239.5 -87t-89.5 -233l-2 -647h-164v1085h164v-118q56 69 149 109t203 40q194 0 315 -121t121 -319z" />
    <glyph glyph-name="o" unicode="o" 
d="M123 543q0 259 140.5 416t371.5 157t371.5 -157t140.5 -416t-140.5 -416.5t-371.5 -157.5t-371.5 157.5t-140.5 416.5zM983 543q0 193 -94 308.5t-254 115.5t-254 -116t-94 -308t94 -307t254 -115t254 115t94 307z" />
    <glyph glyph-name="p" unicode="p" 
d="M1147 543q0 -257 -133.5 -415.5t-351.5 -158.5q-102 0 -189.5 35t-138.5 96v-561h-164v1546h164v-100q56 61 143.5 96t184.5 35q217 0 351 -157t134 -416zM983 543q0 191 -90.5 307.5t-239.5 116.5q-137 0 -228 -90t-91 -224v-211q0 -141 89 -231t230 -90q151 0 240 117
q90 119 90 305z" />
    <glyph glyph-name="q" unicode="q" 
d="M123 543q0 259 134 416t351 157q97 0 184.5 -35t143.5 -96v100h164v-1546h-164v561q-51 -61 -138.5 -96t-189.5 -35q-218 0 -351.5 158.5t-133.5 415.5zM287 543q0 -186 90 -305q89 -117 239 -117q141 0 230.5 90t89.5 231v211q0 134 -91 224t-229 90q-149 0 -239 -116.5
t-90 -307.5z" />
    <glyph glyph-name="r" unicode="r" 
d="M586 680v-528h395v-152h-858v152h299v784h-299v149h455v-102q32 60 100.5 96.5t148.5 36.5t156 -31.5t166 -103.5l-88 -129q-82 63 -139.5 89t-114.5 26q-100 0 -160.5 -78.5t-60.5 -208.5z" />
    <glyph glyph-name="s" unicode="s" 
d="M125 358l151 27q15 -120 127 -197q112 -75 273 -75q147 0 230 47.5t83 132.5q0 86 -78 128.5t-286 70.5q-238 34 -336.5 101.5t-98.5 199.5q0 138 122 230.5t302 92.5q183 0 322.5 -97t167.5 -243l-152 -35q-23 104 -116.5 169t-221.5 65q-113 0 -189.5 -51t-76.5 -129
q0 -49 29 -77t101.5 -48t221.5 -41q238 -32 341.5 -110t103.5 -224q0 -149 -127 -237.5t-342 -88.5q-221 0 -375 108.5t-176 280.5z" />
    <glyph glyph-name="t" unicode="t" 
d="M1090 213l77 -133q-156 -111 -352 -111q-156 0 -245 90.5t-89 249.5v627h-368v149h368v299l164 52v-351h512v-149h-512v-623q0 -192 189 -192q113 0 256 92z" />
    <glyph glyph-name="u" unicode="u" 
d="M942 1085h164v-1085h-164v119q-56 -70 -149.5 -110t-202.5 -40q-194 0 -315 121t-121 320v675h163v-649q0 -155 75.5 -236t217.5 -81q150 0 240 86.5t90 232.5z" />
    <glyph glyph-name="v" unicode="v" 
d="M549 0l-477 1085h186l377 -886l379 886h184l-477 -1085h-172z" />
    <glyph glyph-name="w" unicode="w" 
d="M1055 1085h153l-180 -1085h-182l-211 842l-209 -842h-184l-181 1085h152l139 -829l205 829h158l205 -829z" />
    <glyph glyph-name="x" unicode="x" 
d="M1198 0h-199l-364 463l-365 -463h-198l460 563l-440 522h201l342 -421l342 421h201l-441 -522z" />
    <glyph glyph-name="y" unicode="y" 
d="M1014 1085h184l-600 -1253q-41 -85 -98.5 -119.5t-155.5 -34.5q-50 0 -170 21l27 145q88 -16 141 -16q51 0 77.5 17t49.5 65l84 184l-481 991h186l381 -809z" />
    <glyph glyph-name="z" unicode="z" 
d="M154 0v137l741 805h-725v143h932v-135l-744 -807h758v-143h-962z" />
    <glyph glyph-name="braceleft" unicode="{" 
d="M508 -119v522q0 41 -23.5 63.5t-66.5 22.5h-92v160h92q43 0 66.5 22.5t23.5 63.5v479q0 149 82 230.5t231 81.5h125v-160h-92q-94 0 -133 -39t-39 -133v-438q0 -166 -139 -187q139 -21 139 -186v-481q0 -94 39 -133t133 -39h92v-160h-125q-149 0 -231 81t-82 230z" />
    <glyph glyph-name="bar" unicode="|" 
d="M549 -563v2150h174v-2150h-174z" />
    <glyph glyph-name="braceright" unicode="}" 
d="M449 -430h-125v160h92q94 0 133 39t39 133v481q0 165 139 186q-139 21 -139 187v438q0 94 -39 133t-133 39h-92v160h125q149 0 231 -81.5t82 -230.5v-479q0 -41 23.5 -63.5t66.5 -22.5h92v-160h-92q-43 0 -66.5 -22.5t-23.5 -63.5v-522q0 -149 -82 -230t-231 -81z" />
    <glyph glyph-name="asciitilde" unicode="~" 
d="M227 555l-155 49q32 135 123 211t219 76q68 0 125.5 -23t138.5 -75q62 -40 100.5 -57t77.5 -17q137 0 186 172l156 -49q-32 -136 -123 -211.5t-219 -75.5q-68 0 -123.5 22t-140.5 76q-62 40 -100.5 57t-77.5 17q-135 0 -187 -172z" />
    <glyph glyph-name="uni00A0" unicode="&#xa0;" 
 />
    <glyph glyph-name="exclamdown" unicode="&#xa1;" 
d="M549 -348v1040h174v-1040h-174zM512 840v245h248v-245h-248z" />
    <glyph glyph-name="cent" unicode="&#xa2;" 
d="M999 395l158 -39q-35 -160 -145 -260.5t-271 -120.5v-215h-174v215q-199 31 -321.5 187.5t-122.5 380.5t122 380t322 187v238h174v-238q159 -20 270 -117t146 -248l-160 -36q-32 123 -121 190.5t-217 67.5q-164 0 -268 -119.5t-104 -304.5q0 -186 104 -304t268 -118
q133 0 221.5 69.5t118.5 204.5z" />
    <glyph glyph-name="sterling" unicode="&#xa3;" 
d="M360 162h797v-162h-1042v162q134 77 197.5 163t68.5 191h-260v143h213q-8 13 -58 74q-77 97 -110 166.5t-33 157.5q0 174 131.5 290.5t329.5 116.5q221 0 371 -139t178 -373l-170 -24q-25 181 -124.5 279t-254.5 98q-125 0 -206 -73t-81 -185q0 -58 24 -106.5t83 -121.5
q76 -102 100 -160h381v-143h-352v-2q0 -213 -183 -352z" />
    <glyph glyph-name="currency" unicode="&#xa4;" 
d="M152 96l-84 84l170 168q-95 133 -95 316q0 184 95 317l-170 166l84 86l163 -164q132 113 320 113t319 -113l164 164l84 -86l-168 -166q92 -133 92 -317q0 -183 -92 -316l168 -168l-84 -84l-164 164q-133 -115 -319 -115q-189 0 -320 115zM952 664q0 157 -90 257.5
t-227 100.5t-227.5 -100.5t-90.5 -257.5q0 -158 90 -257.5t228 -99.5t227.5 99.5t89.5 257.5z" />
    <glyph glyph-name="yen" unicode="&#xa5;" 
d="M1198 1434l-403 -697h362v-149h-434v-150h434v-149h-434v-289h-174v289h-436v149h436v150h-436v149h364l-405 697h198l365 -650l366 650h197z" />
    <glyph glyph-name="brokenbar" unicode="&#xa6;" 
d="M539 707v880h194v-880h-194zM539 -563v880h194v-880h-194z" />
    <glyph glyph-name="section" unicode="&#xa7;" 
d="M958 176q84 -96 84 -219q0 -149 -109.5 -249.5t-275.5 -100.5q-180 0 -296 99t-136 271l172 21q13 -109 82 -170t176 -61q96 0 154.5 53t58.5 139q0 69 -49.5 119.5t-159.5 93.5l-260 98q-141 54 -213.5 133t-72.5 177q0 93 45 164.5t155 150.5q-84 96 -84 219
q0 149 108 249.5t275 100.5q182 0 297 -98.5t138 -271.5l-175 -21q-13 110 -81 171t-177 61q-94 0 -152.5 -53.5t-58.5 -139.5q0 -69 49.5 -119.5t159.5 -91.5l260 -98q140 -54 212.5 -133.5t72.5 -177.5q0 -93 -44.5 -163.5t-154.5 -152.5zM983 475q0 57 -42.5 99
t-133.5 77l-277 107q-36 13 -94 43q-71 -44 -110 -97.5t-39 -105.5q0 -56 43 -98.5t135 -79.5l276 -107q40 -14 95 -43q71 47 109 100t38 105z" />
    <glyph glyph-name="dieresis" unicode="&#xa8;" 
d="M322 1188v209h208v-209h-208zM739 1188v209h209v-209h-209z" />
    <glyph glyph-name="copyright" unicode="&#xa9;" 
d="M88 657q0 249 154 411.5t393 162.5q117 0 219 -43.5t174.5 -119.5t114 -182.5t41.5 -228.5q0 -163 -70.5 -294t-196.5 -205t-282 -74q-116 -2 -219 41.5t-175.5 120t-113.5 184t-39 227.5zM1044 657q0 197 -113.5 321t-295.5 124q-183 0 -296.5 -124t-113.5 -321
t113.5 -320.5t296.5 -123.5t296 123.5t113 320.5zM367 657q0 164 72.5 256.5t201.5 92.5q100 0 167 -63t79 -169l-121 -16q-11 62 -43.5 96.5t-81.5 34.5q-72 0 -108.5 -59.5t-36.5 -172.5t36.5 -173t108.5 -60q107 0 125 141l121 -16q-10 -112 -76.5 -177t-169.5 -65
q-130 0 -202 92t-72 258z" />
    <glyph glyph-name="ordfeminine" unicode="&#xaa;" 
d="M952 895l19 -109q-58 -10 -84 -10q-92 0 -129 78q-32 -41 -90 -64.5t-127 -23.5q-106 0 -173 52.5t-67 137.5q0 82 56 130t180 73q122 25 157 42.5t35 53.5t-37.5 59t-97.5 23q-70 0 -117.5 -35.5t-54.5 -95.5l-121 21q13 98 95 159.5t198 61.5q119 0 188.5 -56
t69.5 -153v-291q0 -59 47 -59q26 0 53 6zM729 1004v120q-13 -17 -44.5 -28.5t-115.5 -32.5q-79 -20 -111 -42.5t-32 -57.5q0 -41 31.5 -62.5t89.5 -21.5q80 0 131 35t51 90z" />
    <glyph glyph-name="guillemotleft" unicode="&#xab;" 
d="M436 575q172 -187 234 -387l-164 -53q-38 124 -107 226t-190 214q121 112 189.5 214.5t107.5 226.5l164 -53q-62 -201 -234 -388zM829 575q172 -187 234 -387l-164 -53q-38 124 -107 226t-190 214q121 112 189.5 214.5t107.5 226.5l164 -53q-62 -201 -234 -388z" />
    <glyph glyph-name="logicalnot" unicode="&#xac;" 
d="M979 315v418h-907v162h1085v-580h-178z" />
    <glyph glyph-name="uni00AD" unicode="&#xad;" 
d="M328 551v162h614v-162h-614z" />
    <glyph glyph-name="registered" unicode="&#xae;" 
d="M1184 657q0 -163 -70.5 -294t-196.5 -205t-282 -74q-116 -2 -219 41.5t-175.5 120t-113.5 184t-39 227.5q0 249 154 411.5t393 162.5q117 0 219 -43.5t174.5 -119.5t114 -182.5t41.5 -228.5zM1044 657q0 197 -113.5 321t-295.5 124q-183 0 -296.5 -124t-113.5 -321
t113.5 -320.5t296.5 -123.5t296 123.5t113 320.5zM739 592l125 -273h-125l-114 269h-78v-269h-115v674h266q94 0 154.5 -56t60.5 -146q0 -79 -48 -133.5t-126 -65.5zM797 791q0 96 -107 96h-143v-195h143q107 0 107 99z" />
    <glyph glyph-name="macron" unicode="&#xaf;" 
d="M297 1188v139h676v-139h-676z" />
    <glyph glyph-name="degree" unicode="&#xb0;" 
d="M283 1118q0 152 96 248q98 98 256 98q160 0 254 -98q98 -94 98 -248q0 -152 -97.5 -250t-254.5 -98t-254.5 98t-97.5 250zM840 1118q0 92 -57 150.5t-148 58.5t-147 -57.5t-56 -151.5t56 -151.5t147 -57.5t148 58t57 151z" />
    <glyph glyph-name="plusminus" unicode="&#xb1;" 
d="M723 866h434v-159h-434v-412h-174v412h-436v159h436v430h174v-430zM123 0v160h1024v-160h-1024z" />
    <glyph glyph-name="acute" unicode="&#xb4;" 
d="M432 1188l166 256h242l-230 -256h-178z" />
    <glyph glyph-name="paragraph" unicode="&#xb6;" 
d="M369 -246v1049q-134 0 -226 90.5t-92 224.5q0 136 92 225q97 91 240 91h733v-1680h-174v1520h-399v-1520h-174z" />
    <glyph glyph-name="periodcentered" unicode="&#xb7;" 
d="M498 604v273h276v-273h-276z" />
    <glyph glyph-name="cedilla" unicode="&#xb8;" 
d="M883 -268q0 -91 -65 -148t-173 -57q-86 0 -152.5 37.5t-101.5 105.5l111 64q26 -47 59 -66.5t84 -19.5q50 0 79.5 23.5t27.5 60.5q0 35 -29 56.5t-78 21.5q-52 0 -108 -35l-101 55l117 201h127l-78 -133q42 10 76 10q88 0 146.5 -50.5t58.5 -125.5z" />
    <glyph glyph-name="ordmasculine" unicode="&#xba;" 
d="M307 1104q0 157 89.5 250.5t238.5 93.5t239.5 -93.5t90.5 -250.5q0 -155 -91 -249.5t-239 -94.5t-238 94.5t-90 249.5zM836 1104q0 105 -54 166t-147 61t-147 -61t-54 -166q0 -104 54 -165.5t147 -61.5t147 61.5t54 165.5z" />
    <glyph glyph-name="guillemotright" unicode="&#xbb;" 
d="M834 575q-172 187 -234 388l164 53q39 -124 107.5 -226.5t189.5 -214.5q-121 -112 -190 -214t-107 -226l-164 53q62 200 234 387zM440 575q-170 185 -233 388l164 53q39 -124 107.5 -226.5t189.5 -214.5q-121 -112 -190 -214t-107 -226l-164 53q62 202 233 387z" />
    <glyph glyph-name="onequarter" unicode="&#xbc;" 
d="M711 909h286v-131h-725v131h297v531q-77 -83 -239 -123l-37 127q105 29 170.5 72t126.5 122h121v-729zM123 524v123h1024v-123h-1024zM877 -190h120v-134h-120v-168h-142v168h-463v138q151 133 231.5 262t110.5 293h146q-58 -356 -320 -559h295v225h142v-225z" />
    <glyph glyph-name="onehalf" unicode="&#xbd;" 
d="M711 909h286v-131h-725v131h297v531q-77 -83 -239 -123l-37 127q105 29 170.5 72t126.5 122h121v-729zM123 524v123h1024v-123h-1024zM666 -209q-111 -41 -160 -72.5t-60 -78.5h512v-132h-651v78q0 91 43 152q40 56 96 89.5t166 76.5q90 39 123 55q103 56 103 143
q0 69 -54.5 113.5t-140.5 44.5q-92 0 -150.5 -49t-58.5 -127q0 -48 27 -113l-133 -43q-35 84 -35 156q0 135 98 217q100 86 252 86q148 0 242 -82q94 -79 94 -207q0 -86 -45 -143q-40 -53 -99 -87.5t-169 -76.5z" />
    <glyph glyph-name="threequarters" unicode="&#xbe;" 
d="M985 1040q0 -120 -97.5 -200t-234.5 -80q-152 0 -248.5 76t-119.5 215l139 26q13 -91 73.5 -139.5t155.5 -48.5q81 0 136 45.5t55 116.5q0 78 -55 117.5t-160 39.5h-140v95l302 204h-441v131h615l2 -141l-271 -186q131 -6 210 -77.5t79 -193.5zM123 524v123h1024v-123
h-1024zM877 -190h120v-134h-120v-168h-142v168h-463v138q151 133 231.5 262t110.5 293h146q-58 -356 -320 -559h295v225h142v-225z" />
    <glyph glyph-name="questiondown" unicode="&#xbf;" 
d="M750 692v-321q-261 -76 -362 -150t-101 -196q0 -104 91 -174t232 -70q170 0 274.5 102t121.5 281l172 -19q-19 -241 -172.5 -382.5t-395.5 -141.5q-215 0 -356 116t-141 288q0 160 106 260q107 101 361 184v223h170zM772 1085v-245h-248v245h248z" />
    <glyph glyph-name="Agrave" unicode="&#xc0;" 
d="M1044 0l-133 395h-551l-133 -395h-176l500 1434h172l496 -1434h-175zM412 547h448l-223 672zM739 1536h-180l-227 256h241z" />
    <glyph glyph-name="Aacute" unicode="&#xc1;" 
d="M1044 0l-133 395h-551l-133 -395h-176l500 1434h172l496 -1434h-175zM412 547h448l-223 672zM537 1536l165 256h242l-229 -256h-178z" />
    <glyph glyph-name="Acircumflex" unicode="&#xc2;" 
d="M1044 0l-133 395h-551l-133 -395h-176l500 1434h172l496 -1434h-175zM412 547h448l-223 672zM907 1591l-125 -96l-145 186l-145 -186l-125 96l139 176h262z" />
    <glyph glyph-name="Atilde" unicode="&#xc3;" 
d="M1044 0l-133 395h-551l-133 -395h-176l500 1434h172l496 -1434h-175zM412 547h448l-223 672zM612 1571q-78 35 -110 35q-57 0 -72 -70h-121q6 103 56 159t135 56q66 0 162 -45q13 -8 50 -20.5t62 -12.5q57 0 72 68h119q-4 -99 -55.5 -157t-133.5 -58q-59 0 -164 45z" />
    <glyph glyph-name="Adieresis" unicode="&#xc4;" 
d="M1044 0l-133 395h-551l-133 -395h-176l500 1434h172l496 -1434h-175zM412 547h448l-223 672zM324 1536v209h208v-209h-208zM741 1536v209h209v-209h-209z" />
    <glyph glyph-name="Aring" unicode="&#xc5;" 
d="M1044 0l-133 395h-551l-133 -395h-176l500 1434h172l496 -1434h-175zM412 547h448l-223 672zM395 1546q0 97 68 158t174 61t175 -61.5t69 -157.5q0 -97 -69 -159t-175 -62t-174 62t-68 159zM748 1546q0 50 -30 80.5t-81 30.5q-49 0 -80 -30.5t-31 -80.5t31 -81t80 -31
t80 31t31 81z" />
    <glyph glyph-name="AE" unicode="&#xc6;" 
d="M1214 1284h-391v-457h334v-147h-334v-528h391v-152h-555v373h-358l-100 -373h-174l391 1434h796v-150zM340 516h319v768h-112z" />
    <glyph glyph-name="Ccedilla" unicode="&#xc7;" 
d="M113 717q0 346 148.5 546.5t404.5 200.5q191 0 327 -127q138 -126 172 -336l-168 -26q-32 159 -118 244.5t-213 85.5q-177 0 -278 -156t-101 -432q0 -275 101 -430.5t278 -155.5q272 0 333 356l168 -26q-35 -232 -167.5 -362t-333.5 -130q-256 0 -404.5 201.5
t-148.5 546.5zM924 -297q0 -91 -65 -148t-173 -57q-86 0 -152 38t-102 106l111 63q26 -47 59 -66.5t84 -19.5q50 0 79.5 23.5t27.5 60.5q0 35 -29 56.5t-78 21.5q-52 0 -108 -35l-101 55l117 201h127l-78 -133q42 10 76 10q88 0 146.5 -50.5t58.5 -125.5z" />
    <glyph glyph-name="Egrave" unicode="&#xc8;" 
d="M154 0v1434h1003v-160h-827v-459h657v-153h-657v-500h827v-162h-1003zM788 1536h-180l-227 256h242z" />
    <glyph glyph-name="Eacute" unicode="&#xc9;" 
d="M154 0v1434h1003v-160h-827v-459h657v-153h-657v-500h827v-162h-1003zM586 1536l166 256h241l-229 -256h-178z" />
    <glyph glyph-name="Ecircumflex" unicode="&#xca;" 
d="M154 0v1434h1003v-160h-827v-459h657v-153h-657v-500h827v-162h-1003zM956 1591l-125 -96l-145 186l-145 -186l-125 96l139 176h262z" />
    <glyph glyph-name="Edieresis" unicode="&#xcb;" 
d="M154 0v1434h1003v-160h-827v-459h657v-153h-657v-500h827v-162h-1003zM373 1536v209h209v-209h-209zM791 1536v209h208v-209h-208z" />
    <glyph glyph-name="Igrave" unicode="&#xcc;" 
d="M174 0v162h373v1112h-373v160h922v-160h-373v-1112h373v-162h-922zM737 1536h-180l-227 256h241z" />
    <glyph glyph-name="Iacute" unicode="&#xcd;" 
d="M174 0v162h373v1112h-373v160h922v-160h-373v-1112h373v-162h-922zM535 1536l165 256h242l-229 -256h-178z" />
    <glyph glyph-name="Icircumflex" unicode="&#xce;" 
d="M174 0v162h373v1112h-373v160h922v-160h-373v-1112h373v-162h-922zM905 1591l-125 -96l-145 186l-146 -186l-124 96l139 176h262z" />
    <glyph glyph-name="Idieresis" unicode="&#xcf;" 
d="M174 0v162h373v1112h-373v160h922v-160h-373v-1112h373v-162h-922zM322 1536v209h208v-209h-208zM739 1536v209h209v-209h-209z" />
    <glyph glyph-name="Eth" unicode="&#xd0;" 
d="M1157 717q0 -349 -154 -533t-438 -184h-323v657h-170v146h170v631h323q283 0 437.5 -184.5t154.5 -532.5zM983 717q0 557 -432 557h-135v-471h274v-146h-274v-495h135q432 0 432 555z" />
    <glyph glyph-name="Ntilde" unicode="&#xd1;" 
d="M942 1434h174v-1434h-182l-606 1124v-1124h-174v1434h182l606 -1123v1123zM610 1571q-78 35 -110 35q-57 0 -72 -70h-121q6 103 56 159t135 56q65 0 161 -45q13 -8 50.5 -20.5t62.5 -12.5q57 0 72 68h119q-4 -99 -55.5 -157t-133.5 -58q-59 0 -164 45z" />
    <glyph glyph-name="Ograve" unicode="&#xd2;" 
d="M113 717q0 358 136 552.5t386 194.5t386 -194.5t136 -552.5t-136 -553t-386 -195t-386 195t-136 553zM983 717q0 288 -89 438t-259 150t-259 -150t-89 -438q0 -289 88 -437.5t260 -148.5t260 148.5t88 437.5zM737 1567h-180l-227 256h241z" />
    <glyph glyph-name="Oacute" unicode="&#xd3;" 
d="M113 717q0 358 136 552.5t386 194.5t386 -194.5t136 -552.5t-136 -553t-386 -195t-386 195t-136 553zM983 717q0 288 -89 438t-259 150t-259 -150t-89 -438q0 -289 88 -437.5t260 -148.5t260 148.5t88 437.5zM535 1567l165 256h242l-229 -256h-178z" />
    <glyph glyph-name="Ocircumflex" unicode="&#xd4;" 
d="M113 717q0 358 136 552.5t386 194.5t386 -194.5t136 -552.5t-136 -553t-386 -195t-386 195t-136 553zM983 717q0 288 -89 438t-259 150t-259 -150t-89 -438q0 -289 88 -437.5t260 -148.5t260 148.5t88 437.5zM905 1622l-125 -96l-145 186l-146 -186l-124 96l139 176h262z
" />
    <glyph glyph-name="Otilde" unicode="&#xd5;" 
d="M113 717q0 358 136 552.5t386 194.5t386 -194.5t136 -552.5t-136 -553t-386 -195t-386 195t-136 553zM983 717q0 288 -89 438t-259 150t-259 -150t-89 -438q0 -289 88 -437.5t260 -148.5t260 148.5t88 437.5zM610 1602q-75 34 -110 34q-57 0 -72 -69h-121q6 103 56 159
t135 56q65 0 161 -45q13 -8 50.5 -20.5t62.5 -12.5q57 0 72 68h119q-4 -99 -55.5 -157.5t-133.5 -58.5q-57 0 -164 46z" />
    <glyph glyph-name="Odieresis" unicode="&#xd6;" 
d="M113 717q0 358 136 552.5t386 194.5t386 -194.5t136 -552.5t-136 -553t-386 -195t-386 195t-136 553zM983 717q0 288 -89 438t-259 150t-259 -150t-89 -438q0 -289 88 -437.5t260 -148.5t260 148.5t88 437.5zM322 1567v209h208v-209h-208zM739 1567v209h209v-209h-209z
" />
    <glyph glyph-name="multiply" unicode="&#xd7;" 
d="M1075 1010l-313 -314l307 -307l-113 -113l-307 308l-313 -314l-123 123l313 314l-309 309l113 112l309 -309l313 314z" />
    <glyph glyph-name="Oslash" unicode="&#xd8;" 
d="M1157 717q0 -358 -136 -553t-386 -195q-170 0 -293 97l-92 -162l-117 61l115 201q-135 193 -135 551t136 552.5t386 194.5q173 0 295 -94l90 160l117 -64l-113 -198q133 -198 133 -551zM340 332l510 897q-83 86 -215 86q-174 0 -264 -152t-90 -446q0 -237 59 -385z
M991 717q0 241 -61 387l-510 -899q86 -86 215 -86q174 0 265 152t91 446z" />
    <glyph glyph-name="Ugrave" unicode="&#xd9;" 
d="M143 500v934h174v-924q0 -188 81 -283.5t237 -95.5q317 0 317 379v924h174v-934q0 -250 -130.5 -390.5t-358.5 -140.5q-230 0 -362 141t-132 390zM737 1536h-180l-227 256h241z" />
    <glyph glyph-name="Uacute" unicode="&#xda;" 
d="M143 500v934h174v-924q0 -188 81 -283.5t237 -95.5q317 0 317 379v924h174v-934q0 -250 -130.5 -390.5t-358.5 -140.5q-230 0 -362 141t-132 390zM535 1536l165 256h242l-229 -256h-178z" />
    <glyph glyph-name="Ucircumflex" unicode="&#xdb;" 
d="M143 500v934h174v-924q0 -188 81 -283.5t237 -95.5q317 0 317 379v924h174v-934q0 -250 -130.5 -390.5t-358.5 -140.5q-230 0 -362 141t-132 390zM905 1591l-125 -96l-145 186l-146 -186l-124 96l139 176h262z" />
    <glyph glyph-name="Udieresis" unicode="&#xdc;" 
d="M143 500v934h174v-924q0 -188 81 -283.5t237 -95.5q317 0 317 379v924h174v-934q0 -250 -130.5 -390.5t-358.5 -140.5q-230 0 -362 141t-132 390zM322 1536v209h208v-209h-208zM739 1536v209h209v-209h-209z" />
    <glyph glyph-name="Yacute" unicode="&#xdd;" 
d="M1001 1434h197l-475 -820v-614h-174v614l-477 820h198l365 -650zM535 1536l165 256h242l-229 -256h-178z" />
    <glyph glyph-name="Thorn" unicode="&#xde;" 
d="M1178 733q0 -182 -128 -306t-315 -124h-407v-303h-174v1434h174v-273h407q186 0 314.5 -123.5t128.5 -304.5zM1004 733q0 121 -79 194.5t-204 73.5h-393v-536h393q125 0 204 73.5t79 194.5z" />
    <glyph glyph-name="germandbls" unicode="&#xdf;" 
d="M1137 418q0 -190 -129 -304t-344 -114h-177v152h177q144 0 226.5 70t82.5 196q0 127 -83 196.5t-226 69.5h-177v145h140q131 0 206.5 64t75.5 176q0 106 -79 176t-203 70q-153 0 -231.5 -79t-78.5 -232v-1004h-163v1010q0 210 126.5 332t346.5 122q193 0 319.5 -112
t126.5 -283q0 -103 -48 -182t-134 -121q113 -42 179.5 -134.5t66.5 -213.5z" />
    <glyph glyph-name="agrave" unicode="&#xe0;" 
d="M1171 150l25 -140q-62 -16 -119 -16q-159 0 -196 137q-49 -72 -141.5 -111.5t-209.5 -39.5q-170 0 -272 83.5t-102 223.5q0 137 86.5 217t281.5 121q194 43 260 80t66 104q0 74 -67 119t-177 45q-122 0 -202 -67t-97 -183l-151 25q24 164 147 266q126 102 303 102
q184 0 292 -90.5t108 -243.5v-540q0 -50 21.5 -77.5t59.5 -27.5q17 0 84 13zM850 375v237q-17 -31 -80 -56.5t-215 -63.5q-132 -33 -188 -78.5t-56 -122.5q0 -80 57 -124t162 -44q141 0 230.5 71t89.5 181zM709 1219h-181l-227 256h242z" />
    <glyph glyph-name="aacute" unicode="&#xe1;" 
d="M1171 150l25 -140q-62 -16 -119 -16q-159 0 -196 137q-49 -72 -141.5 -111.5t-209.5 -39.5q-170 0 -272 83.5t-102 223.5q0 137 86.5 217t281.5 121q194 43 260 80t66 104q0 74 -67 119t-177 45q-122 0 -202 -67t-97 -183l-151 25q24 164 147 266q126 102 303 102
q184 0 292 -90.5t108 -243.5v-540q0 -50 21.5 -77.5t59.5 -27.5q17 0 84 13zM850 375v237q-17 -31 -80 -56.5t-215 -63.5q-132 -33 -188 -78.5t-56 -122.5q0 -80 57 -124t162 -44q141 0 230.5 71t89.5 181zM506 1219l166 256h241l-229 -256h-178z" />
    <glyph glyph-name="acircumflex" unicode="&#xe2;" 
d="M1171 150l25 -140q-62 -16 -119 -16q-159 0 -196 137q-49 -72 -141.5 -111.5t-209.5 -39.5q-170 0 -272 83.5t-102 223.5q0 137 86.5 217t281.5 121q194 43 260 80t66 104q0 74 -67 119t-177 45q-122 0 -202 -67t-97 -183l-151 25q24 164 147 266q126 102 303 102
q184 0 292 -90.5t108 -243.5v-540q0 -50 21.5 -77.5t59.5 -27.5q17 0 84 13zM850 375v237q-17 -31 -80 -56.5t-215 -63.5q-132 -33 -188 -78.5t-56 -122.5q0 -80 57 -124t162 -44q141 0 230.5 71t89.5 181zM877 1274l-125 -96l-146 186l-145 -186l-125 96l139 176h262z" />
    <glyph glyph-name="atilde" unicode="&#xe3;" 
d="M1171 150l25 -140q-62 -16 -119 -16q-159 0 -196 137q-49 -72 -141.5 -111.5t-209.5 -39.5q-170 0 -272 83.5t-102 223.5q0 137 86.5 217t281.5 121q194 43 260 80t66 104q0 74 -67 119t-177 45q-122 0 -202 -67t-97 -183l-151 25q24 164 147 266q126 102 303 102
q184 0 292 -90.5t108 -243.5v-540q0 -50 21.5 -77.5t59.5 -27.5q17 0 84 13zM850 375v237q-17 -31 -80 -56.5t-215 -63.5q-132 -33 -188 -78.5t-56 -122.5q0 -80 57 -124t162 -44q141 0 230.5 71t89.5 181zM582 1253q-78 35 -111 35q-57 0 -72 -69h-120q6 103 55.5 159
t134.5 56q66 0 162 -45q13 -8 50 -20.5t62 -12.5q57 0 72 67h119q-4 -99 -55.5 -157t-133.5 -58q-58 0 -163 45z" />
    <glyph glyph-name="adieresis" unicode="&#xe4;" 
d="M1171 150l25 -140q-62 -16 -119 -16q-159 0 -196 137q-49 -72 -141.5 -111.5t-209.5 -39.5q-170 0 -272 83.5t-102 223.5q0 137 86.5 217t281.5 121q194 43 260 80t66 104q0 74 -67 119t-177 45q-122 0 -202 -67t-97 -183l-151 25q24 164 147 266q126 102 303 102
q184 0 292 -90.5t108 -243.5v-540q0 -50 21.5 -77.5t59.5 -27.5q17 0 84 13zM850 375v237q-17 -31 -80 -56.5t-215 -63.5q-132 -33 -188 -78.5t-56 -122.5q0 -80 57 -124t162 -44q141 0 230.5 71t89.5 181zM293 1219v208h209v-208h-209zM711 1219v208h209v-208h-209z" />
    <glyph glyph-name="aring" unicode="&#xe5;" 
d="M1171 150l25 -140q-62 -16 -119 -16q-159 0 -196 137q-49 -72 -141.5 -111.5t-209.5 -39.5q-170 0 -272 83.5t-102 223.5q0 137 86.5 217t281.5 121q194 43 260 80t66 104q0 74 -67 119t-177 45q-122 0 -202 -67t-97 -183l-151 25q24 164 147 266q126 102 303 102
q184 0 292 -90.5t108 -243.5v-540q0 -50 21.5 -77.5t59.5 -27.5q17 0 84 13zM850 375v237q-17 -31 -80 -56.5t-215 -63.5q-132 -33 -188 -78.5t-56 -122.5q0 -80 57 -124t162 -44q141 0 230.5 71t89.5 181zM365 1229q0 97 67.5 158t173.5 61t175 -61.5t69 -157.5
q0 -97 -69 -159t-175 -62t-173.5 62t-67.5 159zM717 1229q0 50 -30 80t-81 30q-50 0 -80 -30.5t-30 -79.5q0 -50 30.5 -81.5t79.5 -31.5t80 31.5t31 81.5z" />
    <glyph glyph-name="ae" unicode="&#xe6;" 
d="M1225 535v-37h-514q0 -193 43 -285t133 -92q136 0 166 246l159 -23q-50 -375 -325 -375q-181 0 -258 156q-80 -156 -279 -156q-140 0 -221.5 87.5t-81.5 236.5q0 135 72.5 217t222.5 119q125 34 166 70t41 112q0 72 -40.5 114t-109.5 42q-160 0 -172 -215l-161 10
q6 164 94 259t231 95q87 0 155 -36.5t99 -98.5q37 66 99.5 100.5t142.5 34.5q171 0 254.5 -143.5t83.5 -437.5zM713 637h344q0 163 -43 246.5t-125 83.5q-173 0 -176 -330zM547 326v252q-14 -25 -52 -43t-130 -43q-80 -23 -117 -71.5t-37 -127.5q0 -85 37.5 -128.5
t109.5 -43.5q85 0 137 56.5t52 148.5z" />
    <glyph glyph-name="ccedilla" unicode="&#xe7;" 
d="M123 543q0 253 150.5 413t385.5 160q188 0 324 -100.5t174 -270.5l-160 -36q-32 123 -121 190.5t-217 67.5q-164 0 -268 -119.5t-104 -304.5q0 -186 104 -304t268 -118q133 0 221.5 69.5t118.5 204.5l158 -39q-38 -182 -172 -284.5t-326 -102.5q-235 0 -385.5 160.5
t-150.5 413.5zM928 -297q0 -91 -65 -148t-173 -57q-86 0 -152 38t-102 106l111 63q26 -47 59 -66.5t84 -19.5q50 0 79.5 23.5t27.5 60.5q0 35 -29 56.5t-78 21.5q-52 0 -108 -35l-101 55l117 201h127l-78 -133q42 10 76 10q88 0 146.5 -50.5t58.5 -125.5z" />
    <glyph glyph-name="egrave" unicode="&#xe8;" 
d="M635 115q240 0 340 237l139 -69q-62 -148 -187.5 -231t-291.5 -83q-230 0 -370 158.5t-140 415.5q0 259 140.5 416t369.5 157t369.5 -157t140.5 -416v-68h-858q17 -168 109 -264t239 -96zM285 610h700q-7 168 -103 265.5t-247 97.5q-150 0 -248 -101q-99 -99 -102 -262z
M748 1219h-181l-227 256h242z" />
    <glyph glyph-name="eacute" unicode="&#xe9;" 
d="M635 115q240 0 340 237l139 -69q-62 -148 -187.5 -231t-291.5 -83q-230 0 -370 158.5t-140 415.5q0 259 140.5 416t369.5 157t369.5 -157t140.5 -416v-68h-858q17 -168 109 -264t239 -96zM285 610h700q-7 168 -103 265.5t-247 97.5q-150 0 -248 -101q-99 -99 -102 -262z
M545 1219l166 256h241l-229 -256h-178z" />
    <glyph glyph-name="ecircumflex" unicode="&#xea;" 
d="M635 115q240 0 340 237l139 -69q-62 -148 -187.5 -231t-291.5 -83q-230 0 -370 158.5t-140 415.5q0 259 140.5 416t369.5 157t369.5 -157t140.5 -416v-68h-858q17 -168 109 -264t239 -96zM285 610h700q-7 168 -103 265.5t-247 97.5q-150 0 -248 -101q-99 -99 -102 -262z
M915 1274l-124 -96l-146 186l-145 -186l-125 96l139 176h262z" />
    <glyph glyph-name="edieresis" unicode="&#xeb;" 
d="M635 115q240 0 340 237l139 -69q-62 -148 -187.5 -231t-291.5 -83q-230 0 -370 158.5t-140 415.5q0 259 140.5 416t369.5 157t369.5 -157t140.5 -416v-68h-858q17 -168 109 -264t239 -96zM285 610h700q-7 168 -103 265.5t-247 97.5q-150 0 -248 -101q-99 -99 -102 -262z
M332 1219v208h209v-208h-209zM750 1219v208h208v-208h-208z" />
    <glyph glyph-name="igrave" unicode="&#xec;" 
d="M164 0v152h399v784h-348v149h512v-933h379v-152h-942zM748 1188h-181l-227 256h242z" />
    <glyph glyph-name="iacute" unicode="&#xed;" 
d="M164 0v152h399v784h-348v149h512v-933h379v-152h-942zM545 1188l166 256h241l-229 -256h-178z" />
    <glyph glyph-name="icircumflex" unicode="&#xee;" 
d="M164 0v152h399v784h-348v149h512v-933h379v-152h-942zM915 1243l-124 -96l-146 186l-145 -186l-125 96l139 176h262z" />
    <glyph glyph-name="idieresis" unicode="&#xef;" 
d="M164 0v152h399v784h-348v149h512v-933h379v-152h-942zM332 1188v209h209v-209h-209zM750 1188v209h208v-209h-208z" />
    <glyph glyph-name="eth" unicode="&#xf0;" 
d="M1147 539q0 -260 -139 -415t-373 -155q-231 0 -371.5 150t-140.5 397q0 241 140 393t362 152q167 0 262 -92q-57 112 -146 229l-256 -68l-28 93l219 59q-58 70 -131 148v6h178l100 -115l250 65l31 -92l-217 -57q260 -353 260 -698zM981 528q0 174 -94 278.5t-252 104.5
q-160 0 -254 -106t-94 -289t94 -289t254 -106t253 109t93 298z" />
    <glyph glyph-name="ntilde" unicode="&#xf1;" 
d="M1116 676v-676h-164v649q0 155 -75.5 236.5t-217.5 81.5q-150 0 -239.5 -87t-89.5 -233l-2 -647h-164v1085h164v-118q56 69 149 109t203 40q194 0 315 -121t121 -319zM625 1253q-78 35 -111 35q-57 0 -72 -69h-120q6 103 55.5 159t134.5 56q66 0 162 -45q13 -8 50 -20.5
t62 -12.5q57 0 72 67h119q-4 -99 -55.5 -157t-133.5 -58q-58 0 -163 45z" />
    <glyph glyph-name="ograve" unicode="&#xf2;" 
d="M123 543q0 259 140.5 416t371.5 157t371.5 -157t140.5 -416t-140.5 -416.5t-371.5 -157.5t-371.5 157.5t-140.5 416.5zM983 543q0 193 -94 308.5t-254 115.5t-254 -116t-94 -308t94 -307t254 -115t254 115t94 307zM737 1219h-180l-227 256h241z" />
    <glyph glyph-name="oacute" unicode="&#xf3;" 
d="M123 543q0 259 140.5 416t371.5 157t371.5 -157t140.5 -416t-140.5 -416.5t-371.5 -157.5t-371.5 157.5t-140.5 416.5zM983 543q0 193 -94 308.5t-254 115.5t-254 -116t-94 -308t94 -307t254 -115t254 115t94 307zM535 1219l165 256h242l-229 -256h-178z" />
    <glyph glyph-name="ocircumflex" unicode="&#xf4;" 
d="M123 543q0 259 140.5 416t371.5 157t371.5 -157t140.5 -416t-140.5 -416.5t-371.5 -157.5t-371.5 157.5t-140.5 416.5zM983 543q0 193 -94 308.5t-254 115.5t-254 -116t-94 -308t94 -307t254 -115t254 115t94 307zM905 1274l-125 -96l-145 186l-146 -186l-124 96l139 176
h262z" />
    <glyph glyph-name="otilde" unicode="&#xf5;" 
d="M123 543q0 259 140.5 416t371.5 157t371.5 -157t140.5 -416t-140.5 -416.5t-371.5 -157.5t-371.5 157.5t-140.5 416.5zM983 543q0 193 -94 308.5t-254 115.5t-254 -116t-94 -308t94 -307t254 -115t254 115t94 307zM610 1253q-78 35 -110 35q-57 0 -72 -69h-121
q6 103 56 159t135 56q65 0 161 -45q13 -8 50.5 -20.5t62.5 -12.5q57 0 72 67h119q-4 -99 -55.5 -157t-133.5 -58q-59 0 -164 45z" />
    <glyph glyph-name="odieresis" unicode="&#xf6;" 
d="M123 543q0 259 140.5 416t371.5 157t371.5 -157t140.5 -416t-140.5 -416.5t-371.5 -157.5t-371.5 157.5t-140.5 416.5zM983 543q0 193 -94 308.5t-254 115.5t-254 -116t-94 -308t94 -307t254 -115t254 115t94 307zM322 1219v208h208v-208h-208zM739 1219v208h209v-208
h-209z" />
    <glyph glyph-name="divide" unicode="&#xf7;" 
d="M524 1010v217h221v-217h-221zM174 614v177h922v-177h-922zM524 174v217h221v-217h-221z" />
    <glyph glyph-name="oslash" unicode="&#xf8;" 
d="M1147 543q0 -259 -140.5 -416.5t-371.5 -157.5q-165 0 -287 82l-92 -123l-102 68l102 137q-133 160 -133 410q0 259 140.5 416t371.5 157q161 0 289 -84l94 125l98 -74l-100 -135q131 -153 131 -405zM352 264l484 649q-83 62 -201 62q-163 0 -258.5 -118t-95.5 -314
q0 -170 71 -279zM991 543q0 166 -69 278l-484 -649q83 -59 197 -59q164 0 260 118t96 312z" />
    <glyph glyph-name="ugrave" unicode="&#xf9;" 
d="M942 1085h164v-1085h-164v119q-56 -70 -149.5 -110t-202.5 -40q-194 0 -315 121t-121 320v675h163v-649q0 -155 75.5 -236t217.5 -81q150 0 240 86.5t90 232.5zM737 1188h-180l-227 256h241z" />
    <glyph glyph-name="uacute" unicode="&#xfa;" 
d="M942 1085h164v-1085h-164v119q-56 -70 -149.5 -110t-202.5 -40q-194 0 -315 121t-121 320v675h163v-649q0 -155 75.5 -236t217.5 -81q150 0 240 86.5t90 232.5zM535 1188l165 256h242l-229 -256h-178z" />
    <glyph glyph-name="ucircumflex" unicode="&#xfb;" 
d="M942 1085h164v-1085h-164v119q-56 -70 -149.5 -110t-202.5 -40q-194 0 -315 121t-121 320v675h163v-649q0 -155 75.5 -236t217.5 -81q150 0 240 86.5t90 232.5zM905 1243l-125 -96l-145 186l-146 -186l-124 96l139 176h262z" />
    <glyph glyph-name="udieresis" unicode="&#xfc;" 
d="M942 1085h164v-1085h-164v119q-56 -70 -149.5 -110t-202.5 -40q-194 0 -315 121t-121 320v675h163v-649q0 -155 75.5 -236t217.5 -81q150 0 240 86.5t90 232.5zM322 1188v209h208v-209h-208zM739 1188v209h209v-209h-209z" />
    <glyph glyph-name="yacute" unicode="&#xfd;" 
d="M1014 1085h184l-600 -1253q-41 -85 -98.5 -119.5t-155.5 -34.5q-50 0 -170 21l27 145q88 -16 141 -16q51 0 77.5 17t49.5 65l84 184l-481 991h186l381 -809zM535 1188l165 256h242l-229 -256h-178z" />
    <glyph glyph-name="thorn" unicode="&#xfe;" 
d="M1147 543q0 -257 -133.5 -415.5t-351.5 -158.5q-102 0 -189.5 35t-138.5 96v-561h-164v1895h164v-449q56 61 143.5 96t184.5 35q217 0 351 -157t134 -416zM983 543q0 191 -90.5 307.5t-239.5 116.5q-137 0 -228 -90t-91 -224v-211q0 -141 89 -231t230 -90q151 0 240 117
q90 119 90 305z" />
    <glyph glyph-name="ydieresis" unicode="&#xff;" 
d="M1014 1085h184l-600 -1253q-41 -85 -98.5 -119.5t-155.5 -34.5q-50 0 -170 21l27 145q88 -16 141 -16q51 0 77.5 17t49.5 65l84 184l-481 991h186l381 -809zM322 1188v209h208v-209h-208zM739 1188v209h209v-209h-209z" />
    <glyph glyph-name="Amacron" unicode="&#x100;" 
d="M1044 0l-133 395h-551l-133 -395h-176l500 1434h172l496 -1434h-175zM412 547h448l-223 672zM299 1536v139h676v-139h-676z" />
    <glyph glyph-name="amacron" unicode="&#x101;" 
d="M1171 150l25 -140q-62 -16 -119 -16q-159 0 -196 137q-49 -72 -141.5 -111.5t-209.5 -39.5q-170 0 -272 83.5t-102 223.5q0 137 86.5 217t281.5 121q194 43 260 80t66 104q0 74 -67 119t-177 45q-122 0 -202 -67t-97 -183l-151 25q24 164 147 266q126 102 303 102
q184 0 292 -90.5t108 -243.5v-540q0 -50 21.5 -77.5t59.5 -27.5q17 0 84 13zM850 375v237q-17 -31 -80 -56.5t-215 -63.5q-132 -33 -188 -78.5t-56 -122.5q0 -80 57 -124t162 -44q141 0 230.5 71t89.5 181zM268 1219v139h676v-139h-676z" />
    <glyph glyph-name="Abreve" unicode="&#x102;" 
d="M1044 0l-133 395h-551l-133 -395h-176l500 1434h172l496 -1434h-175zM412 547h448l-223 672zM371 1769h116q11 -55 49.5 -84.5t100.5 -29.5q127 0 151 114h115q0 -115 -73.5 -184t-192.5 -69t-192.5 69t-73.5 184z" />
    <glyph glyph-name="abreve" unicode="&#x103;" 
d="M1171 150l25 -140q-62 -16 -119 -16q-159 0 -196 137q-49 -72 -141.5 -111.5t-209.5 -39.5q-170 0 -272 83.5t-102 223.5q0 137 86.5 217t281.5 121q194 43 260 80t66 104q0 74 -67 119t-177 45q-122 0 -202 -67t-97 -183l-151 25q24 164 147 266q126 102 303 102
q184 0 292 -90.5t108 -243.5v-540q0 -50 21.5 -77.5t59.5 -27.5q17 0 84 13zM850 375v237q-17 -31 -80 -56.5t-215 -63.5q-132 -33 -188 -78.5t-56 -122.5q0 -80 57 -124t162 -44q141 0 230.5 71t89.5 181zM340 1452h117q11 -55 49 -85t100 -30q128 0 152 115h114
q0 -115 -73.5 -184.5t-192.5 -69.5t-192.5 69.5t-73.5 184.5z" />
    <glyph glyph-name="Aogonek" unicode="&#x104;" 
d="M1044 0l-133 395h-551l-133 -395h-176l500 1434h172l496 -1434h-175zM412 547h448l-223 672zM805 -246q0 84 68.5 153.5t211.5 131.5l91 -39q-122 -69 -173 -118.5t-51 -100.5q0 -68 90 -68q84 0 191 64l63 -127q-139 -74 -254 -74q-109 0 -173 48t-64 130z" />
    <glyph glyph-name="aogonek" unicode="&#x105;" 
d="M1171 150l25 -140q-62 -16 -119 -16q-159 0 -196 137q-49 -72 -141.5 -111.5t-209.5 -39.5q-170 0 -272 83.5t-102 223.5q0 137 86.5 217t281.5 121q194 43 260 80t66 104q0 74 -67 119t-177 45q-122 0 -202 -67t-97 -183l-151 25q24 164 147 266q126 102 303 102
q184 0 292 -90.5t108 -243.5v-540q0 -50 21.5 -77.5t59.5 -27.5q17 0 84 13zM850 375v237q-17 -31 -80 -56.5t-215 -63.5q-132 -33 -188 -78.5t-56 -122.5q0 -80 57 -124t162 -44q141 0 230.5 71t89.5 181zM774 -246q0 84 69 153.5t212 131.5l90 -39q-122 -69 -172.5 -118.5
t-50.5 -100.5q0 -68 90 -68q83 0 190 64l64 -127q-139 -74 -254 -74q-109 0 -173.5 48t-64.5 130z" />
    <glyph glyph-name="Cacute" unicode="&#x106;" 
d="M113 717q0 346 148.5 546.5t404.5 200.5q191 0 327 -127q138 -126 172 -336l-168 -26q-32 159 -118 244.5t-213 85.5q-177 0 -278 -156t-101 -432q0 -275 101 -430.5t278 -155.5q272 0 333 356l168 -26q-35 -232 -167.5 -362t-333.5 -130q-256 0 -404.5 201.5
t-148.5 546.5zM565 1567l166 256h242l-230 -256h-178z" />
    <glyph glyph-name="cacute" unicode="&#x107;" 
d="M123 543q0 253 150.5 413t385.5 160q188 0 324 -100.5t174 -270.5l-160 -36q-32 123 -121 190.5t-217 67.5q-164 0 -268 -119.5t-104 -304.5q0 -186 104 -304t268 -118q133 0 221.5 69.5t118.5 204.5l158 -39q-38 -182 -172 -284.5t-326 -102.5q-235 0 -385.5 160.5
t-150.5 413.5zM569 1219l166 256h242l-229 -256h-179z" />
    <glyph glyph-name="Ccircumflex" unicode="&#x108;" 
d="M113 717q0 346 148.5 546.5t404.5 200.5q191 0 327 -127q138 -126 172 -336l-168 -26q-32 159 -118 244.5t-213 85.5q-177 0 -278 -156t-101 -432q0 -275 101 -430.5t278 -155.5q272 0 333 356l168 -26q-35 -232 -167.5 -362t-333.5 -130q-256 0 -404.5 201.5
t-148.5 546.5zM936 1622l-125 -96l-145 186l-146 -186l-125 96l140 176h262z" />
    <glyph glyph-name="ccircumflex" unicode="&#x109;" 
d="M123 543q0 253 150.5 413t385.5 160q188 0 324 -100.5t174 -270.5l-160 -36q-32 123 -121 190.5t-217 67.5q-164 0 -268 -119.5t-104 -304.5q0 -186 104 -304t268 -118q133 0 221.5 69.5t118.5 204.5l158 -39q-38 -182 -172 -284.5t-326 -102.5q-235 0 -385.5 160.5
t-150.5 413.5zM940 1274l-125 -96l-145 186l-146 -186l-125 96l140 176h262z" />
    <glyph glyph-name="Cdotaccent" unicode="&#x10a;" 
d="M113 717q0 346 148.5 546.5t404.5 200.5q191 0 327 -127q138 -126 172 -336l-168 -26q-32 159 -118 244.5t-213 85.5q-177 0 -278 -156t-101 -432q0 -275 101 -430.5t278 -155.5q272 0 333 356l168 -26q-35 -232 -167.5 -362t-333.5 -130q-256 0 -404.5 201.5
t-148.5 546.5zM557 1567v215h217v-215h-217z" />
    <glyph glyph-name="cdotaccent" unicode="&#x10b;" 
d="M123 543q0 253 150.5 413t385.5 160q188 0 324 -100.5t174 -270.5l-160 -36q-32 123 -121 190.5t-217 67.5q-164 0 -268 -119.5t-104 -304.5q0 -186 104 -304t268 -118q133 0 221.5 69.5t118.5 204.5l158 -39q-38 -182 -172 -284.5t-326 -102.5q-235 0 -385.5 160.5
t-150.5 413.5zM561 1219v215h217v-215h-217z" />
    <glyph glyph-name="Ccaron" unicode="&#x10c;" 
d="M113 717q0 346 148.5 546.5t404.5 200.5q191 0 327 -127q138 -126 172 -336l-168 -26q-32 159 -118 244.5t-213 85.5q-177 0 -278 -156t-101 -432q0 -275 101 -430.5t278 -155.5q272 0 333 356l168 -26q-35 -232 -167.5 -362t-333.5 -130q-256 0 -404.5 201.5
t-148.5 546.5zM811 1839l125 -94l-139 -178h-262l-140 178l125 94l146 -184z" />
    <glyph glyph-name="ccaron" unicode="&#x10d;" 
d="M123 543q0 253 150.5 413t385.5 160q188 0 324 -100.5t174 -270.5l-160 -36q-32 123 -121 190.5t-217 67.5q-164 0 -268 -119.5t-104 -304.5q0 -186 104 -304t268 -118q133 0 221.5 69.5t118.5 204.5l158 -39q-38 -182 -172 -284.5t-326 -102.5q-235 0 -385.5 160.5
t-150.5 413.5zM815 1491l125 -94l-139 -178h-262l-140 178l125 94l146 -184z" />
    <glyph glyph-name="Dcaron" unicode="&#x10e;" 
d="M154 1434h411q283 0 437.5 -184.5t154.5 -532.5q0 -349 -154 -533t-438 -184h-411v1434zM983 717q0 557 -432 557h-223v-1112h223q432 0 432 555zM741 1808l125 -94l-139 -178h-262l-139 178l125 94l145 -184z" />
    <glyph glyph-name="dcaron" unicode="&#x10f;" 
d="M770 1004v430h164v-1434h-162v84q-41 -54 -109 -84.5t-147 -30.5q-189 0 -306.5 159t-117.5 415q0 255 117.5 414t302.5 159q82 0 149.5 -29t108.5 -83zM1038 1434h215v-168q0 -94 -52.5 -148.5t-149.5 -62.5v98q36 6 49.5 23.5t13.5 56.5h-76v201zM770 442v211
q0 136 -69 225t-175 89q-124 0 -197 -114.5t-73 -309.5q0 -192 73 -307t195 -115q109 0 177.5 90t68.5 231z" />
    <glyph glyph-name="Dcroat" unicode="&#x110;" 
d="M1157 717q0 -349 -154 -533t-438 -184h-323v657h-170v146h170v631h323q283 0 437.5 -184.5t154.5 -532.5zM983 717q0 557 -432 557h-135v-471h274v-146h-274v-495h135q432 0 432 555z" />
    <glyph glyph-name="dcroat" unicode="&#x111;" 
d="M1235 1335v-129h-129v-1206h-164v104q-56 -62 -143.5 -98.5t-184.5 -36.5q-219 0 -355 160t-136 414q0 256 135.5 414.5t355.5 158.5q103 0 189.5 -36.5t138.5 -100.5v227h-332v129h332v99h164v-99h129zM942 442v211q0 140 -88 227t-229 87q-155 0 -246.5 -114.5
t-91.5 -309.5q0 -192 91 -307t245 -115q143 0 231 87.5t88 233.5z" />
    <glyph glyph-name="Emacron" unicode="&#x112;" 
d="M154 0v1434h1003v-160h-827v-459h657v-153h-657v-500h827v-162h-1003zM348 1536v139h676v-139h-676z" />
    <glyph glyph-name="emacron" unicode="&#x113;" 
d="M635 115q240 0 340 237l139 -69q-62 -148 -187.5 -231t-291.5 -83q-230 0 -370 158.5t-140 415.5q0 259 140.5 416t369.5 157t369.5 -157t140.5 -416v-68h-858q17 -168 109 -264t239 -96zM285 610h700q-7 168 -103 265.5t-247 97.5q-150 0 -248 -101q-99 -99 -102 -262z
M307 1219v139h676v-139h-676z" />
    <glyph glyph-name="Ebreve" unicode="&#x114;" 
d="M154 0v1434h1003v-160h-827v-459h657v-153h-657v-500h827v-162h-1003zM420 1769h117q11 -55 49 -84.5t100 -29.5q128 0 152 114h114q0 -115 -73.5 -184t-192.5 -69t-192.5 69t-73.5 184z" />
    <glyph glyph-name="ebreve" unicode="&#x115;" 
d="M635 115q240 0 340 237l139 -69q-62 -148 -187.5 -231t-291.5 -83q-230 0 -370 158.5t-140 415.5q0 259 140.5 416t369.5 157t369.5 -157t140.5 -416v-68h-858q17 -168 109 -264t239 -96zM285 610h700q-7 168 -103 265.5t-247 97.5q-150 0 -248 -101q-99 -99 -102 -262z
M379 1452h117q11 -55 49 -85t100 -30q128 0 152 115h114q0 -115 -73.5 -184.5t-192.5 -69.5t-192.5 69.5t-73.5 184.5z" />
    <glyph glyph-name="Edotaccent" unicode="&#x116;" 
d="M154 0v1434h1003v-160h-827v-459h657v-153h-657v-500h827v-162h-1003zM578 1536v215h217v-215h-217z" />
    <glyph glyph-name="edotaccent" unicode="&#x117;" 
d="M635 115q240 0 340 237l139 -69q-62 -148 -187.5 -231t-291.5 -83q-230 0 -370 158.5t-140 415.5q0 259 140.5 416t369.5 157t369.5 -157t140.5 -416v-68h-858q17 -168 109 -264t239 -96zM285 610h700q-7 168 -103 265.5t-247 97.5q-150 0 -248 -101q-99 -99 -102 -262z
M537 1219v215h217v-215h-217z" />
    <glyph glyph-name="Eogonek" unicode="&#x118;" 
d="M154 0v1434h1003v-160h-827v-459h657v-153h-657v-500h827v-162h-1003zM657 -246q0 84 69 153.5t212 131.5l90 -39q-122 -69 -172.5 -118.5t-50.5 -100.5q0 -68 90 -68q83 0 190 64l64 -127q-139 -74 -254 -74q-109 0 -173.5 48t-64.5 130z" />
    <glyph glyph-name="eogonek" unicode="&#x119;" 
d="M635 115q240 0 340 237l139 -69q-62 -148 -187.5 -231t-291.5 -83q-230 0 -370 158.5t-140 415.5q0 259 140.5 416t369.5 157t369.5 -157t140.5 -416v-68h-858q17 -168 109 -264t239 -96zM285 610h700q-7 168 -103 265.5t-247 97.5q-150 0 -248 -101q-99 -99 -102 -262z
M459 -246q0 84 68.5 153.5t211.5 131.5l90 -39q-122 -69 -172.5 -118.5t-50.5 -100.5q0 -68 90 -68q84 0 191 64l63 -127q-139 -74 -254 -74q-109 0 -173 48t-64 130z" />
    <glyph glyph-name="Ecaron" unicode="&#x11a;" 
d="M154 0v1434h1003v-160h-827v-459h657v-153h-657v-500h827v-162h-1003zM831 1808l125 -94l-139 -178h-262l-139 178l125 94l145 -184z" />
    <glyph glyph-name="ecaron" unicode="&#x11b;" 
d="M635 115q240 0 340 237l139 -69q-62 -148 -187.5 -231t-291.5 -83q-230 0 -370 158.5t-140 415.5q0 259 140.5 416t369.5 157t369.5 -157t140.5 -416v-68h-858q17 -168 109 -264t239 -96zM285 610h700q-7 168 -103 265.5t-247 97.5q-150 0 -248 -101q-99 -99 -102 -262z
M791 1491l124 -94l-139 -178h-262l-139 178l125 94l145 -184z" />
    <glyph glyph-name="Gcircumflex" unicode="&#x11c;" 
d="M588 721h579v-721h-108l-39 147q-126 -178 -354 -178q-256 0 -404.5 201.5t-148.5 546.5q0 346 148.5 546.5t404.5 200.5q191 0 327 -127q138 -126 172 -336l-168 -26q-32 159 -118 244.5t-213 85.5q-177 0 -278 -156t-101 -432q0 -275 101 -430.5t278 -155.5
q149 0 241 108t92 267v53h-411v162zM936 1622l-125 -96l-145 186l-146 -186l-125 96l140 176h262z" />
    <glyph glyph-name="gcircumflex" unicode="&#x11d;" 
d="M1135 -184q0 -147 -130.5 -227.5t-369.5 -80.5q-234 0 -368 80.5t-134 221.5q0 73 44 139.5t122 107.5q-125 64 -125 185q0 119 123 190q-104 113 -104 275q0 180 124 294.5t318 114.5q119 0 215 -47q32 87 102.5 143.5t167.5 73.5l37 -145q-161 -27 -207 -137
q125 -119 125 -297q0 -180 -124 -295t-316 -115q-137 0 -244 61q-72 -37 -72 -98q0 -54 49 -83.5t154 -41.5l266 -33q179 -23 263 -91.5t84 -194.5zM350 707q0 -119 79 -193t206 -74t206 74t79 193t-79 193.5t-206 74.5q-128 0 -206.5 -73.5t-78.5 -194.5zM979 -180
q0 68 -50.5 103.5t-162.5 49.5l-270 33l-41 6q-74 -20 -119 -72.5t-45 -119.5q0 -82 89 -126t255 -44q344 0 344 170zM872 1274l-124 -96l-146 186l-145 -186l-125 96l139 176h262z" />
    <glyph glyph-name="Gbreve" unicode="&#x11e;" 
d="M588 721h579v-721h-108l-39 147q-126 -178 -354 -178q-256 0 -404.5 201.5t-148.5 546.5q0 346 148.5 546.5t404.5 200.5q191 0 327 -127q138 -126 172 -336l-168 -26q-32 159 -118 244.5t-213 85.5q-177 0 -278 -156t-101 -432q0 -275 101 -430.5t278 -155.5
q149 0 241 108t92 267v53h-411v162zM399 1800h117q11 -55 49.5 -84.5t100.5 -29.5q127 0 151 114h115q0 -115 -73.5 -184.5t-192.5 -69.5t-193 69.5t-74 184.5z" />
    <glyph glyph-name="gbreve" unicode="&#x11f;" 
d="M1135 -184q0 -147 -130.5 -227.5t-369.5 -80.5q-234 0 -368 80.5t-134 221.5q0 73 44 139.5t122 107.5q-125 64 -125 185q0 119 123 190q-104 113 -104 275q0 180 124 294.5t318 114.5q119 0 215 -47q32 87 102.5 143.5t167.5 73.5l37 -145q-161 -27 -207 -137
q125 -119 125 -297q0 -180 -124 -295t-316 -115q-137 0 -244 61q-72 -37 -72 -98q0 -54 49 -83.5t154 -41.5l266 -33q179 -23 263 -91.5t84 -194.5zM350 707q0 -119 79 -193t206 -74t206 74t79 193t-79 193.5t-206 74.5q-128 0 -206.5 -73.5t-78.5 -194.5zM979 -180
q0 68 -50.5 103.5t-162.5 49.5l-270 33l-41 6q-74 -20 -119 -72.5t-45 -119.5q0 -82 89 -126t255 -44q344 0 344 170zM336 1452h117q11 -55 49 -85t100 -30q128 0 152 115h114q0 -115 -73.5 -184.5t-192.5 -69.5t-192.5 69.5t-73.5 184.5z" />
    <glyph glyph-name="Gdotaccent" unicode="&#x120;" 
d="M588 721h579v-721h-108l-39 147q-126 -178 -354 -178q-256 0 -404.5 201.5t-148.5 546.5q0 346 148.5 546.5t404.5 200.5q191 0 327 -127q138 -126 172 -336l-168 -26q-32 159 -118 244.5t-213 85.5q-177 0 -278 -156t-101 -432q0 -275 101 -430.5t278 -155.5
q149 0 241 108t92 267v53h-411v162zM557 1567v215h217v-215h-217z" />
    <glyph glyph-name="gdotaccent" unicode="&#x121;" 
d="M1135 -184q0 -147 -130.5 -227.5t-369.5 -80.5q-234 0 -368 80.5t-134 221.5q0 73 44 139.5t122 107.5q-125 64 -125 185q0 119 123 190q-104 113 -104 275q0 180 124 294.5t318 114.5q119 0 215 -47q32 87 102.5 143.5t167.5 73.5l37 -145q-161 -27 -207 -137
q125 -119 125 -297q0 -180 -124 -295t-316 -115q-137 0 -244 61q-72 -37 -72 -98q0 -54 49 -83.5t154 -41.5l266 -33q179 -23 263 -91.5t84 -194.5zM350 707q0 -119 79 -193t206 -74t206 74t79 193t-79 193.5t-206 74.5q-128 0 -206.5 -73.5t-78.5 -194.5zM979 -180
q0 68 -50.5 103.5t-162.5 49.5l-270 33l-41 6q-74 -20 -119 -72.5t-45 -119.5q0 -82 89 -126t255 -44q344 0 344 170zM494 1219v215h217v-215h-217z" />
    <glyph glyph-name="uni0122" unicode="&#x122;" 
d="M588 721h579v-721h-108l-39 147q-126 -178 -354 -178q-256 0 -404.5 201.5t-148.5 546.5q0 346 148.5 546.5t404.5 200.5q191 0 327 -127q138 -126 172 -336l-168 -26q-32 159 -118 244.5t-213 85.5q-177 0 -278 -156t-101 -432q0 -275 101 -430.5t278 -155.5
q149 0 241 108t92 267v53h-411v162zM569 -510v98q36 6 50 23.5t14 56.5h-76v201h215v-168q0 -94 -53 -148.5t-150 -62.5z" />
    <glyph glyph-name="uni0123" unicode="&#x123;" 
d="M1135 -184q0 -147 -130.5 -227.5t-369.5 -80.5q-234 0 -368 80.5t-134 221.5q0 73 44 139.5t122 107.5q-125 64 -125 185q0 119 123 190q-104 113 -104 275q0 180 124 294.5t318 114.5q119 0 215 -47q32 87 102.5 143.5t167.5 73.5l37 -145q-161 -27 -207 -137
q125 -119 125 -297q0 -180 -124 -295t-316 -115q-137 0 -244 61q-72 -37 -72 -98q0 -54 49 -83.5t154 -41.5l266 -33q179 -23 263 -91.5t84 -194.5zM350 707q0 -119 79 -193t206 -74t206 74t79 193t-79 193.5t-206 74.5q-128 0 -206.5 -73.5t-78.5 -194.5zM979 -180
q0 68 -50.5 103.5t-162.5 49.5l-270 33l-41 6q-74 -20 -119 -72.5t-45 -119.5q0 -82 89 -126t255 -44q344 0 344 170zM700 1573v-92q-36 -6 -49.5 -22.5t-13.5 -53.5h76v-193h-215v160q0 90 52.5 141.5t149.5 59.5z" />
    <glyph glyph-name="Hcircumflex" unicode="&#x124;" 
d="M154 1434h174v-615h614v615h174v-1434h-174v659h-614v-659h-174v1434zM905 1591l-125 -96l-145 186l-146 -186l-124 96l139 176h262z" />
    <glyph glyph-name="hcircumflex" unicode="&#x125;" 
d="M1116 676v-676h-164v649q0 155 -75.5 236.5t-217.5 81.5q-150 0 -239.5 -87t-89.5 -233l-2 -647h-164v1434h164v-467q56 69 149 109t203 40q194 0 315 -121t121 -319zM924 1591l-125 -96l-146 186l-145 -186l-125 96l139 176h262z" />
    <glyph glyph-name="Hbar" unicode="&#x126;" 
d="M1239 1194v-145h-123v-1049h-174v659h-614v-659h-174v1049h-123v145h123v240h174v-240h614v240h174v-240h123zM942 819v230h-614v-230h614z" />
    <glyph glyph-name="hbar" unicode="&#x127;" 
d="M1116 676v-676h-164v649q0 155 -75.5 236.5t-217.5 81.5q-150 0 -239.5 -87t-89.5 -233l-2 -647h-164v1206h-127v129h127v99h164v-99h334v-129h-334v-239q56 69 149 109t203 40q194 0 315 -121t121 -319z" />
    <glyph glyph-name="Itilde" unicode="&#x128;" 
d="M174 0v162h373v1112h-373v160h922v-160h-373v-1112h373v-162h-922zM610 1571q-78 35 -110 35q-57 0 -72 -70h-121q6 103 56 159t135 56q65 0 161 -45q13 -8 50.5 -20.5t62.5 -12.5q57 0 72 68h119q-4 -99 -55.5 -157t-133.5 -58q-59 0 -164 45z" />
    <glyph glyph-name="itilde" unicode="&#x129;" 
d="M164 0v152h399v784h-348v149h512v-933h379v-152h-942zM621 1223q-75 34 -111 34q-57 0 -72 -69h-121q6 103 56 159t135 56q66 0 162 -45q13 -8 50 -20.5t62 -12.5q57 0 72 68h119q-4 -99 -55.5 -157t-133.5 -58q-58 0 -163 45z" />
    <glyph glyph-name="Imacron" unicode="&#x12a;" 
d="M174 0v162h373v1112h-373v160h922v-160h-373v-1112h373v-162h-922zM297 1536v139h676v-139h-676z" />
    <glyph glyph-name="imacron" unicode="&#x12b;" 
d="M164 0v152h399v784h-348v149h512v-933h379v-152h-942zM307 1188v139h676v-139h-676z" />
    <glyph glyph-name="Ibreve" unicode="&#x12c;" 
d="M174 0v162h373v1112h-373v160h922v-160h-373v-1112h373v-162h-922zM369 1769h116q11 -55 49.5 -84.5t100.5 -29.5q127 0 151 114h115q0 -115 -73.5 -184t-192.5 -69t-192.5 69t-73.5 184z" />
    <glyph glyph-name="ibreve" unicode="&#x12d;" 
d="M164 0v152h399v784h-348v149h512v-933h379v-152h-942zM379 1421h117q11 -55 49 -84.5t100 -29.5q128 0 152 114h114q0 -115 -73.5 -184.5t-192.5 -69.5t-192.5 69.5t-73.5 184.5z" />
    <glyph glyph-name="Iogonek" unicode="&#x12e;" 
d="M174 0v162h373v1112h-373v160h922v-160h-373v-1112h373v-162h-922zM602 -246q0 84 69 153.5t212 131.5l90 -39q-122 -69 -172.5 -118.5t-50.5 -100.5q0 -68 90 -68q83 0 190 64l64 -127q-139 -74 -254 -74q-109 0 -173.5 48t-64.5 130z" />
    <glyph glyph-name="iogonek" unicode="&#x12f;" 
d="M164 0v152h399v784h-348v149h512v-933h379v-152h-942zM643 -246q0 84 69 153.5t212 131.5l90 -39q-122 -69 -172.5 -118.5t-50.5 -100.5q0 -68 90 -68q83 0 190 64l64 -127q-139 -74 -254 -74q-109 0 -173.5 48t-64.5 130zM537 1239v219h217v-219h-217z" />
    <glyph glyph-name="Idotaccent" unicode="&#x130;" 
d="M174 0v162h373v1112h-373v160h922v-160h-373v-1112h373v-162h-922zM526 1536v215h217v-215h-217z" />
    <glyph glyph-name="dotlessi" unicode="&#x131;" 
d="M164 0v152h399v784h-348v149h512v-933h379v-152h-942z" />
    <glyph glyph-name="Jcircumflex" unicode="&#x134;" 
d="M639 131q154 0 233.5 97.5t79.5 281.5v762h-585v162h759v-934q0 -241 -132 -386t-355 -145q-209 0 -336 112.5t-160 321.5l172 29q25 -154 102.5 -227.5t221.5 -73.5zM1018 1591l-125 -96l-145 186l-146 -186l-125 96l139 176h263z" />
    <glyph glyph-name="jcircumflex" unicode="&#x135;" 
d="M123 -233l98 122q85 -67 162 -98t162 -31q123 0 188.5 81t65.5 233v862h-520v149h684v-1019q0 -211 -112 -333t-304 -122q-244 0 -424 156zM1130 1243l-124 -96l-146 186l-145 -186l-125 96l139 176h262z" />
    <glyph glyph-name="uni0136" unicode="&#x136;" 
d="M967 0l-443 662l-196 -263v-399h-174v1434h174v-779l569 779h213l-477 -637l545 -797h-211zM539 -481v98q36 6 49.5 23.5t13.5 56.5h-76v201h215v-168q0 -94 -52.5 -148.5t-149.5 -62.5z" />
    <glyph glyph-name="uni0137" unicode="&#x137;" 
d="M942 0l-401 535l-224 -234v-301h-163v1434h163v-924l541 575h217l-426 -446l488 -639h-195zM539 -481v98q36 6 49.5 23.5t13.5 56.5h-76v201h215v-168q0 -94 -52.5 -148.5t-149.5 -62.5z" />
    <glyph glyph-name="kgreenlandic" unicode="&#x138;" 
d="M944 0l-403 535l-224 -234v-301h-163v1085h163v-575l541 575h217l-426 -446l488 -639h-193z" />
    <glyph glyph-name="Lacute" unicode="&#x139;" 
d="M154 1434h174v-1272h870v-162h-1044v1434zM178 1536l166 256h242l-230 -256h-178z" />
    <glyph glyph-name="lacute" unicode="&#x13a;" 
d="M164 0v152h399v1132h-325v150h489v-1282h379v-152h-942zM545 1536l166 256h241l-229 -256h-178z" />
    <glyph glyph-name="uni013B" unicode="&#x13b;" 
d="M154 1434h174v-1272h870v-162h-1044v1434zM569 -481v98q36 6 50 23.5t14 56.5h-76v201h215v-168q0 -94 -53 -148.5t-150 -62.5z" />
    <glyph glyph-name="uni013C" unicode="&#x13c;" 
d="M164 0v152h399v1132h-325v150h489v-1282h379v-152h-942zM549 -481v98q36 6 49.5 23.5t13.5 56.5h-75v201h215v-168q0 -94 -53 -148.5t-150 -62.5z" />
    <glyph glyph-name="Lcaron" unicode="&#x13d;" 
d="M154 1434h174v-1272h870v-162h-1044v1434zM954 1055v98q36 6 50 23.5t14 56.5h-76v201h215v-168q0 -94 -53 -148.5t-150 -62.5z" />
    <glyph glyph-name="lcaron" unicode="&#x13e;" 
d="M164 0v152h399v1132h-325v150h489v-1282h379v-152h-942zM922 1055v98q36 6 49.5 23.5t13.5 56.5h-76v201h215v-168q0 -94 -52.5 -148.5t-149.5 -62.5z" />
    <glyph glyph-name="Ldot" unicode="&#x13f;" 
d="M154 1434h174v-1272h870v-162h-1044v1434zM739 723v215h217v-215h-217z" />
    <glyph glyph-name="ldot" unicode="&#x140;" 
d="M164 0v152h399v1132h-325v150h489v-1282h379v-152h-942zM1130 664v215h218v-215h-218z" />
    <glyph glyph-name="Lslash" unicode="&#x141;" 
d="M451 162h747v-162h-922v600l-196 -108l-64 116l260 148v678h175v-588l323 184l68 -121l-391 -219v-528z" />
    <glyph glyph-name="lslash" unicode="&#x142;" 
d="M164 0v152h399v1132h-325v150h489v-1282h379v-152h-942zM641 713l414 231l-66 113l-354 -201v14l-399 -231l61 -104l344 192v-14z" />
    <glyph glyph-name="Nacute" unicode="&#x143;" 
d="M942 1434h174v-1434h-182l-606 1124v-1124h-174v1434h182l606 -1123v1123zM535 1536l165 256h242l-229 -256h-178z" />
    <glyph glyph-name="nacute" unicode="&#x144;" 
d="M1116 676v-676h-164v649q0 155 -75.5 236.5t-217.5 81.5q-150 0 -239.5 -87t-89.5 -233l-2 -647h-164v1085h164v-118q56 69 149 109t203 40q194 0 315 -121t121 -319zM549 1219l166 256h241l-229 -256h-178z" />
    <glyph glyph-name="uni0145" unicode="&#x145;" 
d="M942 1434h174v-1434h-182l-606 1124v-1124h-174v1434h182l606 -1123v1123zM539 -481v98q36 6 49.5 23.5t13.5 56.5h-76v201h215v-168q0 -94 -52.5 -148.5t-149.5 -62.5z" />
    <glyph glyph-name="uni0146" unicode="&#x146;" 
d="M1116 676v-676h-164v649q0 155 -75.5 236.5t-217.5 81.5q-150 0 -239.5 -87t-89.5 -233l-2 -647h-164v1085h164v-118q56 69 149 109t203 40q194 0 315 -121t121 -319zM524 -481v98q36 6 50 23.5t14 56.5h-76v201h215v-168q0 -94 -53 -148.5t-150 -62.5z" />
    <glyph glyph-name="Ncaron" unicode="&#x147;" 
d="M942 1434h174v-1434h-182l-606 1124v-1124h-174v1434h182l606 -1123v1123zM780 1808l125 -94l-139 -178h-262l-139 178l124 94l146 -184z" />
    <glyph glyph-name="ncaron" unicode="&#x148;" 
d="M1116 676v-676h-164v649q0 155 -75.5 236.5t-217.5 81.5q-150 0 -239.5 -87t-89.5 -233l-2 -647h-164v1085h164v-118q56 69 149 109t203 40q194 0 315 -121t121 -319zM795 1491l125 -94l-140 -178h-262l-139 178l125 94l145 -184z" />
    <glyph glyph-name="Eng" unicode="&#x14a;" 
d="M942 1434h174v-1514q0 -177 -102.5 -279t-274.5 -102h-92v160h82q103 0 158 61.5t55 176.5v63l-614 1126v-1126h-174v1434h182l606 -1108v1108z" />
    <glyph glyph-name="eng" unicode="&#x14b;" 
d="M1116 662v-762q0 -160 -96 -260.5t-250 -100.5h-98v150h88q86 0 139 63.5t53 163.5v721q0 155 -78 242.5t-227 87.5q-150 0 -239 -88t-89 -240l-2 -639h-163v1085h163v-116q54 68 145 107.5t195 39.5q208 0 333.5 -129.5t125.5 -324.5z" />
    <glyph glyph-name="Omacron" unicode="&#x14c;" 
d="M113 717q0 358 136 552.5t386 194.5t386 -194.5t136 -552.5t-136 -553t-386 -195t-386 195t-136 553zM983 717q0 288 -89 438t-259 150t-259 -150t-89 -438q0 -289 88 -437.5t260 -148.5t260 148.5t88 437.5zM297 1567v139h676v-139h-676z" />
    <glyph glyph-name="omacron" unicode="&#x14d;" 
d="M123 543q0 259 140.5 416t371.5 157t371.5 -157t140.5 -416t-140.5 -416.5t-371.5 -157.5t-371.5 157.5t-140.5 416.5zM983 543q0 193 -94 308.5t-254 115.5t-254 -116t-94 -308t94 -307t254 -115t254 115t94 307zM297 1219v139h676v-139h-676z" />
    <glyph glyph-name="Obreve" unicode="&#x14e;" 
d="M113 717q0 358 136 552.5t386 194.5t386 -194.5t136 -552.5t-136 -553t-386 -195t-386 195t-136 553zM983 717q0 288 -89 438t-259 150t-259 -150t-89 -438q0 -289 88 -437.5t260 -148.5t260 148.5t88 437.5zM369 1800h116q11 -55 49.5 -84.5t100.5 -29.5q127 0 151 114
h115q0 -115 -73.5 -184.5t-192.5 -69.5t-192.5 69.5t-73.5 184.5z" />
    <glyph glyph-name="obreve" unicode="&#x14f;" 
d="M123 543q0 259 140.5 416t371.5 157t371.5 -157t140.5 -416t-140.5 -416.5t-371.5 -157.5t-371.5 157.5t-140.5 416.5zM983 543q0 193 -94 308.5t-254 115.5t-254 -116t-94 -308t94 -307t254 -115t254 115t94 307zM369 1452h116q11 -55 49.5 -85t100.5 -30q127 0 151 115
h115q0 -115 -73.5 -184.5t-192.5 -69.5t-192.5 69.5t-73.5 184.5z" />
    <glyph glyph-name="Ohungarumlaut" unicode="&#x150;" 
d="M113 717q0 358 136 552.5t386 194.5t386 -194.5t136 -552.5t-136 -553t-386 -195t-386 195t-136 553zM983 717q0 288 -89 438t-259 150t-259 -150t-89 -438q0 -289 88 -437.5t260 -148.5t260 148.5t88 437.5zM367 1567l157 243h230l-217 -243h-170zM698 1567l158 243h229
l-217 -243h-170z" />
    <glyph glyph-name="ohungarumlaut" unicode="&#x151;" 
d="M123 543q0 259 140.5 416t371.5 157t371.5 -157t140.5 -416t-140.5 -416.5t-371.5 -157.5t-371.5 157.5t-140.5 416.5zM983 543q0 193 -94 308.5t-254 115.5t-254 -116t-94 -308t94 -307t254 -115t254 115t94 307zM367 1219l157 243h230l-217 -243h-170zM698 1219
l158 243h229l-217 -243h-170z" />
    <glyph glyph-name="OE" unicode="&#x152;" 
d="M78 717q0 350 143.5 533.5t415.5 183.5h577v-160h-401v-443h344v-155h-344v-514h401v-162h-577q-272 0 -415.5 183.5t-143.5 533.5zM637 162v1112q-196 0 -290.5 -137.5t-94.5 -419.5q0 -280 94.5 -417.5t290.5 -137.5z" />
    <glyph glyph-name="oe" unicode="&#x153;" 
d="M1225 535v-37h-514q3 -377 176 -377q69 0 109 58.5t57 182.5l159 -24q-52 -369 -317 -369q-93 0 -155.5 38t-104.5 118q-77 -156 -256 -156q-332 0 -332 574q0 573 332 573q181 0 258 -160q77 160 254 160q334 0 334 -581zM555 543q0 217 -41 320.5t-129 103.5
q-174 0 -174 -424q0 -422 174 -422q88 0 129 102.5t41 319.5zM713 647h344q-12 320 -170 320q-159 0 -174 -320z" />
    <glyph glyph-name="Racute" unicode="&#x154;" 
d="M1044 399l111 -399h-205l-86 356q-59 256 -315 256h-221v-612h-174v1434h561q181 0 304.5 -118t123.5 -292q0 -135 -78 -240.5t-207 -148.5q136 -48 186 -236zM328 774h372q123 0 196 67.5t73 182.5q0 113 -73 181.5t-196 68.5h-372v-500zM483 1536l166 256h242
l-229 -256h-179z" />
    <glyph glyph-name="racute" unicode="&#x155;" 
d="M586 680v-528h395v-152h-858v152h299v784h-299v149h455v-102q32 60 100.5 96.5t148.5 36.5t156 -31.5t166 -103.5l-88 -129q-82 63 -139.5 89t-114.5 26q-100 0 -160.5 -78.5t-60.5 -208.5zM602 1219l166 256h242l-230 -256h-178z" />
    <glyph glyph-name="uni0156" unicode="&#x156;" 
d="M1044 399l111 -399h-205l-86 356q-59 256 -315 256h-221v-612h-174v1434h561q181 0 304.5 -118t123.5 -292q0 -135 -78 -240.5t-207 -148.5q136 -48 186 -236zM328 774h372q123 0 196 67.5t73 182.5q0 113 -73 181.5t-196 68.5h-372v-500zM528 -481v98q36 6 50 23.5
t14 56.5h-76v201h215v-168q0 -94 -53 -148.5t-150 -62.5z" />
    <glyph glyph-name="uni0157" unicode="&#x157;" 
d="M586 680v-528h395v-152h-858v152h299v784h-299v149h455v-102q32 60 100.5 96.5t148.5 36.5t156 -31.5t166 -103.5l-88 -129q-82 63 -139.5 89t-114.5 26q-100 0 -160.5 -78.5t-60.5 -208.5zM410 -481v98q36 6 49.5 23.5t13.5 56.5h-76v201h215v-168q0 -94 -52.5 -148.5
t-149.5 -62.5z" />
    <glyph glyph-name="Rcaron" unicode="&#x158;" 
d="M1044 399l111 -399h-205l-86 356q-59 256 -315 256h-221v-612h-174v1434h561q181 0 304.5 -118t123.5 -292q0 -135 -78 -240.5t-207 -148.5q136 -48 186 -236zM328 774h372q123 0 196 67.5t73 182.5q0 113 -73 181.5t-196 68.5h-372v-500zM729 1808l125 -94l-139 -178
h-262l-140 178l125 94l146 -184z" />
    <glyph glyph-name="rcaron" unicode="&#x159;" 
d="M586 680v-528h395v-152h-858v152h299v784h-299v149h455v-102q32 60 100.5 96.5t148.5 36.5t156 -31.5t166 -103.5l-88 -129q-82 63 -139.5 89t-114.5 26q-100 0 -160.5 -78.5t-60.5 -208.5zM848 1491l125 -94l-139 -178h-263l-139 178l125 94l145 -184z" />
    <glyph glyph-name="Sacute" unicode="&#x15a;" 
d="M102 473l172 25q50 -367 398 -367q155 0 238 66.5t83 191.5q0 109 -76 170.5t-280 116.5q-260 74 -358.5 159.5t-98.5 237.5q0 171 125 281t320 110q194 0 335.5 -118.5t172.5 -309.5l-170 -30q-25 137 -116.5 218t-221.5 81q-121 0 -196 -64.5t-75 -167.5
q0 -89 67.5 -135.5t272.5 -106.5q95 -25 164.5 -52t130.5 -64.5t98.5 -84t58.5 -109t21 -140.5q0 -187 -135 -301q-132 -111 -360 -111q-239 0 -388.5 132.5t-181.5 371.5zM524 1567l166 256h242l-230 -256h-178z" />
    <glyph glyph-name="sacute" unicode="&#x15b;" 
d="M125 358l151 27q15 -120 127 -197q112 -75 273 -75q147 0 230 47.5t83 132.5q0 86 -78 128.5t-286 70.5q-238 34 -336.5 101.5t-98.5 199.5q0 138 122 230.5t302 92.5q183 0 322.5 -97t167.5 -243l-152 -35q-23 104 -116.5 169t-221.5 65q-113 0 -189.5 -51t-76.5 -129
q0 -49 29 -77t101.5 -48t221.5 -41q238 -32 341.5 -110t103.5 -224q0 -149 -127 -237.5t-342 -88.5q-221 0 -375 108.5t-176 280.5zM514 1219l166 256h242l-230 -256h-178z" />
    <glyph glyph-name="Scircumflex" unicode="&#x15c;" 
d="M102 473l172 25q50 -367 398 -367q155 0 238 66.5t83 191.5q0 109 -76 170.5t-280 116.5q-260 74 -358.5 159.5t-98.5 237.5q0 171 125 281t320 110q194 0 335.5 -118.5t172.5 -309.5l-170 -30q-25 137 -116.5 218t-221.5 81q-121 0 -196 -64.5t-75 -167.5
q0 -89 67.5 -135.5t272.5 -106.5q95 -25 164.5 -52t130.5 -64.5t98.5 -84t58.5 -109t21 -140.5q0 -187 -135 -301q-132 -111 -360 -111q-239 0 -388.5 132.5t-181.5 371.5zM895 1622l-125 -96l-145 186l-146 -186l-125 96l140 176h262z" />
    <glyph glyph-name="scircumflex" unicode="&#x15d;" 
d="M125 358l151 27q15 -120 127 -197q112 -75 273 -75q147 0 230 47.5t83 132.5q0 86 -78 128.5t-286 70.5q-238 34 -336.5 101.5t-98.5 199.5q0 138 122 230.5t302 92.5q183 0 322.5 -97t167.5 -243l-152 -35q-23 104 -116.5 169t-221.5 65q-113 0 -189.5 -51t-76.5 -129
q0 -49 29 -77t101.5 -48t221.5 -41q238 -32 341.5 -110t103.5 -224q0 -149 -127 -237.5t-342 -88.5q-221 0 -375 108.5t-176 280.5zM885 1274l-125 -96l-146 186l-145 -186l-125 96l139 176h262z" />
    <glyph glyph-name="Scedilla" unicode="&#x15e;" 
d="M102 473l172 25q50 -367 398 -367q155 0 238 66.5t83 191.5q0 109 -76 170.5t-280 116.5q-260 74 -358.5 159.5t-98.5 237.5q0 171 125 281t320 110q194 0 335.5 -118.5t172.5 -309.5l-170 -30q-25 137 -116.5 218t-221.5 81q-121 0 -196 -64.5t-75 -167.5
q0 -89 67.5 -135.5t272.5 -106.5q95 -25 164.5 -52t130.5 -64.5t98.5 -84t58.5 -109t21 -140.5q0 -187 -135 -301q-132 -111 -360 -111q-239 0 -388.5 132.5t-181.5 371.5zM930 -297q0 -91 -65 -148t-173 -57q-86 0 -152 38t-102 106l111 63q26 -47 59 -66.5t84 -19.5
q50 0 79.5 23.5t27.5 60.5q0 35 -29 56.5t-78 21.5q-52 0 -108 -35l-101 55l117 201h127l-78 -133q42 10 76 10q88 0 146.5 -50.5t58.5 -125.5z" />
    <glyph glyph-name="scedilla" unicode="&#x15f;" 
d="M125 358l151 27q15 -120 127 -197q112 -75 273 -75q147 0 230 47.5t83 132.5q0 86 -78 128.5t-286 70.5q-238 34 -336.5 101.5t-98.5 199.5q0 138 122 230.5t302 92.5q183 0 322.5 -97t167.5 -243l-152 -35q-23 104 -116.5 169t-221.5 65q-113 0 -189.5 -51t-76.5 -129
q0 -49 29 -77t101.5 -48t221.5 -41q238 -32 341.5 -110t103.5 -224q0 -149 -127 -237.5t-342 -88.5q-221 0 -375 108.5t-176 280.5zM934 -297q0 -91 -65 -148t-173 -57q-86 0 -152 38t-102 106l111 63q26 -47 59 -66.5t84 -19.5q50 0 79.5 23.5t27.5 60.5q0 35 -29 56.5
t-78 21.5q-52 0 -108 -35l-101 55l117 201h127l-78 -133q42 10 76 10q88 0 146.5 -50.5t58.5 -125.5z" />
    <glyph glyph-name="Scaron" unicode="&#x160;" 
d="M102 473l172 25q50 -367 398 -367q155 0 238 66.5t83 191.5q0 109 -76 170.5t-280 116.5q-260 74 -358.5 159.5t-98.5 237.5q0 171 125 281t320 110q194 0 335.5 -118.5t172.5 -309.5l-170 -30q-25 137 -116.5 218t-221.5 81q-121 0 -196 -64.5t-75 -167.5
q0 -89 67.5 -135.5t272.5 -106.5q95 -25 164.5 -52t130.5 -64.5t98.5 -84t58.5 -109t21 -140.5q0 -187 -135 -301q-132 -111 -360 -111q-239 0 -388.5 132.5t-181.5 371.5zM770 1839l125 -94l-139 -178h-262l-140 178l125 94l146 -184z" />
    <glyph glyph-name="scaron" unicode="&#x161;" 
d="M125 358l151 27q15 -120 127 -197q112 -75 273 -75q147 0 230 47.5t83 132.5q0 86 -78 128.5t-286 70.5q-238 34 -336.5 101.5t-98.5 199.5q0 138 122 230.5t302 92.5q183 0 322.5 -97t167.5 -243l-152 -35q-23 104 -116.5 169t-221.5 65q-113 0 -189.5 -51t-76.5 -129
q0 -49 29 -77t101.5 -48t221.5 -41q238 -32 341.5 -110t103.5 -224q0 -149 -127 -237.5t-342 -88.5q-221 0 -375 108.5t-176 280.5zM760 1491l125 -94l-140 -178h-262l-139 178l125 94l145 -184z" />
    <glyph glyph-name="uni0162" unicode="&#x162;" 
d="M547 0v1274h-475v160h1126v-160h-475v-1274h-176zM907 -268q0 -92 -64.5 -148.5t-172.5 -56.5q-86 0 -152.5 37.5t-101.5 105.5l110 64q26 -47 59.5 -66.5t84.5 -19.5q50 0 79 23.5t27 60.5q0 36 -28.5 57t-77.5 21q-53 0 -109 -35l-100 55l117 201h127l-78 -133
q42 10 75 10q88 0 146.5 -50.5t58.5 -125.5z" />
    <glyph glyph-name="uni0163" unicode="&#x163;" 
d="M1090 213l77 -133q-156 -111 -352 -111q-156 0 -245 90.5t-89 249.5v627h-368v149h368v299l164 52v-351h512v-149h-512v-623q0 -192 189 -192q113 0 256 92zM1073 -297q0 -92 -64.5 -148.5t-172.5 -56.5q-86 0 -152 38t-102 106l110 63q26 -47 59.5 -66.5t84.5 -19.5
q50 0 79 23.5t27 60.5q0 36 -28.5 57t-77.5 21q-53 0 -109 -35l-100 55l116 201h127l-77 -133q42 10 75 10q88 0 146.5 -50.5t58.5 -125.5z" />
    <glyph glyph-name="Tcaron" unicode="&#x164;" 
d="M547 0v1274h-475v160h1126v-160h-475v-1274h-176zM780 1808l125 -94l-139 -178h-262l-139 178l124 94l146 -184z" />
    <glyph glyph-name="tcaron" unicode="&#x165;" 
d="M1090 213l77 -133q-156 -111 -352 -111q-156 0 -245 90.5t-89 249.5v627h-368v149h368v299l164 52v-351h512v-149h-512v-623q0 -192 189 -192q113 0 256 92zM842 1280v98q36 6 49.5 23.5t13.5 56.5h-76v201h215v-168q0 -94 -52.5 -148.5t-149.5 -62.5z" />
    <glyph glyph-name="Tbar" unicode="&#x166;" 
d="M1198 1274h-475v-465h332v-145h-332v-664h-176v664h-332v145h332v465h-475v160h1126v-160z" />
    <glyph glyph-name="tbar" unicode="&#x167;" 
d="M1090 213l77 -133q-156 -111 -352 -111q-156 0 -245 90.5t-89 249.5v207h-368v137h368v283h-368v149h368v299l164 52v-351h512v-149h-512v-283h512v-137h-512v-203q0 -192 189 -192q113 0 256 92z" />
    <glyph glyph-name="Utilde" unicode="&#x168;" 
d="M143 500v934h174v-924q0 -188 81 -283.5t237 -95.5q317 0 317 379v924h174v-934q0 -250 -130.5 -390.5t-358.5 -140.5q-230 0 -362 141t-132 390zM610 1571q-78 35 -110 35q-57 0 -72 -70h-121q6 103 56 159t135 56q65 0 161 -45q13 -8 50.5 -20.5t62.5 -12.5q57 0 72 68
h119q-4 -99 -55.5 -157t-133.5 -58q-59 0 -164 45z" />
    <glyph glyph-name="utilde" unicode="&#x169;" 
d="M942 1085h164v-1085h-164v119q-56 -70 -149.5 -110t-202.5 -40q-194 0 -315 121t-121 320v675h163v-649q0 -155 75.5 -236t217.5 -81q150 0 240 86.5t90 232.5zM610 1223q-75 34 -110 34q-57 0 -72 -69h-121q6 103 56 159t135 56q65 0 161 -45q13 -8 50.5 -20.5
t62.5 -12.5q57 0 72 68h119q-4 -99 -55.5 -157t-133.5 -58q-59 0 -164 45z" />
    <glyph glyph-name="Umacron" unicode="&#x16a;" 
d="M143 500v934h174v-924q0 -188 81 -283.5t237 -95.5q317 0 317 379v924h174v-934q0 -250 -130.5 -390.5t-358.5 -140.5q-230 0 -362 141t-132 390zM297 1536v139h676v-139h-676z" />
    <glyph glyph-name="umacron" unicode="&#x16b;" 
d="M942 1085h164v-1085h-164v119q-56 -70 -149.5 -110t-202.5 -40q-194 0 -315 121t-121 320v675h163v-649q0 -155 75.5 -236t217.5 -81q150 0 240 86.5t90 232.5zM297 1188v139h676v-139h-676z" />
    <glyph glyph-name="Ubreve" unicode="&#x16c;" 
d="M143 500v934h174v-924q0 -188 81 -283.5t237 -95.5q317 0 317 379v924h174v-934q0 -250 -130.5 -390.5t-358.5 -140.5q-230 0 -362 141t-132 390zM369 1769h116q11 -55 49.5 -84.5t100.5 -29.5q127 0 151 114h115q0 -115 -73.5 -184t-192.5 -69t-192.5 69t-73.5 184z" />
    <glyph glyph-name="ubreve" unicode="&#x16d;" 
d="M942 1085h164v-1085h-164v119q-56 -70 -149.5 -110t-202.5 -40q-194 0 -315 121t-121 320v675h163v-649q0 -155 75.5 -236t217.5 -81q150 0 240 86.5t90 232.5zM369 1421h116q11 -55 49.5 -84.5t100.5 -29.5q127 0 151 114h115q0 -115 -73.5 -184.5t-192.5 -69.5
t-192.5 69.5t-73.5 184.5z" />
    <glyph glyph-name="Uring" unicode="&#x16e;" 
d="M143 500v934h174v-924q0 -188 81 -283.5t237 -95.5q317 0 317 379v924h174v-934q0 -250 -130.5 -390.5t-358.5 -140.5q-230 0 -362 141t-132 390zM393 1737q0 97 68 158t174 61t175 -61.5t69 -157.5q0 -97 -69 -159t-175 -62t-174 62t-68 159zM745 1737q0 50 -29.5 80
t-80.5 30q-50 0 -80.5 -30.5t-30.5 -79.5q0 -50 31 -81.5t80 -31.5t79.5 31.5t30.5 81.5z" />
    <glyph glyph-name="uring" unicode="&#x16f;" 
d="M942 1085h164v-1085h-164v119q-56 -70 -149.5 -110t-202.5 -40q-194 0 -315 121t-121 320v675h163v-649q0 -155 75.5 -236t217.5 -81q150 0 240 86.5t90 232.5zM393 1389q0 97 68 158t174 61t175 -61.5t69 -157.5q0 -97 -69 -159.5t-175 -62.5t-174 62.5t-68 159.5z
M745 1389q0 50 -29.5 80t-80.5 30q-50 0 -80.5 -30.5t-30.5 -79.5q0 -50 31 -81.5t80 -31.5t79.5 31.5t30.5 81.5z" />
    <glyph glyph-name="Uhungarumlaut" unicode="&#x170;" 
d="M143 500v934h174v-924q0 -188 81 -283.5t237 -95.5q317 0 317 379v924h174v-934q0 -250 -130.5 -390.5t-358.5 -140.5q-230 0 -362 141t-132 390zM367 1536l157 244h230l-217 -244h-170zM698 1536l158 244h229l-217 -244h-170z" />
    <glyph glyph-name="uhungarumlaut" unicode="&#x171;" 
d="M942 1085h164v-1085h-164v119q-56 -70 -149.5 -110t-202.5 -40q-194 0 -315 121t-121 320v675h163v-649q0 -155 75.5 -236t217.5 -81q150 0 240 86.5t90 232.5zM367 1188l157 244h230l-217 -244h-170zM698 1188l158 244h229l-217 -244h-170z" />
    <glyph glyph-name="Uogonek" unicode="&#x172;" 
d="M143 500v934h174v-924q0 -188 81 -283.5t237 -95.5q317 0 317 379v924h174v-934q0 -250 -130.5 -390.5t-358.5 -140.5q-230 0 -362 141t-132 390zM457 -246q0 84 68.5 153.5t211.5 131.5l90 -39q-122 -69 -172.5 -118.5t-50.5 -100.5q0 -68 90 -68q84 0 191 64l63 -127
q-139 -74 -254 -74q-109 0 -173 48t-64 130z" />
    <glyph glyph-name="uogonek" unicode="&#x173;" 
d="M942 1085h164v-1085h-164v119q-56 -70 -149.5 -110t-202.5 -40q-194 0 -315 121t-121 320v675h163v-649q0 -155 75.5 -236t217.5 -81q150 0 240 86.5t90 232.5zM735 -246q0 84 69 153.5t212 131.5l90 -39q-122 -69 -172.5 -118.5t-50.5 -100.5q0 -68 90 -68q83 0 190 64
l64 -127q-139 -74 -254 -74q-109 0 -173.5 48t-64.5 130z" />
    <glyph glyph-name="Wcircumflex" unicode="&#x174;" 
d="M1036 1434h168l-147 -1434h-213l-207 811l-209 -811h-213l-147 1434h168l114 -1172l215 832h142l215 -832zM907 1591l-125 -96l-145 186l-145 -186l-125 96l139 176h262z" />
    <glyph glyph-name="wcircumflex" unicode="&#x175;" 
d="M1055 1085h153l-180 -1085h-182l-211 842l-209 -842h-184l-181 1085h152l139 -829l205 829h158l205 -829zM905 1243l-125 -96l-145 186l-146 -186l-124 96l139 176h262z" />
    <glyph glyph-name="Ycircumflex" unicode="&#x176;" 
d="M1001 1434h197l-475 -820v-614h-174v614l-477 820h198l365 -650zM905 1591l-125 -96l-145 186l-146 -186l-124 96l139 176h262z" />
    <glyph glyph-name="ycircumflex" unicode="&#x177;" 
d="M1014 1085h184l-600 -1253q-41 -85 -98.5 -119.5t-155.5 -34.5q-50 0 -170 21l27 145q88 -16 141 -16q51 0 77.5 17t49.5 65l84 184l-481 991h186l381 -809zM905 1243l-125 -96l-145 186l-146 -186l-124 96l139 176h262z" />
    <glyph glyph-name="Ydieresis" unicode="&#x178;" 
d="M1001 1434h197l-475 -820v-614h-174v614l-477 820h198l365 -650zM322 1536v209h208v-209h-208zM739 1536v209h209v-209h-209z" />
    <glyph glyph-name="Zacute" unicode="&#x179;" 
d="M92 0v147l877 1133h-848v154h1057v-146l-877 -1134h868v-154h-1077zM535 1536l165 256h242l-229 -256h-178z" />
    <glyph glyph-name="zacute" unicode="&#x17a;" 
d="M154 0v137l741 805h-725v143h932v-135l-744 -807h758v-143h-962zM535 1188l165 256h242l-229 -256h-178z" />
    <glyph glyph-name="Zdotaccent" unicode="&#x17b;" 
d="M92 0v147l877 1133h-848v154h1057v-146l-877 -1134h868v-154h-1077zM526 1536v215h217v-215h-217z" />
    <glyph glyph-name="zdotaccent" unicode="&#x17c;" 
d="M154 0v137l741 805h-725v143h932v-135l-744 -807h758v-143h-962zM526 1239v219h217v-219h-217z" />
    <glyph glyph-name="Zcaron" unicode="&#x17d;" 
d="M92 0v147l877 1133h-848v154h1057v-146l-877 -1134h868v-154h-1077zM780 1808l125 -94l-139 -178h-262l-139 178l124 94l146 -184z" />
    <glyph glyph-name="zcaron" unicode="&#x17e;" 
d="M154 0v137l741 805h-725v143h932v-135l-744 -807h758v-143h-962zM780 1460l125 -94l-139 -178h-262l-139 178l124 94l146 -184z" />
    <glyph glyph-name="longs" unicode="&#x17f;" 
d="M1157 1352l-74 -131q-143 94 -260 94q-178 0 -178 -238v-1077h-164v797h-368v151h368v152q0 167 90.5 265.5t245.5 98.5q168 0 340 -112z" />
    <glyph glyph-name="uni018E" unicode="&#x18e;" 
d="M1116 1434v-1434h-1003v162h827v500h-657v153h657v459h-827v160h1003z" />
    <glyph glyph-name="uni018F" unicode="&#x18f;" 
d="M1157 717q0 -358 -136 -553t-386 -195q-249 0 -385.5 194t-136.5 554v59h870q-11 263 -101 396t-257 133q-129 0 -215 -85.5t-117 -244.5l-168 26q34 210 168 338q134 125 332 125q258 0 395 -193t137 -554zM981 616h-690q17 -239 104 -362t240 -123q156 0 244.5 123
t101.5 362z" />
    <glyph glyph-name="florin" unicode="&#x192;" 
d="M774 1130l-24 -137h385v-159h-412l-162 -928q-25 -136 -103.5 -202t-217.5 -66h-107v161h105q74 0 106.5 31t46.5 111l158 893h-330v159h354l33 172q49 269 320 269h211v-160h-207q-76 0 -107 -30t-49 -114z" />
    <glyph glyph-name="uni01CD" unicode="&#x1cd;" 
d="M1044 0l-133 395h-551l-133 -395h-176l500 1434h172l496 -1434h-175zM412 547h448l-223 672zM782 1808l125 -94l-139 -178h-262l-139 178l125 94l145 -184z" />
    <glyph glyph-name="uni01CE" unicode="&#x1ce;" 
d="M1171 150l25 -140q-62 -16 -119 -16q-159 0 -196 137q-49 -72 -141.5 -111.5t-209.5 -39.5q-170 0 -272 83.5t-102 223.5q0 137 86.5 217t281.5 121q194 43 260 80t66 104q0 74 -67 119t-177 45q-122 0 -202 -67t-97 -183l-151 25q24 164 147 266q126 102 303 102
q184 0 292 -90.5t108 -243.5v-540q0 -50 21.5 -77.5t59.5 -27.5q17 0 84 13zM850 375v237q-17 -31 -80 -56.5t-215 -63.5q-132 -33 -188 -78.5t-56 -122.5q0 -80 57 -124t162 -44q141 0 230.5 71t89.5 181zM752 1491l125 -94l-140 -178h-262l-139 178l125 94l145 -184z" />
    <glyph glyph-name="uni01CF" unicode="&#x1cf;" 
d="M174 0v162h373v1112h-373v160h922v-160h-373v-1112h373v-162h-922zM780 1808l125 -94l-139 -178h-262l-139 178l124 94l146 -184z" />
    <glyph glyph-name="uni01D0" unicode="&#x1d0;" 
d="M164 0v152h399v784h-348v149h512v-933h379v-152h-942zM791 1460l124 -94l-139 -178h-262l-139 178l125 94l145 -184z" />
    <glyph glyph-name="uni01D1" unicode="&#x1d1;" 
d="M113 717q0 358 136 552.5t386 194.5t386 -194.5t136 -552.5t-136 -553t-386 -195t-386 195t-136 553zM983 717q0 288 -89 438t-259 150t-259 -150t-89 -438q0 -289 88 -437.5t260 -148.5t260 148.5t88 437.5zM780 1839l125 -94l-139 -178h-262l-139 178l124 94l146 -184z
" />
    <glyph glyph-name="uni01D2" unicode="&#x1d2;" 
d="M123 543q0 259 140.5 416t371.5 157t371.5 -157t140.5 -416t-140.5 -416.5t-371.5 -157.5t-371.5 157.5t-140.5 416.5zM983 543q0 193 -94 308.5t-254 115.5t-254 -116t-94 -308t94 -307t254 -115t254 115t94 307zM780 1491l125 -94l-139 -178h-262l-139 178l124 94
l146 -184z" />
    <glyph glyph-name="uni01D3" unicode="&#x1d3;" 
d="M143 500v934h174v-924q0 -188 81 -283.5t237 -95.5q317 0 317 379v924h174v-934q0 -250 -130.5 -390.5t-358.5 -140.5q-230 0 -362 141t-132 390zM780 1808l125 -94l-139 -178h-262l-139 178l124 94l146 -184z" />
    <glyph glyph-name="uni01D4" unicode="&#x1d4;" 
d="M942 1085h164v-1085h-164v119q-56 -70 -149.5 -110t-202.5 -40q-194 0 -315 121t-121 320v675h163v-649q0 -155 75.5 -236t217.5 -81q150 0 240 86.5t90 232.5zM780 1460l125 -94l-139 -178h-262l-139 178l124 94l146 -184z" />
    <glyph glyph-name="uni01D5" unicode="&#x1d5;" 
d="M143 500v934h174v-924q0 -188 81 -283.5t237 -95.5q317 0 317 379v924h174v-934q0 -250 -130.5 -390.5t-358.5 -140.5q-230 0 -362 141t-132 390zM322 1536v209h208v-209h-208zM739 1536v209h209v-209h-209zM297 1815v139h676v-139h-676z" />
    <glyph glyph-name="uni01D6" unicode="&#x1d6;" 
d="M942 1085h164v-1085h-164v119q-56 -70 -149.5 -110t-202.5 -40q-194 0 -315 121t-121 320v675h163v-649q0 -155 75.5 -236t217.5 -81q150 0 240 86.5t90 232.5zM322 1188v209h208v-209h-208zM739 1188v209h209v-209h-209zM297 1466v140h676v-140h-676z" />
    <glyph glyph-name="uni01D7" unicode="&#x1d7;" 
d="M143 500v934h174v-924q0 -188 81 -283.5t237 -95.5q317 0 317 379v924h174v-934q0 -250 -130.5 -390.5t-358.5 -140.5q-230 0 -362 141t-132 390zM322 1536v209h208v-209h-208zM739 1536v209h209v-209h-209zM535 1815l165 256h242l-229 -256h-178z" />
    <glyph glyph-name="uni01D8" unicode="&#x1d8;" 
d="M942 1085h164v-1085h-164v119q-56 -70 -149.5 -110t-202.5 -40q-194 0 -315 121t-121 320v675h163v-649q0 -155 75.5 -236t217.5 -81q150 0 240 86.5t90 232.5zM322 1188v209h208v-209h-208zM739 1188v209h209v-209h-209zM535 1466l165 256h242l-229 -256h-178z" />
    <glyph glyph-name="uni01D9" unicode="&#x1d9;" 
d="M143 500v934h174v-924q0 -188 81 -283.5t237 -95.5q317 0 317 379v924h174v-934q0 -250 -130.5 -390.5t-358.5 -140.5q-230 0 -362 141t-132 390zM322 1536v209h208v-209h-208zM739 1536v209h209v-209h-209zM780 2087l125 -94l-139 -178h-262l-139 178l124 94l146 -184z
" />
    <glyph glyph-name="uni01DA" unicode="&#x1da;" 
d="M942 1085h164v-1085h-164v119q-56 -70 -149.5 -110t-202.5 -40q-194 0 -315 121t-121 320v675h163v-649q0 -155 75.5 -236t217.5 -81q150 0 240 86.5t90 232.5zM322 1188v209h208v-209h-208zM739 1188v209h209v-209h-209zM780 1739l125 -94l-139 -179h-262l-139 179
l124 94l146 -185z" />
    <glyph glyph-name="uni01DB" unicode="&#x1db;" 
d="M143 500v934h174v-924q0 -188 81 -283.5t237 -95.5q317 0 317 379v924h174v-934q0 -250 -130.5 -390.5t-358.5 -140.5q-230 0 -362 141t-132 390zM322 1536v209h208v-209h-208zM739 1536v209h209v-209h-209zM737 1815h-180l-227 256h241z" />
    <glyph glyph-name="uni01DC" unicode="&#x1dc;" 
d="M942 1085h164v-1085h-164v119q-56 -70 -149.5 -110t-202.5 -40q-194 0 -315 121t-121 320v675h163v-649q0 -155 75.5 -236t217.5 -81q150 0 240 86.5t90 232.5zM322 1188v209h208v-209h-208zM739 1188v209h209v-209h-209zM737 1466h-180l-227 256h241z" />
    <glyph glyph-name="uni01DE" unicode="&#x1de;" 
d="M1044 0l-133 395h-551l-133 -395h-176l500 1434h172l496 -1434h-175zM412 547h448l-223 672zM324 1536v209h208v-209h-208zM741 1536v209h209v-209h-209zM299 1815v139h676v-139h-676z" />
    <glyph glyph-name="uni01DF" unicode="&#x1df;" 
d="M1171 150l25 -140q-62 -16 -119 -16q-159 0 -196 137q-49 -72 -141.5 -111.5t-209.5 -39.5q-170 0 -272 83.5t-102 223.5q0 137 86.5 217t281.5 121q194 43 260 80t66 104q0 74 -67 119t-177 45q-122 0 -202 -67t-97 -183l-151 25q24 164 147 266q126 102 303 102
q184 0 292 -90.5t108 -243.5v-540q0 -50 21.5 -77.5t59.5 -27.5q17 0 84 13zM850 375v237q-17 -31 -80 -56.5t-215 -63.5q-132 -33 -188 -78.5t-56 -122.5q0 -80 57 -124t162 -44q141 0 230.5 71t89.5 181zM293 1219v208h209v-208h-209zM711 1219v208h209v-208h-209z
M268 1497v139h676v-139h-676z" />
    <glyph glyph-name="Aringacute" unicode="&#x1fa;" 
d="M1044 0l-133 395h-551l-133 -395h-176l500 1434h172l496 -1434h-175zM412 547h448l-223 672zM395 1546q0 97 68 158t174 61t175 -61.5t69 -157.5q0 -97 -69 -159t-175 -62t-174 62t-68 159zM748 1546q0 50 -30 80.5t-81 30.5q-49 0 -80 -30.5t-31 -80.5t31 -81t80 -31
t80 31t31 81zM537 1735l165 256h242l-229 -256h-178z" />
    <glyph glyph-name="aringacute" unicode="&#x1fb;" 
d="M1171 150l25 -140q-62 -16 -119 -16q-159 0 -196 137q-49 -72 -141.5 -111.5t-209.5 -39.5q-170 0 -272 83.5t-102 223.5q0 137 86.5 217t281.5 121q194 43 260 80t66 104q0 74 -67 119t-177 45q-122 0 -202 -67t-97 -183l-151 25q24 164 147 266q126 102 303 102
q184 0 292 -90.5t108 -243.5v-540q0 -50 21.5 -77.5t59.5 -27.5q17 0 84 13zM850 375v237q-17 -31 -80 -56.5t-215 -63.5q-132 -33 -188 -78.5t-56 -122.5q0 -80 57 -124t162 -44q141 0 230.5 71t89.5 181zM365 1229q0 97 67.5 158t173.5 61t175 -61.5t69 -157.5
q0 -97 -69 -159t-175 -62t-173.5 62t-67.5 159zM717 1229q0 50 -30 80t-81 30q-50 0 -80 -30.5t-30 -79.5q0 -50 30.5 -81.5t79.5 -31.5t80 31.5t31 81.5zM506 1417l166 256h241l-229 -256h-178z" />
    <glyph glyph-name="AEacute" unicode="&#x1fc;" 
d="M1214 1284h-391v-457h334v-147h-334v-528h391v-152h-555v373h-358l-100 -373h-174l391 1434h796v-150zM340 516h319v768h-112zM535 1536l165 256h242l-229 -256h-178z" />
    <glyph glyph-name="aeacute" unicode="&#x1fd;" 
d="M1225 535v-37h-514q0 -193 43 -285t133 -92q136 0 166 246l159 -23q-50 -375 -325 -375q-181 0 -258 156q-80 -156 -279 -156q-140 0 -221.5 87.5t-81.5 236.5q0 135 72.5 217t222.5 119q125 34 166 70t41 112q0 72 -40.5 114t-109.5 42q-160 0 -172 -215l-161 10
q6 164 94 259t231 95q87 0 155 -36.5t99 -98.5q37 66 99.5 100.5t142.5 34.5q171 0 254.5 -143.5t83.5 -437.5zM713 637h344q0 163 -43 246.5t-125 83.5q-173 0 -176 -330zM547 326v252q-14 -25 -52 -43t-130 -43q-80 -23 -117 -71.5t-37 -127.5q0 -85 37.5 -128.5
t109.5 -43.5q85 0 137 56.5t52 148.5zM535 1219l165 256h242l-229 -256h-178z" />
    <glyph glyph-name="Oslashacute" unicode="&#x1fe;" 
d="M1157 717q0 -358 -136 -553t-386 -195q-170 0 -293 97l-92 -162l-117 61l115 201q-135 193 -135 551t136 552.5t386 194.5q173 0 295 -94l90 160l117 -64l-113 -198q133 -198 133 -551zM340 332l510 897q-83 86 -215 86q-174 0 -264 -152t-90 -446q0 -237 59 -385z
M991 717q0 241 -61 387l-510 -899q86 -86 215 -86q174 0 265 152t91 446zM535 1536l165 256h242l-229 -256h-178z" />
    <glyph glyph-name="oslashacute" unicode="&#x1ff;" 
d="M1147 543q0 -259 -140.5 -416.5t-371.5 -157.5q-165 0 -287 82l-92 -123l-102 68l102 137q-133 160 -133 410q0 259 140.5 416t371.5 157q161 0 289 -84l94 125l98 -74l-100 -135q131 -153 131 -405zM352 264l484 649q-83 62 -201 62q-163 0 -258.5 -118t-95.5 -314
q0 -170 71 -279zM991 543q0 166 -69 278l-484 -649q83 -59 197 -59q164 0 260 118t96 312zM535 1188l165 256h242l-229 -256h-178z" />
    <glyph glyph-name="uni0218" unicode="&#x218;" 
d="M102 473l172 25q50 -367 398 -367q155 0 238 66.5t83 191.5q0 109 -76 170.5t-280 116.5q-260 74 -358.5 159.5t-98.5 237.5q0 171 125 281t320 110q194 0 335.5 -118.5t172.5 -309.5l-170 -30q-25 137 -116.5 218t-221.5 81q-121 0 -196 -64.5t-75 -167.5
q0 -89 67.5 -135.5t272.5 -106.5q95 -25 164.5 -52t130.5 -64.5t98.5 -84t58.5 -109t21 -140.5q0 -187 -135 -301q-132 -111 -360 -111q-239 0 -388.5 132.5t-181.5 371.5zM575 -510v98q36 6 50 23.5t14 56.5h-76v201h215v-168q0 -94 -53 -148.5t-150 -62.5z" />
    <glyph glyph-name="uni0219" unicode="&#x219;" 
d="M125 358l151 27q15 -120 127 -197q112 -75 273 -75q147 0 230 47.5t83 132.5q0 86 -78 128.5t-286 70.5q-238 34 -336.5 101.5t-98.5 199.5q0 138 122 230.5t302 92.5q183 0 322.5 -97t167.5 -243l-152 -35q-23 104 -116.5 169t-221.5 65q-113 0 -189.5 -51t-76.5 -129
q0 -49 29 -77t101.5 -48t221.5 -41q238 -32 341.5 -110t103.5 -224q0 -149 -127 -237.5t-342 -88.5q-221 0 -375 108.5t-176 280.5zM580 -510v98q36 6 49.5 23.5t13.5 56.5h-76v201h215v-168q0 -94 -52.5 -148.5t-149.5 -62.5z" />
    <glyph glyph-name="uni021A" unicode="&#x21a;" 
d="M547 0v1274h-475v160h1126v-160h-475v-1274h-176zM553 -481v98q36 6 49.5 23.5t13.5 56.5h-75v201h215v-168q0 -94 -53 -148.5t-150 -62.5z" />
    <glyph glyph-name="uni021B" unicode="&#x21b;" 
d="M1090 213l77 -133q-156 -111 -352 -111q-156 0 -245 90.5t-89 249.5v627h-368v149h368v299l164 52v-351h512v-149h-512v-623q0 -192 189 -192q113 0 256 92zM719 -510v98q36 6 49.5 23.5t13.5 56.5h-75v201h215v-168q0 -94 -53 -148.5t-150 -62.5z" />
    <glyph glyph-name="uni0228" unicode="&#x228;" 
d="M154 0v1434h1003v-160h-827v-459h657v-153h-657v-500h827v-162h-1003zM944 -268q0 -92 -64.5 -148.5t-172.5 -56.5q-86 0 -152.5 37.5t-101.5 105.5l110 64q26 -47 59.5 -66.5t84.5 -19.5q50 0 79 23.5t27 60.5q0 36 -28.5 57t-77.5 21q-53 0 -109 -35l-100 55l116 201
h127l-77 -133q42 10 75 10q88 0 146.5 -50.5t58.5 -125.5z" />
    <glyph glyph-name="uni0229" unicode="&#x229;" 
d="M635 115q240 0 340 237l139 -69q-62 -148 -187.5 -231t-291.5 -83q-230 0 -370 158.5t-140 415.5q0 259 140.5 416t369.5 157t369.5 -157t140.5 -416v-68h-858q17 -168 109 -264t239 -96zM285 610h700q-7 168 -103 265.5t-247 97.5q-150 0 -248 -101q-99 -99 -102 -262z
M903 -297q0 -92 -64.5 -148.5t-172.5 -56.5q-86 0 -152 38t-102 106l110 63q26 -47 59.5 -66.5t84.5 -19.5q50 0 79 23.5t27 60.5q0 36 -28.5 57t-77.5 21q-53 0 -109 -35l-100 55l116 201h127l-77 -133q42 10 75 10q88 0 146.5 -50.5t58.5 -125.5z" />
    <glyph glyph-name="uni0237" unicode="&#x237;" 
d="M123 -233l98 122q85 -67 162 -98t162 -31q123 0 188.5 81t65.5 233v862h-520v149h684v-1019q0 -211 -112 -333t-304 -122q-244 0 -424 156z" />
    <glyph glyph-name="uni0258" unicode="&#x258;" 
d="M635 115q147 0 239 96t109 264h-858v68q0 259 140.5 416t369.5 157t369.5 -157t140.5 -416q0 -257 -140 -415.5t-370 -158.5q-166 0 -291.5 83t-187.5 231l139 69q100 -237 340 -237zM985 610q-3 163 -102 262q-98 101 -248 101q-151 0 -247 -97.5t-103 -265.5h700z" />
    <glyph glyph-name="uni0259" unicode="&#x259;" 
d="M635 971q-239 0 -340 -238l-139 70q62 148 187 230.5t292 82.5q230 0 370 -158t140 -415q0 -259 -140.5 -416.5t-369.5 -157.5t-369.5 157.5t-140.5 416.5v67h858q-17 168 -109 264.5t-239 96.5zM985 475h-700q7 -168 103 -265t247 -97q150 0 248 98q99 102 102 264z" />
    <glyph glyph-name="circumflex" unicode="&#x2c6;" 
d="M905 1243l-125 -96l-145 186l-146 -186l-124 96l139 176h262z" />
    <glyph glyph-name="caron" unicode="&#x2c7;" 
d="M780 1460l125 -94l-139 -178h-262l-139 178l124 94l146 -184z" />
    <glyph glyph-name="breve" unicode="&#x2d8;" 
d="M369 1421h116q11 -55 49.5 -84.5t100.5 -29.5q127 0 151 114h115q0 -115 -73.5 -184.5t-192.5 -69.5t-192.5 69.5t-73.5 184.5z" />
    <glyph glyph-name="dotaccent" unicode="&#x2d9;" 
d="M528 1188v215h217v-215h-217z" />
    <glyph glyph-name="ring" unicode="&#x2da;" 
d="M393 1198q0 97 68 158t174 61t175 -61.5t69 -157.5q0 -97 -69 -159t-175 -62t-174 62t-68 159zM745 1198q0 50 -29.5 80.5t-80.5 30.5q-49 0 -80 -30.5t-31 -80.5t31 -81.5t80 -31.5t79.5 31.5t30.5 81.5z" />
    <glyph glyph-name="ogonek" unicode="&#x2db;" 
d="M389 -246q0 84 69 153.5t212 131.5l90 -39q-122 -69 -172.5 -118.5t-50.5 -100.5q0 -68 90 -68q83 0 190 64l64 -127q-139 -74 -254 -74q-109 0 -173.5 48t-64.5 130z" />
    <glyph glyph-name="tilde" unicode="&#x2dc;" 
d="M612 1223q-75 34 -110 34q-57 0 -72 -69h-121q6 103 56 159t135 56q66 0 162 -45q13 -8 50 -20.5t62 -12.5q57 0 72 68h119q-4 -99 -55.5 -157t-133.5 -58q-59 0 -164 45z" />
    <glyph glyph-name="hungarumlaut" unicode="&#x2dd;" 
d="M274 1188l158 244h230l-218 -244h-170zM606 1188l158 244h229l-217 -244h-170z" />
    <glyph glyph-name="gravecomb" unicode="&#x300;" horiz-adv-x="0" 
d="M-430 1188h-180l-228 256h242z" />
    <glyph glyph-name="acutecomb" unicode="&#x301;" horiz-adv-x="0" 
d="M-838 1188l166 256h242l-229 -256h-179z" />
    <glyph glyph-name="uni0302" unicode="&#x302;" horiz-adv-x="0" 
d="M-365 1243l-124 -96l-146 186l-145 -186l-125 96l139 176h262z" />
    <glyph glyph-name="tildecomb" unicode="&#x303;" horiz-adv-x="0" 
d="M-659 1223q-75 34 -111 34q-57 0 -72 -69h-121q6 103 56 159t135 56q66 0 162 -45q13 -8 50 -20.5t62 -12.5q57 0 72 68h119q-4 -99 -55.5 -157t-133.5 -58q-58 0 -163 45z" />
    <glyph glyph-name="uni0304" unicode="&#x304;" horiz-adv-x="0" 
d="M-973 1188v139h676v-139h-676z" />
    <glyph glyph-name="uni0306" unicode="&#x306;" horiz-adv-x="0" 
d="M-901 1421h117q11 -55 49 -84.5t100 -29.5q128 0 152 114h114q0 -115 -73.5 -184.5t-192.5 -69.5t-192.5 69.5t-73.5 184.5z" />
    <glyph glyph-name="uni0307" unicode="&#x307;" horiz-adv-x="0" 
d="M-743 1188v215h217v-215h-217z" />
    <glyph glyph-name="uni0308" unicode="&#x308;" horiz-adv-x="0" 
d="M-948 1188v209h209v-209h-209zM-530 1188v209h208v-209h-208z" />
    <glyph glyph-name="uni030A" unicode="&#x30a;" horiz-adv-x="0" 
d="M-877 1198q0 97 68 158t174 61t175 -61.5t69 -157.5q0 -97 -69 -159t-175 -62t-174 62t-68 159zM-524 1198q0 50 -30 80.5t-81 30.5q-49 0 -79.5 -30.5t-30.5 -80.5t30.5 -81.5t79.5 -31.5t80 31.5t31 81.5z" />
    <glyph glyph-name="uni030B" unicode="&#x30b;" horiz-adv-x="0" 
d="M-995 1188l157 244h230l-217 -244h-170zM-664 1188l158 244h230l-218 -244h-170z" />
    <glyph glyph-name="uni030C" unicode="&#x30c;" horiz-adv-x="0" 
d="M-489 1460l124 -94l-139 -178h-262l-139 178l125 94l145 -184z" />
    <glyph glyph-name="dotbelowcomb" unicode="&#x323;" horiz-adv-x="0" 
d="M-741 -317v215h217v-215h-217z" />
    <glyph glyph-name="uni0326" unicode="&#x326;" horiz-adv-x="0" 
d="M-731 -481v98q36 6 49.5 23.5t13.5 56.5h-75v201h215v-168q0 -94 -53 -148.5t-150 -62.5z" />
    <glyph glyph-name="uni0327" unicode="&#x327;" horiz-adv-x="0" 
d="M-389 -268q0 -91 -65 -148t-173 -57q-86 0 -152.5 37.5t-101.5 105.5l111 64q26 -47 59 -66.5t84 -19.5q50 0 79.5 23.5t27.5 60.5q0 35 -29 56.5t-78 21.5q-52 0 -108 -35l-101 55l117 201h127l-78 -133q42 10 76 10q88 0 146.5 -50.5t58.5 -125.5z" />
    <glyph glyph-name="uni0328" unicode="&#x328;" horiz-adv-x="0" 
d="M-881 -246q0 84 69 153.5t212 131.5l90 -39q-122 -69 -172.5 -118.5t-50.5 -100.5q0 -68 90 -68q83 0 190 64l64 -127q-139 -74 -254 -74q-109 0 -173.5 48t-64.5 130z" />
    <glyph glyph-name="uni0337" unicode="&#x337;" horiz-adv-x="0" 
d="M-1014 -70l-102 68l864 1161l98 -74z" />
    <glyph glyph-name="uni0338" unicode="&#x338;" horiz-adv-x="0" 
d="M-1020 -96l-117 61l887 1565l117 -64z" />
    <glyph glyph-name="uni0394" unicode="&#x394;" 
d="M723 1434l496 -1434h-1168l500 1434h172zM279 154h714l-356 1065z" />
    <glyph glyph-name="uni03A9" unicode="&#x3a9;" 
d="M977 162h180v-162h-434v141q260 71 260 576q0 289 -88 438.5t-260 149.5q-170 0 -259 -150t-89 -438q0 -248 66.5 -394.5t195.5 -181.5v-141h-436v162h182q-182 138 -182 565q0 352 136 544.5t386 192.5t386 -192.5t136 -544.5q0 -428 -180 -565z" />
    <glyph glyph-name="uni03BC" unicode="&#x3bc;" 
d="M942 1085h164v-1085h-164v113q-50 -66 -133.5 -105t-179.5 -39q-103 0 -180.5 38.5t-120.5 111.5v-580h-164v1546h164v-628q0 -163 78.5 -249.5t222.5 -86.5q146 0 229.5 88t83.5 240v636z" />
    <glyph glyph-name="pi" unicode="&#x3c0;" 
d="M1157 936h-192v-614q0 -91 44.5 -130.5t147.5 -39.5v-152q-177 0 -266.5 76t-89.5 223v637h-312v-936h-163v936h-213v149h1044v-149z" />
    <glyph glyph-name="uni0E3F" unicode="&#xe3f;" 
d="M1167 412q0 -177 -124 -294.5t-322 -117.5h-39v-242h-174v242h-354v1434h354v241h174v-241h18q179 0 295.5 -106.5t116.5 -264.5q0 -98 -49 -180.5t-131 -120.5q109 -43 172 -136t63 -214zM328 1274v-438h364q116 0 181 61.5t65 165.5q0 95 -66 153t-180 58h-364z
M993 418q0 117 -76.5 187.5t-211.5 70.5h-377v-514h377q135 0 211.5 69t76.5 187z" />
    <glyph glyph-name="uni1E04" unicode="&#x1e04;" 
d="M1167 412q0 -177 -124 -294.5t-322 -117.5h-567v1434h546q179 0 295.5 -106.5t116.5 -264.5q0 -98 -49 -180.5t-131 -120.5q109 -43 172 -136t63 -214zM328 1274v-438h364q116 0 181 61.5t65 165.5q0 95 -66 153t-180 58h-364zM993 418q0 117 -76.5 187.5t-211.5 70.5
h-377v-514h377q135 0 211.5 69t76.5 187zM528 -317v215h217v-215h-217z" />
    <glyph glyph-name="uni1E05" unicode="&#x1e05;" 
d="M1147 543q0 -254 -136.5 -414t-355.5 -160q-97 0 -184 36.5t-143 98.5v-104h-164v1434h164v-455q52 64 138 100.5t189 36.5q220 0 356 -158.5t136 -414.5zM983 543q0 195 -91.5 309.5t-246.5 114.5q-141 0 -229 -87t-88 -227v-211q0 -146 88 -233.5t231 -87.5
q154 0 245 115t91 307zM539 -346v215h217v-215h-217z" />
    <glyph glyph-name="uni1E0C" unicode="&#x1e0c;" 
d="M154 1434h411q283 0 437.5 -184.5t154.5 -532.5q0 -349 -154 -533t-438 -184h-411v1434zM983 717q0 557 -432 557h-223v-1112h223q432 0 432 555zM528 -317v215h217v-215h-217z" />
    <glyph glyph-name="uni1E0D" unicode="&#x1e0d;" 
d="M942 1434h164v-1434h-164v104q-56 -62 -143.5 -98.5t-184.5 -36.5q-219 0 -355 160t-136 414q0 256 135.5 414.5t355.5 158.5q103 0 189.5 -36.5t138.5 -100.5v455zM942 442v211q0 140 -88 227t-229 87q-155 0 -246.5 -114.5t-91.5 -309.5q0 -192 91 -307t245 -115
q143 0 231 87.5t88 233.5zM528 -346v215h217v-215h-217z" />
    <glyph glyph-name="uni1E24" unicode="&#x1e24;" 
d="M154 1434h174v-615h614v615h174v-1434h-174v659h-614v-659h-174v1434zM528 -317v215h217v-215h-217z" />
    <glyph glyph-name="uni1E25" unicode="&#x1e25;" 
d="M1116 676v-676h-164v649q0 155 -75.5 236.5t-217.5 81.5q-150 0 -239.5 -87t-89.5 -233l-2 -647h-164v1434h164v-467q56 69 149 109t203 40q194 0 315 -121t121 -319zM535 -317v215h217v-215h-217z" />
    <glyph glyph-name="uni1E36" unicode="&#x1e36;" 
d="M154 1434h174v-1272h870v-162h-1044v1434zM559 -317v215h217v-215h-217z" />
    <glyph glyph-name="uni1E37" unicode="&#x1e37;" 
d="M164 0v152h399v1132h-325v150h489v-1282h379v-152h-942zM539 -317v215h217v-215h-217z" />
    <glyph glyph-name="uni1E44" unicode="&#x1e44;" 
d="M942 1434h174v-1434h-182l-606 1124v-1124h-174v1434h182l606 -1123v1123zM526 1536v215h217v-215h-217z" />
    <glyph glyph-name="uni1E45" unicode="&#x1e45;" 
d="M1116 676v-676h-164v649q0 155 -75.5 236.5t-217.5 81.5q-150 0 -239.5 -87t-89.5 -233l-2 -647h-164v1085h164v-118q56 69 149 109t203 40q194 0 315 -121t121 -319zM541 1219v215h217v-215h-217z" />
    <glyph glyph-name="uni1E46" unicode="&#x1e46;" 
d="M942 1434h174v-1434h-182l-606 1124v-1124h-174v1434h182l606 -1123v1123zM528 -317v215h217v-215h-217z" />
    <glyph glyph-name="uni1E47" unicode="&#x1e47;" 
d="M1116 676v-676h-164v649q0 155 -75.5 236.5t-217.5 81.5q-150 0 -239.5 -87t-89.5 -233l-2 -647h-164v1085h164v-118q56 69 149 109t203 40q194 0 315 -121t121 -319zM514 -317v215h217v-215h-217z" />
    <glyph glyph-name="uni1E4C" unicode="&#x1e4c;" 
d="M113 717q0 358 136 552.5t386 194.5t386 -194.5t136 -552.5t-136 -553t-386 -195t-386 195t-136 553zM983 717q0 288 -89 438t-259 150t-259 -150t-89 -438q0 -289 88 -437.5t260 -148.5t260 148.5t88 437.5zM610 1602q-75 34 -110 34q-57 0 -72 -69h-121q6 103 56 159
t135 56q65 0 161 -45q13 -8 50.5 -20.5t62.5 -12.5q57 0 72 68h119q-4 -99 -55.5 -157.5t-133.5 -58.5q-57 0 -164 46zM530 1843l166 256h242l-229 -256h-179z" />
    <glyph glyph-name="uni1E4D" unicode="&#x1e4d;" 
d="M123 543q0 259 140.5 416t371.5 157t371.5 -157t140.5 -416t-140.5 -416.5t-371.5 -157.5t-371.5 157.5t-140.5 416.5zM983 543q0 193 -94 308.5t-254 115.5t-254 -116t-94 -308t94 -307t254 -115t254 115t94 307zM610 1253q-78 35 -110 35q-57 0 -72 -69h-121
q6 103 56 159t135 56q65 0 161 -45q13 -8 50.5 -20.5t62.5 -12.5q57 0 72 67h119q-4 -99 -55.5 -157t-133.5 -58q-59 0 -164 45zM530 1495l166 256h242l-229 -256h-179z" />
    <glyph glyph-name="uni1E62" unicode="&#x1e62;" 
d="M102 473l172 25q50 -367 398 -367q155 0 238 66.5t83 191.5q0 109 -76 170.5t-280 116.5q-260 74 -358.5 159.5t-98.5 237.5q0 171 125 281t320 110q194 0 335.5 -118.5t172.5 -309.5l-170 -30q-25 137 -116.5 218t-221.5 81q-121 0 -196 -64.5t-75 -167.5
q0 -89 67.5 -135.5t272.5 -106.5q95 -25 164.5 -52t130.5 -64.5t98.5 -84t58.5 -109t21 -140.5q0 -187 -135 -301q-132 -111 -360 -111q-239 0 -388.5 132.5t-181.5 371.5zM565 -346v215h217v-215h-217z" />
    <glyph glyph-name="uni1E63" unicode="&#x1e63;" 
d="M125 358l151 27q15 -120 127 -197q112 -75 273 -75q147 0 230 47.5t83 132.5q0 86 -78 128.5t-286 70.5q-238 34 -336.5 101.5t-98.5 199.5q0 138 122 230.5t302 92.5q183 0 322.5 -97t167.5 -243l-152 -35q-23 104 -116.5 169t-221.5 65q-113 0 -189.5 -51t-76.5 -129
q0 -49 29 -77t101.5 -48t221.5 -41q238 -32 341.5 -110t103.5 -224q0 -149 -127 -237.5t-342 -88.5q-221 0 -375 108.5t-176 280.5zM569 -346v215h217v-215h-217z" />
    <glyph glyph-name="uni1E6C" unicode="&#x1e6c;" 
d="M547 0v1274h-475v160h1126v-160h-475v-1274h-176zM543 -317v215h217v-215h-217z" />
    <glyph glyph-name="uni1E6D" unicode="&#x1e6d;" 
d="M1090 213l77 -133q-156 -111 -352 -111q-156 0 -245 90.5t-89 249.5v627h-368v149h368v299l164 52v-351h512v-149h-512v-623q0 -192 189 -192q113 0 256 92zM709 -346v215h217v-215h-217z" />
    <glyph glyph-name="Wgrave" unicode="&#x1e80;" 
d="M1036 1434h168l-147 -1434h-213l-207 811l-209 -811h-213l-147 1434h168l114 -1172l215 832h142l215 -832zM739 1536h-180l-227 256h241z" />
    <glyph glyph-name="wgrave" unicode="&#x1e81;" 
d="M1055 1085h153l-180 -1085h-182l-211 842l-209 -842h-184l-181 1085h152l139 -829l205 829h158l205 -829zM737 1188h-180l-227 256h241z" />
    <glyph glyph-name="Wacute" unicode="&#x1e82;" 
d="M1036 1434h168l-147 -1434h-213l-207 811l-209 -811h-213l-147 1434h168l114 -1172l215 832h142l215 -832zM537 1536l165 256h242l-229 -256h-178z" />
    <glyph glyph-name="wacute" unicode="&#x1e83;" 
d="M1055 1085h153l-180 -1085h-182l-211 842l-209 -842h-184l-181 1085h152l139 -829l205 829h158l205 -829zM535 1188l165 256h242l-229 -256h-178z" />
    <glyph glyph-name="Wdieresis" unicode="&#x1e84;" 
d="M1036 1434h168l-147 -1434h-213l-207 811l-209 -811h-213l-147 1434h168l114 -1172l215 832h142l215 -832zM324 1536v209h208v-209h-208zM741 1536v209h209v-209h-209z" />
    <glyph glyph-name="wdieresis" unicode="&#x1e85;" 
d="M1055 1085h153l-180 -1085h-182l-211 842l-209 -842h-184l-181 1085h152l139 -829l205 829h158l205 -829zM322 1188v209h208v-209h-208zM739 1188v209h209v-209h-209z" />
    <glyph glyph-name="uni1E92" unicode="&#x1e92;" 
d="M92 0v147l877 1133h-848v154h1057v-146l-877 -1134h868v-154h-1077zM528 -317v215h217v-215h-217z" />
    <glyph glyph-name="uni1E93" unicode="&#x1e93;" 
d="M154 0v137l741 805h-725v143h932v-135l-744 -807h758v-143h-962zM528 -317v215h217v-215h-217z" />
    <glyph glyph-name="uni1EA0" unicode="&#x1ea0;" 
d="M1044 0l-133 395h-551l-133 -395h-176l500 1434h172l496 -1434h-175zM412 547h448l-223 672zM528 -317v215h217v-215h-217z" />
    <glyph glyph-name="uni1EA1" unicode="&#x1ea1;" 
d="M1171 150l25 -140q-62 -16 -119 -16q-159 0 -196 137q-49 -72 -141.5 -111.5t-209.5 -39.5q-170 0 -272 83.5t-102 223.5q0 137 86.5 217t281.5 121q194 43 260 80t66 104q0 74 -67 119t-177 45q-122 0 -202 -67t-97 -183l-151 25q24 164 147 266q126 102 303 102
q184 0 292 -90.5t108 -243.5v-540q0 -50 21.5 -77.5t59.5 -27.5q17 0 84 13zM850 375v237q-17 -31 -80 -56.5t-215 -63.5q-132 -33 -188 -78.5t-56 -122.5q0 -80 57 -124t162 -44q141 0 230.5 71t89.5 181zM463 -346v215h217v-215h-217z" />
    <glyph glyph-name="uni1EAC" unicode="&#x1eac;" 
d="M1044 0l-133 395h-551l-133 -395h-176l500 1434h172l496 -1434h-175zM412 547h448l-223 672zM526 -317v215h217v-215h-217zM907 1591l-125 -96l-145 186l-145 -186l-125 96l139 176h262z" />
    <glyph glyph-name="uni1EAD" unicode="&#x1ead;" 
d="M881 1274l-125 -96l-146 186l-145 -186l-125 96l139 176h262zM1171 150l25 -140q-62 -16 -119 -16q-159 0 -196 137q-49 -72 -141.5 -111.5t-209.5 -39.5q-170 0 -272 83.5t-102 223.5q0 137 86.5 217t281.5 121q194 43 260 80t66 104q0 74 -67 119t-177 45
q-122 0 -202 -67t-97 -183l-151 25q24 164 147 266q126 102 303 102q184 0 292 -90.5t108 -243.5v-540q0 -50 21.5 -77.5t59.5 -27.5q17 0 84 13zM850 375v237q-17 -31 -80 -56.5t-215 -63.5q-132 -33 -188 -78.5t-56 -122.5q0 -80 57 -124t162 -44q141 0 230.5 71t89.5 181
zM463 -346v215h217v-215h-217z" />
    <glyph glyph-name="uni1EB8" unicode="&#x1eb8;" 
d="M154 0v1434h1003v-160h-827v-459h657v-153h-657v-500h827v-162h-1003zM580 -317v215h217v-215h-217z" />
    <glyph glyph-name="uni1EB9" unicode="&#x1eb9;" 
d="M635 115q240 0 340 237l139 -69q-62 -148 -187.5 -231t-291.5 -83q-230 0 -370 158.5t-140 415.5q0 259 140.5 416t369.5 157t369.5 -157t140.5 -416v-68h-858q17 -168 109 -264t239 -96zM285 610h700q-7 168 -103 265.5t-247 97.5q-150 0 -248 -101q-99 -99 -102 -262z
M539 -346v215h217v-215h-217z" />
    <glyph glyph-name="uni1EBC" unicode="&#x1ebc;" 
d="M154 0v1434h1003v-160h-827v-459h657v-153h-657v-500h827v-162h-1003zM662 1571q-78 35 -111 35q-57 0 -72 -70h-121q6 103 56 159t135 56q66 0 162 -45q13 -8 50 -20.5t62 -12.5q57 0 72 68h119q-4 -99 -55.5 -157t-133.5 -58q-58 0 -163 45z" />
    <glyph glyph-name="uni1EBD" unicode="&#x1ebd;" 
d="M635 115q240 0 340 237l139 -69q-62 -148 -187.5 -231t-291.5 -83q-230 0 -370 158.5t-140 415.5q0 259 140.5 416t369.5 157t369.5 -157t140.5 -416v-68h-858q17 -168 109 -264t239 -96zM285 610h700q-7 168 -103 265.5t-247 97.5q-150 0 -248 -101q-99 -99 -102 -262z
M621 1253q-78 35 -111 35q-57 0 -72 -69h-121q6 103 56 159t135 56q66 0 162 -45q13 -8 50 -20.5t62 -12.5q57 0 72 67h119q-4 -99 -55.5 -157t-133.5 -58q-58 0 -163 45z" />
    <glyph glyph-name="uni1EC6" unicode="&#x1ec6;" 
d="M154 0v1434h1003v-160h-827v-459h657v-153h-657v-500h827v-162h-1003zM580 -317v215h217v-215h-217zM956 1591l-125 -96l-145 186l-145 -186l-125 96l139 176h262z" />
    <glyph glyph-name="uni1EC7" unicode="&#x1ec7;" 
d="M905 1274l-125 -96l-145 186l-146 -186l-124 96l139 176h262zM635 115q240 0 340 237l139 -69q-62 -148 -187.5 -231t-291.5 -83q-230 0 -370 158.5t-140 415.5q0 259 140.5 416t369.5 157t369.5 -157t140.5 -416v-68h-858q17 -168 109 -264t239 -96zM285 610h700
q-7 168 -103 265.5t-247 97.5q-150 0 -248 -101q-99 -99 -102 -262zM539 -346v215h217v-215h-217z" />
    <glyph glyph-name="uni1ECA" unicode="&#x1eca;" 
d="M174 0v162h373v1112h-373v160h922v-160h-373v-1112h373v-162h-922zM528 -317v215h217v-215h-217z" />
    <glyph glyph-name="uni1ECB" unicode="&#x1ecb;" 
d="M164 0v152h399v784h-348v149h512v-933h379v-152h-942zM537 1239v219h217v-219h-217zM528 -317v215h217v-215h-217z" />
    <glyph glyph-name="uni1ECC" unicode="&#x1ecc;" 
d="M113 717q0 358 136 552.5t386 194.5t386 -194.5t136 -552.5t-136 -553t-386 -195t-386 195t-136 553zM983 717q0 288 -89 438t-259 150t-259 -150t-89 -438q0 -289 88 -437.5t260 -148.5t260 148.5t88 437.5zM528 -346v215h217v-215h-217z" />
    <glyph glyph-name="uni1ECD" unicode="&#x1ecd;" 
d="M123 543q0 259 140.5 416t371.5 157t371.5 -157t140.5 -416t-140.5 -416.5t-371.5 -157.5t-371.5 157.5t-140.5 416.5zM983 543q0 193 -94 308.5t-254 115.5t-254 -116t-94 -308t94 -307t254 -115t254 115t94 307zM528 -346v215h217v-215h-217z" />
    <glyph glyph-name="uni1ED8" unicode="&#x1ed8;" 
d="M905 1622l-125 -96l-145 186l-146 -186l-124 96l139 176h262zM113 717q0 358 136 552.5t386 194.5t386 -194.5t136 -552.5t-136 -553t-386 -195t-386 195t-136 553zM983 717q0 288 -89 438t-259 150t-259 -150t-89 -438q0 -289 88 -437.5t260 -148.5t260 148.5t88 437.5z
M528 -346v215h217v-215h-217z" />
    <glyph glyph-name="uni1ED9" unicode="&#x1ed9;" 
d="M526 -317v215h217v-215h-217zM123 543q0 259 140.5 416t371.5 157t371.5 -157t140.5 -416t-140.5 -416.5t-371.5 -157.5t-371.5 157.5t-140.5 416.5zM983 543q0 193 -94 308.5t-254 115.5t-254 -116t-94 -308t94 -307t254 -115t254 115t94 307zM905 1274l-125 -96
l-145 186l-146 -186l-124 96l139 176h262z" />
    <glyph glyph-name="uni1EE4" unicode="&#x1ee4;" 
d="M143 500v934h174v-924q0 -188 81 -283.5t237 -95.5q317 0 317 379v924h174v-934q0 -250 -130.5 -390.5t-358.5 -140.5q-230 0 -362 141t-132 390zM530 -346v215h218v-215h-218z" />
    <glyph glyph-name="uni1EE5" unicode="&#x1ee5;" 
d="M942 1085h164v-1085h-164v119q-56 -70 -149.5 -110t-202.5 -40q-194 0 -315 121t-121 320v675h163v-649q0 -155 75.5 -236t217.5 -81q150 0 240 86.5t90 232.5zM535 -346v215h217v-215h-217z" />
    <glyph glyph-name="Ygrave" unicode="&#x1ef2;" 
d="M1001 1434h197l-475 -820v-614h-174v614l-477 820h198l365 -650zM737 1536h-180l-227 256h241z" />
    <glyph glyph-name="ygrave" unicode="&#x1ef3;" 
d="M1014 1085h184l-600 -1253q-41 -85 -98.5 -119.5t-155.5 -34.5q-50 0 -170 21l27 145q88 -16 141 -16q51 0 77.5 17t49.5 65l84 184l-481 991h186l381 -809zM737 1188h-180l-227 256h241z" />
    <glyph glyph-name="uni1EF4" unicode="&#x1ef4;" 
d="M1001 1434h197l-475 -820v-614h-174v614l-477 820h198l365 -650zM528 -317v215h217v-215h-217z" />
    <glyph glyph-name="uni1EF5" unicode="&#x1ef5;" 
d="M1014 1085h184l-600 -1253q-41 -85 -98.5 -119.5t-155.5 -34.5q-50 0 -170 21l27 145q88 -16 141 -16q51 0 77.5 17t49.5 65l84 184l-481 991h186l381 -809zM793 -317v215h217v-215h-217z" />
    <glyph glyph-name="uni1EF8" unicode="&#x1ef8;" 
d="M1001 1434h197l-475 -820v-614h-174v614l-477 820h198l365 -650zM610 1571q-78 35 -110 35q-57 0 -72 -70h-121q6 103 56 159t135 56q65 0 161 -45q13 -8 50.5 -20.5t62.5 -12.5q57 0 72 68h119q-4 -99 -55.5 -157t-133.5 -58q-59 0 -164 45z" />
    <glyph glyph-name="uni1EF9" unicode="&#x1ef9;" 
d="M1014 1085h184l-600 -1253q-41 -85 -98.5 -119.5t-155.5 -34.5q-50 0 -170 21l27 145q88 -16 141 -16q51 0 77.5 17t49.5 65l84 184l-481 991h186l381 -809zM610 1223q-75 34 -110 34q-57 0 -72 -69h-121q6 103 56 159t135 56q65 0 161 -45q13 -8 50.5 -20.5t62.5 -12.5
q57 0 72 68h119q-4 -99 -55.5 -157t-133.5 -58q-59 0 -164 45z" />
    <glyph glyph-name="uni2002" unicode="&#x2002;" 
 />
    <glyph glyph-name="uni2003" unicode="&#x2003;" 
 />
    <glyph glyph-name="uni2004" unicode="&#x2004;" 
 />
    <glyph glyph-name="uni2005" unicode="&#x2005;" 
 />
    <glyph glyph-name="uni2007" unicode="&#x2007;" 
 />
    <glyph glyph-name="uni2008" unicode="&#x2008;" 
 />
    <glyph glyph-name="uni2009" unicode="&#x2009;" 
 />
    <glyph glyph-name="uni200A" unicode="&#x200a;" 
 />
    <glyph glyph-name="uni200B" unicode="&#x200b;" horiz-adv-x="0" 
 />
    <glyph glyph-name="endash" unicode="&#x2013;" 
d="M154 551v162h962v-162h-962z" />
    <glyph glyph-name="emdash" unicode="&#x2014;" 
d="M0 551v162h1270v-162h-1270z" />
    <glyph glyph-name="quoteleft" unicode="&#x2018;" 
d="M772 1454v-133q-53 -7 -73.5 -32.5t-20.5 -80.5h104v-274h-295v231q0 128 74.5 203.5t210.5 85.5z" />
    <glyph glyph-name="quoteright" unicode="&#x2019;" 
d="M498 915v134q53 7 73.5 32t20.5 80h-105v275h295v-232q0 -128 -74 -203.5t-210 -85.5z" />
    <glyph glyph-name="quotesinglbase" unicode="&#x201a;" 
d="M498 -246v133q53 7 73.5 32.5t20.5 80.5h-105v274h295v-231q0 -128 -74 -203.5t-210 -85.5z" />
    <glyph glyph-name="quotedblleft" unicode="&#x201c;" 
d="M983 1454v-129q-50 -7 -71 -33t-21 -78h102v-268h-286v228q0 123 71.5 196.5t204.5 83.5zM555 1454v-129q-50 -7 -71 -33t-21 -78h102v-268h-286v228q0 123 71.5 196.5t204.5 83.5z" />
    <glyph glyph-name="quotedblright" unicode="&#x201d;" 
d="M287 930v129q50 7 71 32.5t21 77.5h-103v269h287v-228q0 -123 -71.5 -196.5t-204.5 -83.5zM715 930v129q50 7 71 32.5t21 77.5h-102v269h286v-228q0 -123 -71.5 -196.5t-204.5 -83.5z" />
    <glyph glyph-name="quotedblbase" unicode="&#x201e;" 
d="M289 -240v129q50 7 71 33t21 78h-102v268h286v-227q0 -124 -71.5 -197.5t-204.5 -83.5zM715 -240v129q50 7 71 33t21 78h-102v268h286v-227q0 -124 -71.5 -197.5t-204.5 -83.5z" />
    <glyph glyph-name="dagger" unicode="&#x2020;" 
d="M547 -246v1172h-506v159h506v461h176v-461h506v-159h-506v-1172h-176z" />
    <glyph glyph-name="daggerdbl" unicode="&#x2021;" 
d="M1229 926h-506v-551h506v-162h-506v-459h-176v459h-506v162h506v551h-506v159h506v461h176v-461h506v-159z" />
    <glyph glyph-name="bullet" unicode="&#x2022;" 
d="M463 735q0 72 48.5 119t123.5 47t124.5 -47t49.5 -119q0 -73 -49.5 -120.5t-124.5 -47.5t-123.5 47.5t-48.5 120.5z" />
    <glyph glyph-name="ellipsis" unicode="&#x2026;" 
d="M113 0v258h262v-258h-262zM506 0v258h262v-258h-262zM897 0v258h262v-258h-262z" />
    <glyph glyph-name="perthousand" unicode="&#x2030;" 
d="M27 1403q0 207 93.5 327.5t254.5 120.5q160 0 253 -120.5t93 -327.5t-93 -328t-253 -121q-161 0 -254.5 121t-93.5 328zM168 1403q0 -145 54.5 -231.5t152.5 -86.5q97 0 151 86.5t54 231.5q0 148 -54 233.5t-151 85.5q-99 0 -153 -85.5t-54 -233.5zM195 510l-62 123
l850 420l61 -125zM1245 213q0 -207 -93.5 -329t-254.5 -122q-83 0 -145 33q-6 -195 -100 -308.5t-249 -113.5q-160 0 -253 121t-93 328t93 327.5t253 120.5q83 0 148 -32q6 197 98.5 310.5t247.5 113.5q161 0 254.5 -121t93.5 -328zM1102 213q0 145 -54 231t-151 86
t-151 -86t-54 -231t54 -232t151 -87t151 87t54 232zM610 -178q0 87 -22 164q-7 21 -8 22q-53 133 -177 133q-97 0 -150.5 -85.5t-53.5 -233.5t53.5 -234t150.5 -86q99 0 153 86t54 234z" />
    <glyph glyph-name="guilsinglleft" unicode="&#x2039;" 
d="M633 575q171 -185 233 -387l-164 -53q-39 124 -107 226t-189 214q120 111 188.5 214t107.5 227l164 -53q-63 -203 -233 -388z" />
    <glyph glyph-name="guilsinglright" unicode="&#x203a;" 
d="M864 575q-121 -112 -190 -214t-107 -226l-164 53q62 200 234 387q-172 187 -234 388l164 53q39 -124 107.5 -226.5t189.5 -214.5z" />
    <glyph glyph-name="fraction" unicode="&#x2044;" 
d="M123 524v123h1024v-123h-1024z" />
    <glyph glyph-name="uni207A" unicode="&#x207a;" 
d="M954 1300v-118h-254v-267h-129v267h-256v118h256v254h129v-254h254z" />
    <glyph glyph-name="uni207B" unicode="&#x207b;" 
d="M377 1176v124h516v-124h-516z" />
    <glyph glyph-name="lira" unicode="&#x20a4;" 
d="M1024 748h174q0 -217 -89 -388t-247.5 -265.5t-359.5 -94.5h-174v698l-185 -67l-51 129l236 86v149l-185 -67l-51 131l236 86v289h174v-226l305 111l49 -131l-354 -129v-150l305 111l49 -131l-354 -129v-598q159 0 279 77.5t181.5 209.5t61.5 299z" />
    <glyph glyph-name="uni20A8" unicode="&#x20a8;" 
d="M1204 1434v-148h-317q99 -79 117 -203h200v-147h-198q-13 -112 -91 -192.5t-198 -110.5q131 -34 196 -234l129 -399h-204l-101 344q-37 130 -113 193t-198 63h-272v158h419q98 0 166.5 48t91.5 130h-677v147h682q-20 89 -90 140t-173 51h-419v160h1050z" />
    <glyph glyph-name="uni20A9" unicode="&#x20a9;" 
d="M1255 1004h-125l-12 -175h137v-149h-149l-51 -680h-242l-164 680h-28l-164 -680h-242l-51 680h-148v149h138l-13 175h-125v147h113l-20 283h165l19 -283h686l18 283h166l-20 -283h112v-147zM303 1004l12 -175h199l41 175h-252zM956 829l13 175h-252l41 -175h198zM358 180
l119 500h-151zM913 180l33 500h-151z" />
    <glyph glyph-name="Euro" unicode="&#x20ac;" 
d="M1001 487l166 -26q-32 -232 -154 -362t-306 -130q-190 0 -320.5 131t-177.5 367l-172 -18v149l153 16q-4 86 -4 103v45l-149 -14v149l164 16q37 260 170.5 405.5t335.5 145.5q174 0 301 -127q122 -122 157 -336l-166 -26q-29 158 -105.5 244t-186.5 86
q-125 0 -210.5 -97.5t-117.5 -275.5l403 41v-150l-420 -43q-2 -14 -2 -63q0 -68 2 -86l420 43v-150l-399 -41q35 -168 119 -260t205 -92q118 0 193 90t101 266z" />
    <glyph glyph-name="uni20BD" unicode="&#x20bd;" 
d="M735 588h-233v-150h397v-149h-397v-289h-174v289h-215v149h215v150h-215v149h215v697h407q192 0 317.5 -122.5t125.5 -305.5q0 -177 -125.5 -297.5t-317.5 -120.5zM502 1274v-537h219q133 0 208 72.5t75 196.5t-75 196t-208 72h-219z" />
    <glyph glyph-name="uni20BF" unicode="&#x20bf;" 
d="M803 6v-248h-174v242h-123v-242h-174v242h-178v1434h178v241h174v-241h123v241h174v-252q140 -29 224.5 -128t84.5 -232q0 -98 -49 -180.5t-131 -120.5q109 -43 172 -136t63 -214q0 -159 -99 -270t-265 -136zM328 1274v-438h364q116 0 181 61.5t65 165.5q0 95 -66 153
t-180 58h-364zM993 418q0 117 -76.5 187.5t-211.5 70.5h-377v-514h377q135 0 211.5 69t76.5 187z" />
    <glyph glyph-name="uni2117" unicode="&#x2117;" 
d="M88 657q0 249 154 411.5t393 162.5q117 0 219 -43.5t174.5 -119.5t114 -182.5t41.5 -228.5q0 -163 -70.5 -294t-196.5 -205t-282 -74q-116 -2 -219 41.5t-175.5 120t-113.5 184t-39 227.5zM1044 657q0 197 -113.5 321t-295.5 124q-183 0 -296.5 -124t-113.5 -321
t113.5 -320.5t296.5 -123.5t296 123t113 321zM455 322v671h219q110 0 178 -62.5t68 -166.5q0 -103 -68 -165t-178 -62h-103v-215h-116zM571 643h103q129 0 129 121q0 123 -129 123h-103v-244z" />
    <glyph glyph-name="trademark" unicode="&#x2122;" 
d="M51 1337v97h465v-97h-178v-583h-109v583h-178zM1069 1434h150v-680h-107v495l-158 -495h-102l-160 495v-495h-106v680h147l170 -529z" />
    <glyph glyph-name="oneeighth" unicode="&#x215b;" 
d="M711 909h286v-131h-725v131h297v531q-77 -83 -239 -123l-37 127q105 29 170.5 72t126.5 122h121v-729zM123 524v123h1024v-123h-1024zM973 -246q0 -115 -94 -188q-94 -76 -244 -76q-148 0 -242 76q-94 73 -94 188q0 67 38.5 125t100.5 88q-108 67 -108 183q0 103 86 170
t219 67q135 0 222 -67t87 -170q0 -119 -110 -183q63 -29 101 -87.5t38 -125.5zM471 143q0 -55 44.5 -87.5t119.5 -32.5q78 0 123 32t45 88q0 54 -46.5 86.5t-121.5 32.5q-73 0 -118.5 -32.5t-45.5 -86.5zM831 -238q0 66 -52.5 105t-143.5 39q-88 0 -141.5 -39t-53.5 -105
q0 -63 54.5 -102t140.5 -39q90 0 143 38.5t53 102.5z" />
    <glyph glyph-name="threeeighths" unicode="&#x215c;" 
d="M985 1040q0 -120 -97.5 -200t-234.5 -80q-152 0 -248.5 76t-119.5 215l139 26q13 -91 73.5 -139.5t155.5 -48.5q81 0 136 45.5t55 116.5q0 78 -55 117.5t-160 39.5h-140v95l302 204h-441v131h615l2 -141l-271 -186q131 -6 210 -77.5t79 -193.5zM123 524v123h1024v-123
h-1024zM973 -246q0 -115 -94 -188q-94 -76 -244 -76q-148 0 -242 76q-94 73 -94 188q0 67 38.5 125t100.5 88q-108 67 -108 183q0 103 86 170t219 67q135 0 222 -67t87 -170q0 -119 -110 -183q63 -29 101 -87.5t38 -125.5zM471 143q0 -55 44.5 -87.5t119.5 -32.5
q78 0 123 32t45 88q0 54 -46.5 86.5t-121.5 32.5q-73 0 -118.5 -32.5t-45.5 -86.5zM831 -238q0 66 -52.5 105t-143.5 39q-88 0 -141.5 -39t-53.5 -105q0 -63 54.5 -102t140.5 -39q90 0 143 38.5t53 102.5z" />
    <glyph glyph-name="fiveeighths" unicode="&#x215d;" 
d="M985 1059q0 -128 -99 -213.5t-243 -85.5q-136 0 -232.5 66.5t-125.5 179.5l135 36q47 -151 223 -151q85 0 143 47.5t58 120.5q0 70 -54.5 117t-138.5 47q-129 0 -215 -95l-127 33l94 477h504v-131h-385l-49 -221q82 60 191 60q138 0 229.5 -83t91.5 -204zM123 524v123
h1024v-123h-1024zM973 -246q0 -115 -94 -188q-94 -76 -244 -76q-148 0 -242 76q-94 73 -94 188q0 67 38.5 125t100.5 88q-108 67 -108 183q0 103 86 170t219 67q135 0 222 -67t87 -170q0 -119 -110 -183q63 -29 101 -87.5t38 -125.5zM471 143q0 -55 44.5 -87.5t119.5 -32.5
q78 0 123 32t45 88q0 54 -46.5 86.5t-121.5 32.5q-73 0 -118.5 -32.5t-45.5 -86.5zM831 -238q0 66 -52.5 105t-143.5 39q-88 0 -141.5 -39t-53.5 -105q0 -63 54.5 -102t140.5 -39q90 0 143 38.5t53 102.5z" />
    <glyph glyph-name="seveneighths" unicode="&#x215e;" 
d="M285 1638h700v-159q-188 -167 -270 -332q-84 -167 -99 -369h-149q15 209 115 404q102 193 258 325h-414v-131h-141v262zM123 524v123h1024v-123h-1024zM973 -246q0 -115 -94 -188q-94 -76 -244 -76q-148 0 -242 76q-94 73 -94 188q0 67 38.5 125t100.5 88
q-108 67 -108 183q0 103 86 170t219 67q135 0 222 -67t87 -170q0 -119 -110 -183q63 -29 101 -87.5t38 -125.5zM471 143q0 -55 44.5 -87.5t119.5 -32.5q78 0 123 32t45 88q0 54 -46.5 86.5t-121.5 32.5q-73 0 -118.5 -32.5t-45.5 -86.5zM831 -238q0 66 -52.5 105t-143.5 39
q-88 0 -141.5 -39t-53.5 -105q0 -63 54.5 -102t140.5 -39q90 0 143 38.5t53 102.5z" />
    <glyph glyph-name="arrowleft" unicode="&#x2190;" 
d="M51 707q182 105 322 226.5t268 285.5l125 -101q-95 -121 -177 -199.5t-173 -134.5h782v-153h-782q92 -60 174 -138t176 -196l-125 -102q-124 161 -265.5 283.5t-324.5 228.5z" />
    <glyph glyph-name="arrowup" unicode="&#x2191;" 
d="M1153 729l-100 -121q-124 99 -201.5 179t-134.5 167v-778h-162v780q-60 -90 -139.5 -172t-198.5 -176l-98 121q166 130 291 273t225 317q105 -180 228.5 -321t289.5 -269z" />
    <glyph glyph-name="arrowright" unicode="&#x2192;" 
d="M1239 707q-183 -106 -324.5 -228.5t-265.5 -283.5l-125 102q94 118 176 196t174 138h-782v153h782q-91 56 -173 134.5t-177 199.5l125 101q128 -164 268 -285.5t322 -226.5z" />
    <glyph glyph-name="arrowdown" unicode="&#x2193;" 
d="M1153 766q-166 -128 -289.5 -269t-228.5 -321q-100 174 -225 317t-291 273l98 121q119 -94 198.5 -176t139.5 -172v780h162v-778q57 87 134.5 167t201.5 179z" />
    <glyph glyph-name="arrowboth" unicode="&#x2194;" 
d="M1495 707q-187 -111 -325 -228.5t-265 -279.5l-117 96q102 126 185.5 205t175.5 135h-1028q93 -56 176 -135t184 -205l-116 -96q-127 162 -267.5 282t-322.5 226q177 103 317 221q148 125 273 286l116 -94q-99 -122 -182 -201t-176 -139h1024q-90 55 -171.5 133.5
t-187.5 206.5l117 94q132 -166 271 -284.5t319 -222.5z" />
    <glyph glyph-name="arrowupdn" unicode="&#x2195;" 
d="M1044 653l93 -112q-160 -126 -276.5 -266t-225.5 -330q-107 190 -224.5 331t-277.5 265l94 112q121 -100 199.5 -184t134.5 -174v907q-111 -180 -334 -358l-94 112q161 129 281.5 271.5t220.5 322.5q110 -187 221 -325q121 -143 281 -269l-93 -112q-124 101 -201 183
t-132 173v-905q58 93 135.5 177t197.5 181z" />
    <glyph glyph-name="uni2196" unicode="&#x2196;" 
d="M287 637q0 229 -72 514q273 -72 512 -72q120 0 266 19l15 -158q-140 -14 -234 -14q-140 0 -250 26l561 -557l-112 -110l-557 555q24 -114 24 -238q0 -89 -16 -246l-156 17q19 146 19 264z" />
    <glyph glyph-name="uni2197" unicode="&#x2197;" 
d="M983 637q0 -126 18 -264l-155 -17q-17 167 -17 246q0 119 25 238l-557 -555l-113 110l561 557q-110 -26 -249 -26q-94 0 -234 14l14 158q146 -19 267 -19q239 0 512 72q-72 -285 -72 -514z" />
    <glyph glyph-name="uni2198" unicode="&#x2198;" 
d="M983 811q0 -229 72 -514q-273 72 -512 72q-121 0 -267 -19l-14 158q140 14 234 14q139 0 249 -26l-561 557l113 110l557 -555q-25 119 -25 238q0 79 17 246l155 -17q-18 -138 -18 -264z" />
    <glyph glyph-name="uni2199" unicode="&#x2199;" 
d="M287 811q0 118 -19 264l156 17q16 -157 16 -246q0 -124 -24 -238l557 555l112 -110l-561 -557q110 26 250 26q94 0 234 -14l-15 -158q-146 19 -266 19q-239 0 -512 -72q72 285 72 514z" />
    <glyph glyph-name="uni21B3" unicode="&#x21b3;" 
d="M1239 707q-183 -106 -324.5 -228.5t-265.5 -283.5l-125 102q94 118 176 196t174 138h-782v803h164v-650h618q-91 56 -173 134.5t-177 199.5l125 101q128 -164 268 -285.5t322 -226.5z" />
    <glyph glyph-name="partialdiff" unicode="&#x2202;" 
d="M1157 717q0 -361 -140.5 -554.5t-402.5 -193.5q-217 0 -359 149t-142 378q0 217 139 353t358 136q200 0 365 -115q-25 208 -112.5 321.5t-223.5 113.5q-82 0 -146.5 -33t-136.5 -111l-118 119q91 94 188 139t213 45q239 0 378.5 -201.5t139.5 -545.5zM983 678
q-185 147 -373 147q-148 0 -235.5 -89t-87.5 -238q0 -157 94 -262t233 -105q357 0 369 547z" />
    <glyph glyph-name="emptyset" unicode="&#x2205;" 
d="M1239 719q0 -154 -74.5 -281.5t-206.5 -200.5t-292 -73q-183 0 -322 92l-135 -154l-98 80l135 154q-73 76 -112.5 175t-39.5 208q-3 152 73.5 281t209.5 203t289 71q178 0 321 -90l139 157l99 -79l-140 -158q154 -157 154 -385zM350 457l533 608q-98 55 -217 55
q-178 0 -293 -114.5t-115 -286.5q0 -153 92 -262zM1075 719q0 154 -94 264l-535 -608q94 -58 220 -58q178 0 293.5 115.5t115.5 286.5z" />
    <glyph glyph-name="product" unicode="&#x220f;" 
d="M330 -246v1520h-258v160h1126v-160h-258v-1520h-174v1520h-262v-1520h-174z" />
    <glyph glyph-name="summation" unicode="&#x2211;" 
d="M113 -246v150l583 690l-583 690v150h1044v-160h-813l565 -680l-565 -680h813v-160h-1044z" />
    <glyph glyph-name="minus" unicode="&#x2212;" 
d="M215 614v177h840v-177h-840z" />
    <glyph glyph-name="radical" unicode="&#x221a;" 
d="M309 696h-258v160h381l203 -610l405 1188h179l-500 -1434h-166z" />
    <glyph glyph-name="infinity" unicode="&#x221e;" 
d="M1245 684q0 -196 -94.5 -328.5t-230.5 -132.5q-96 0 -170.5 63.5t-112.5 176.5q-42 -114 -115.5 -177t-169.5 -63q-137 0 -231 132t-94 329q0 194 94 325.5t231 131.5q96 0 168.5 -62t114.5 -176q42 113 115.5 175.5t169.5 62.5q136 0 230.5 -131.5t94.5 -325.5zM565 684
q-23 151 -78 229t-135 78q-79 0 -131 -88q-51 -86 -51 -219q0 -134 52 -221.5t130 -87.5q82 0 137.5 79t75.5 230zM1100 684q0 131 -51 219t-129 88q-81 0 -137 -78.5t-76 -228.5q20 -151 75.5 -230t137.5 -79q76 0 128 87.5t52 221.5z" />
    <glyph glyph-name="integral" unicode="&#x222b;" 
d="M954 1434h152v-160h-148q-131 0 -183 -60t-52 -225v-1016q0 -223 -102 -328.5t-306 -105.5h-151v160h149q131 0 182.5 60t51.5 225v1015q0 223 101.5 329t305.5 106z" />
    <glyph glyph-name="approxequal" unicode="&#x2248;" 
d="M248 367l-150 47q32 129 118 200.5t208 71.5q64 0 119 -22t133 -70q59 -39 96.5 -55.5t73.5 -16.5q131 0 178 164l147 -47q-31 -129 -117 -200.5t-208 -71.5q-64 0 -118.5 21.5t-133.5 72.5q-106 69 -170 69q-127 0 -176 -163zM248 758l-150 47q32 129 118 200.5
t208 71.5q64 0 119 -22t133 -70q59 -39 96.5 -55.5t73.5 -16.5q131 0 178 164l147 -47q-31 -129 -117 -200.5t-208 -71.5q-64 0 -118.5 21.5t-133.5 72.5q-107 70 -170 70q-126 0 -176 -164z" />
    <glyph glyph-name="notequal" unicode="&#x2260;" 
d="M1055 827h-262l-140 -264h402v-176h-496l-147 -276l-127 65l112 211h-182v176h274l142 264h-416v177h510l137 260l127 -68l-102 -192h168v-177z" />
    <glyph glyph-name="lessequal" unicode="&#x2264;" 
d="M186 909l813 443l82 -142l-710 -385l710 -385l-82 -141l-813 442v168zM1071 162v-162h-885v162h885z" />
    <glyph glyph-name="greaterequal" unicode="&#x2265;" 
d="M270 1352l813 -443v-168l-813 -442l-82 141l711 385l-711 385zM199 0v162h884v-162h-884z" />
    <glyph glyph-name="lozenge" unicode="&#x25ca;" 
d="M547 0l-475 717l475 717h176l475 -717l-475 -717h-176zM635 156l366 561l-366 561l-367 -561z" />
    <glyph glyph-name="uniF8FF" unicode="&#xf8ff;" 
d="M35 -10v866q-2 124 44.5 236t127 191.5t192 125.5t234.5 45q125 1 237.5 -45t193 -125.5t127 -191.5t44.5 -236v-866h-57l-134 133l-139 -133l-129 133l-145 -133l-142 133l-129 -133l-137 133l-135 -133h-53zM520 772q0 62 -42 105t-103 43q-60 0 -103 -43.5t-43 -104.5
q0 -60 43 -101.5t103 -41.5t102.5 41.5t42.5 101.5zM1042 772q0 62 -43 105t-104 43q-60 0 -101.5 -43t-41.5 -105q0 -57 43 -100t100 -43q60 0 103.5 43t43.5 100z" />
    <glyph glyph-name="uniFEFF" unicode="&#xfeff;" horiz-adv-x="0" 
 />
    <glyph glyph-name="NULL" horiz-adv-x="0" 
 />
    <glyph glyph-name="E.salt" 
d="M154 0v1434h1003v-160h-829v-443h768v-155h-768v-514h829v-162h-1003z" />
    <glyph glyph-name="Eacute.salt" 
d="M154 0v1434h1003v-160h-829v-443h768v-155h-768v-514h829v-162h-1003zM586 1536l166 256h241l-229 -256h-178z" />
    <glyph glyph-name="Ebreve.salt" 
d="M154 0v1434h1003v-160h-829v-443h768v-155h-768v-514h829v-162h-1003zM420 1769h117q11 -55 49 -84.5t100 -29.5q128 0 152 114h114q0 -115 -73.5 -184t-192.5 -69t-192.5 69t-73.5 184z" />
    <glyph glyph-name="Ecaron.salt" 
d="M154 0v1434h1003v-160h-829v-443h768v-155h-768v-514h829v-162h-1003zM831 1808l125 -94l-139 -178h-262l-139 178l125 94l145 -184z" />
    <glyph glyph-name="uni0228.salt" 
d="M154 0v1434h1003v-160h-829v-443h768v-155h-768v-514h829v-162h-1003zM944 -268q0 -92 -64.5 -148.5t-172.5 -56.5q-86 0 -152.5 37.5t-101.5 105.5l110 64q26 -47 59.5 -66.5t84.5 -19.5q50 0 79 23.5t27 60.5q0 36 -28.5 57t-77.5 21q-53 0 -109 -35l-100 55l116 201
h127l-77 -133q42 10 75 10q88 0 146.5 -50.5t58.5 -125.5z" />
    <glyph glyph-name="Ecircumflex.salt" 
d="M154 0v1434h1003v-160h-829v-443h768v-155h-768v-514h829v-162h-1003zM956 1591l-125 -96l-145 186l-145 -186l-125 96l139 176h262z" />
    <glyph glyph-name="uni1EC6.salt" 
d="M154 0v1434h1003v-160h-829v-443h768v-155h-768v-514h829v-162h-1003zM580 -317v215h217v-215h-217zM956 1591l-125 -96l-145 186l-145 -186l-125 96l139 176h262z" />
    <glyph glyph-name="Edieresis.salt" 
d="M154 0v1434h1003v-160h-829v-443h768v-155h-768v-514h829v-162h-1003zM373 1536v209h209v-209h-209zM791 1536v209h208v-209h-208z" />
    <glyph glyph-name="Edotaccent.salt" 
d="M154 0v1434h1003v-160h-829v-443h768v-155h-768v-514h829v-162h-1003zM578 1536v215h217v-215h-217z" />
    <glyph glyph-name="uni1EB8.salt" 
d="M154 0v1434h1003v-160h-829v-443h768v-155h-768v-514h829v-162h-1003zM580 -317v215h217v-215h-217z" />
    <glyph glyph-name="Egrave.salt" 
d="M154 0v1434h1003v-160h-829v-443h768v-155h-768v-514h829v-162h-1003zM788 1536h-180l-227 256h242z" />
    <glyph glyph-name="Emacron.salt" 
d="M154 0v1434h1003v-160h-829v-443h768v-155h-768v-514h829v-162h-1003zM348 1536v139h676v-139h-676z" />
    <glyph glyph-name="Eogonek.salt" 
d="M154 0v1434h1003v-160h-829v-443h768v-155h-768v-514h829v-162h-1003zM657 -246q0 84 69 153.5t212 131.5l90 -39q-122 -69 -172.5 -118.5t-50.5 -100.5q0 -68 90 -68q83 0 190 64l64 -127q-139 -74 -254 -74q-109 0 -173.5 48t-64.5 130z" />
    <glyph glyph-name="uni018E.salt" 
d="M1116 0h-1003v162h829v514h-766v155h766v443h-829v160h1003v-1434z" />
    <glyph glyph-name="uni1EBC.salt" 
d="M154 0v1434h1003v-160h-829v-443h768v-155h-768v-514h829v-162h-1003zM662 1571q-78 35 -111 35q-57 0 -72 -70h-121q6 103 56 159t135 56q66 0 162 -45q13 -8 50 -20.5t62 -12.5q57 0 72 68h119q-4 -99 -55.5 -157t-133.5 -58q-58 0 -163 45z" />
    <glyph glyph-name="F.salt" 
d="M154 0v1434h1013v-160h-839v-477h778v-160h-778v-637h-174z" />
    <glyph glyph-name="G.salt" 
d="M588 721h579v-215q0 -148 -60.5 -269.5t-176 -194.5t-264.5 -73q-256 0 -404.5 201.5t-148.5 546.5q0 346 148.5 546.5t404.5 200.5q191 0 327 -127q138 -126 172 -336l-168 -26q-32 159 -118 244.5t-213 85.5q-177 0 -278 -156t-101 -432q0 -275 101 -430.5t278 -155.5
q148 0 237.5 107.5t89.5 267.5v53h-405v162z" />
    <glyph glyph-name="Gbreve.salt" 
d="M588 721h579v-215q0 -148 -60.5 -269.5t-176 -194.5t-264.5 -73q-256 0 -404.5 201.5t-148.5 546.5q0 346 148.5 546.5t404.5 200.5q191 0 327 -127q138 -126 172 -336l-168 -26q-32 159 -118 244.5t-213 85.5q-177 0 -278 -156t-101 -432q0 -275 101 -430.5t278 -155.5
q148 0 237.5 107.5t89.5 267.5v53h-405v162zM399 1800h117q11 -55 49.5 -84.5t100.5 -29.5q127 0 151 114h115q0 -115 -73.5 -184.5t-192.5 -69.5t-193 69.5t-74 184.5z" />
    <glyph glyph-name="Gcircumflex.salt" 
d="M588 721h579v-215q0 -148 -60.5 -269.5t-176 -194.5t-264.5 -73q-256 0 -404.5 201.5t-148.5 546.5q0 346 148.5 546.5t404.5 200.5q191 0 327 -127q138 -126 172 -336l-168 -26q-32 159 -118 244.5t-213 85.5q-177 0 -278 -156t-101 -432q0 -275 101 -430.5t278 -155.5
q148 0 237.5 107.5t89.5 267.5v53h-405v162zM936 1622l-125 -96l-145 186l-146 -186l-125 96l140 176h262z" />
    <glyph glyph-name="uni0122.salt" 
d="M588 721h579v-215q0 -148 -60.5 -269.5t-176 -194.5t-264.5 -73q-256 0 -404.5 201.5t-148.5 546.5q0 346 148.5 546.5t404.5 200.5q191 0 327 -127q138 -126 172 -336l-168 -26q-32 159 -118 244.5t-213 85.5q-177 0 -278 -156t-101 -432q0 -275 101 -430.5t278 -155.5
q148 0 237.5 107.5t89.5 267.5v53h-405v162zM569 -510v98q36 6 50 23.5t14 56.5h-76v201h215v-168q0 -94 -53 -148.5t-150 -62.5z" />
    <glyph glyph-name="Gdotaccent.salt" 
d="M588 721h579v-215q0 -148 -60.5 -269.5t-176 -194.5t-264.5 -73q-256 0 -404.5 201.5t-148.5 546.5q0 346 148.5 546.5t404.5 200.5q191 0 327 -127q138 -126 172 -336l-168 -26q-32 159 -118 244.5t-213 85.5q-177 0 -278 -156t-101 -432q0 -275 101 -430.5t278 -155.5
q148 0 237.5 107.5t89.5 267.5v53h-405v162zM557 1567v215h217v-215h-217z" />
    <glyph glyph-name="Q.salt" 
d="M999 -207v-149q-214 0 -339 90.5t-130 245.5q-201 38 -309 228t-108 509q0 358 136 552.5t386 194.5t386 -194.5t136 -552.5q0 -330 -115.5 -522.5t-330.5 -221.5q15 -177 288 -180zM635 131q172 0 260 148.5t88 437.5q0 288 -89 438t-259 150t-259 -150t-89 -438
q0 -289 88 -437.5t260 -148.5z" />
    <glyph glyph-name="R.salt" 
d="M1157 0h-190l-314 612h-325v-612h-174v1434h546q181 0 304.5 -118t123.5 -292q0 -140 -80 -246t-212 -145zM328 1274v-500h358q120 0 194 67.5t74 182.5t-74 182.5t-194 67.5h-358z" />
    <glyph glyph-name="Racute.salt" 
d="M1157 0h-190l-314 612h-325v-612h-174v1434h546q181 0 304.5 -118t123.5 -292q0 -140 -80 -246t-212 -145zM328 1274v-500h358q120 0 194 67.5t74 182.5t-74 182.5t-194 67.5h-358zM473 1536l166 256h242l-230 -256h-178z" />
    <glyph glyph-name="Rcaron.salt" 
d="M1157 0h-190l-314 612h-325v-612h-174v1434h546q181 0 304.5 -118t123.5 -292q0 -140 -80 -246t-212 -145zM328 1274v-500h358q120 0 194 67.5t74 182.5t-74 182.5t-194 67.5h-358zM719 1808l125 -94l-139 -178h-263l-139 178l125 94l145 -184z" />
    <glyph glyph-name="uni0156.salt" 
d="M1157 0h-190l-314 612h-325v-612h-174v1434h546q181 0 304.5 -118t123.5 -292q0 -140 -80 -246t-212 -145zM328 1274v-500h358q120 0 194 67.5t74 182.5t-74 182.5t-194 67.5h-358zM539 -481v98q36 6 49.5 23.5t13.5 56.5h-76v201h215v-168q0 -94 -52.5 -148.5
t-149.5 -62.5z" />
    <glyph glyph-name="Adieresis.ss03" 
d="M1044 0l-133 395h-551l-133 -395h-176l416 1194h47v133l37 107h172l37 -107v-133h45l414 -1194h-175zM483 1434v-209h-209v209h209zM999 1434v-209h-208v209h208zM412 547h448l-223 672z" />
    <glyph glyph-name="Odieresis.ss03" 
d="M113 717q0 286 90 477h139v174q122 96 293 96t293 -96v-174h139q90 -191 90 -477q0 -358 -136 -553t-386 -195t-386 195t-136 553zM102 1225v209h209v-209h-209zM958 1225v209h209v-209h-209zM983 717q0 288 -89 438t-259 150t-259 -150t-89 -438q0 -289 88 -437.5
t260 -148.5t260 148.5t88 437.5z" />
    <glyph glyph-name="Udieresis.ss03" 
d="M143 500v934h99v-240h75v-684q0 -188 81 -283.5t237 -95.5q317 0 317 379v684h78v240h96v-934q0 -250 -130.5 -390.5t-358.5 -140.5q-230 0 -362 141t-132 390zM272 1225v209h209v-209h-209zM791 1225v209h208v-209h-208z" />
    <glyph glyph-name="i.locl" 
d="M164 0v152h399v784h-348v149h512v-933h379v-152h-942zM537 1239v219h217v-219h-217z" />
    <glyph glyph-name="A.ordn" 
d="M952 895l19 -109q-58 -10 -84 -10q-92 0 -129 78q-32 -41 -90 -64.5t-127 -23.5q-106 0 -173 52.5t-67 137.5q0 82 56 130t180 73q122 25 157 42.5t35 53.5t-37.5 59t-97.5 23q-70 0 -117.5 -35.5t-54.5 -95.5l-121 21q13 98 95 159.5t198 61.5q119 0 188.5 -56
t69.5 -153v-291q0 -59 47 -59q26 0 53 6zM729 1004v120q-13 -17 -44.5 -28.5t-115.5 -32.5q-79 -20 -111 -42.5t-32 -57.5q0 -41 31.5 -62.5t89.5 -21.5q80 0 131 35t51 90z" />
    <glyph glyph-name="B.locl" 
d="M952 1104q0 -154 -86.5 -249t-226.5 -95q-125 0 -195 76v-58h-125v860h127v-260q70 70 193 70q140 0 226.5 -95t86.5 -249zM823 1104q0 106 -51.5 166.5t-142.5 60.5q-82 0 -132.5 -46t-50.5 -120v-118q0 -75 51.5 -122.5t133.5 -47.5q88 0 140 61.5t52 165.5z" />
    <glyph glyph-name="C.locl" 
d="M303 1104q0 151 96.5 247.5t243.5 96.5q122 0 210.5 -61.5t113.5 -165.5l-125 -29q-19 66 -72 102.5t-127 36.5q-94 0 -153.5 -63.5t-59.5 -163.5t59.5 -163.5t153.5 -63.5q76 0 129 38.5t70 110.5l125 -27q-23 -111 -111 -175t-213 -64q-147 0 -243.5 97t-96.5 247z" />
    <glyph glyph-name="D.locl" 
d="M823 1638h129v-860h-127v58q-70 -76 -196 -76q-136 0 -223 96t-87 248t87 248t223 96q122 0 194 -72v262zM823 1047v118q0 74 -50.5 120t-131.5 46q-91 0 -143 -60.5t-52 -166.5q0 -104 52.5 -165.5t140.5 -61.5q82 0 133 47.5t51 122.5z" />
    <glyph glyph-name="E.locl" 
d="M635 870q73 0 122 31t85 96l102 -63q-43 -82 -123.5 -128t-185.5 -46q-148 0 -237 94.5t-89 249.5t89 249.5t237 94.5t239 -94.5t91 -249.5v-47h-531q12 -87 66 -137t135 -50zM434 1155h404q-4 84 -60 133t-143 49t-141.5 -50.5t-59.5 -131.5z" />
    <glyph glyph-name="F.locl" 
d="M653 1415v-67h320v-117h-320v-453h-127v453h-225v117h225v82q0 104 59.5 165.5t162.5 61.5q102 0 225 -66l-55 -102q-92 51 -162 51q-103 0 -103 -125z" />
    <glyph glyph-name="G.locl" 
d="M950 674q0 -91 -84.5 -141t-236.5 -50q-148 0 -234 49.5t-86 135.5q0 41 25 78.5t69 62.5q-67 40 -67 111q0 73 76 116q-66 72 -66 166q0 109 78.5 177.5t202.5 68.5q62 0 129 -23q48 112 174 140l35 -105q-106 -27 -136 -80q82 -70 82 -178q0 -109 -78.5 -177.5
t-205.5 -68.5q-80 0 -144 31q-37 -21 -37 -51q0 -61 123 -70l164 -16q105 -11 161 -55t56 -121zM469 1202q0 -62 43 -99.5t115 -37.5q73 0 117 37.5t44 99.5t-44 100.5t-117 38.5t-115.5 -38.5t-42.5 -100.5zM827 680q0 67 -118 76l-160 14l-39 4q-37 -10 -58.5 -36
t-21.5 -58q0 -42 51.5 -65t147.5 -23q198 0 198 88z" />
    <glyph glyph-name="H.locl" 
d="M942 1178v-400h-129v383q0 170 -170 170q-85 0 -135.5 -47t-50.5 -125v-381h-127v860h127v-272q32 38 88.5 60t122.5 22q120 0 197 -74t77 -196z" />
    <glyph glyph-name="I.ordn" 
d="M567 1516v143h150v-143h-150zM334 778v117h244v418h-209v117h338v-535h233v-117h-606z" />
    <glyph glyph-name="J.ordn" 
d="M754 1516v143h149v-143h-149zM365 639l71 96q101 -73 197 -73q69 0 107 41.5t38 119.5v490h-309v117h438v-615q0 -124 -73 -197t-195 -73q-75 0 -147.5 25t-126.5 69z" />
    <glyph glyph-name="K.locl" 
d="M801 778l-223 299l-132 -135v-164h-127v860h127v-528l308 320h166l-263 -271l295 -381h-151z" />
    <glyph glyph-name="L.locl" 
d="M334 778v117h244v627h-201v116h330v-743h233v-117h-606z" />
    <glyph glyph-name="M.locl" 
d="M987 1268v-490h-123v475q0 40 -23.5 62t-62.5 22q-37 0 -60.5 -23t-23.5 -61v-475h-116v475q0 38 -24 61t-62 23q-37 0 -60.5 -23t-23.5 -61v-475h-123v652h116v-46q42 60 131 60q91 0 136 -58q51 58 137 58q81 0 131.5 -49t50.5 -127z" />
    <glyph glyph-name="N.locl" 
d="M942 1178v-400h-129v383q0 170 -170 170q-85 0 -135.5 -47t-50.5 -125v-381h-127v652h125v-66q36 39 92 61.5t121 22.5q120 0 197 -74t77 -196z" />
    <glyph glyph-name="O.ordn" 
d="M307 1104q0 157 89.5 250.5t238.5 93.5t239.5 -93.5t90.5 -250.5q0 -155 -91 -249.5t-239 -94.5t-238 94.5t-90 249.5zM836 1104q0 105 -54 166t-147 61t-147 -61t-54 -166q0 -104 54 -165.5t147 -61.5t147 61.5t54 165.5z" />
    <glyph glyph-name="P.locl" 
d="M950 1104q0 -155 -85 -249.5t-222 -94.5q-123 0 -192 69v-327h-129v928h127v-52q77 70 194 70q136 0 221.5 -95.5t85.5 -248.5zM821 1104q0 103 -51.5 165t-136.5 62q-78 0 -130 -47t-52 -119v-118q0 -74 51.5 -122t130.5 -48q85 0 136.5 62t51.5 165z" />
    <glyph glyph-name="Q.locl" 
d="M823 1430h127v-928h-129v327q-31 -31 -83 -50t-111 -19q-137 0 -221 94.5t-84 249.5t84 249.5t221 94.5q116 0 196 -70v52zM821 1047v118q0 72 -52 119t-132 47q-85 0 -135.5 -62t-50.5 -165q0 -101 51 -164t135 -63q81 0 132.5 48t51.5 122z" />
    <glyph glyph-name="R.locl" 
d="M616 1184v-289h244v-117h-553v117h182v418h-182v117h301v-60q20 36 63 57t93 21q96 0 201 -78l-64 -102q-91 63 -160 63q-57 0 -91 -39t-34 -108z" />
    <glyph glyph-name="S.locl" 
d="M309 993l119 25q12 -67 76 -107.5t155 -40.5q85 0 133 23.5t48 64.5q0 40 -42 58t-149 33q-53 8 -83.5 14t-69 16.5t-60 23.5t-42.5 33t-31.5 48t-12.5 65q0 86 78.5 142.5t196.5 56.5t204 -57q92 -56 113 -146l-119 -28q-13 55 -70 88.5t-128 33.5q-62 0 -105 -26.5
t-43 -63.5q0 -39 41.5 -56t147.5 -32q57 -9 84 -14.5t68 -16t61 -23t42 -32.5t32 -47.5t12 -64.5q0 -93 -83 -148t-223 -55q-135 0 -235 63q-100 65 -115 170z" />
    <glyph glyph-name="T.locl" 
d="M915 930l60 -101q-106 -69 -240 -69q-97 0 -155 57t-58 156v340h-225v117h225v172l127 36v-208h320v-117h-320v-328q0 -108 107 -108q70 0 159 53z" />
    <glyph glyph-name="U.locl" 
d="M815 1430h129v-652h-127v66q-33 -39 -90 -61.5t-125 -22.5q-118 0 -195 75t-77 197v398h129v-381q0 -172 170 -172q84 0 135 48t51 124v381z" />
    <glyph glyph-name="V.locl" 
d="M569 778l-295 652h144l217 -494l219 494h143l-295 -652h-133z" />
    <glyph glyph-name="W.locl" 
d="M883 1430h116l-112 -652h-123l-129 469l-127 -469h-125l-111 652h117l74 -443l119 443h108l117 -447z" />
    <glyph glyph-name="X.locl" 
d="M997 778h-149l-213 262l-215 -262h-146l281 336l-264 316h147l197 -238l196 238h148l-262 -316z" />
    <glyph glyph-name="Y.locl" 
d="M854 1430h143l-374 -744q-30 -56 -66.5 -79t-101.5 -23q-47 0 -117 12l20 113q50 -9 86 -9q31 0 46.5 9.5t27.5 35.5l49 101l-293 584h144l217 -445z" />
    <glyph glyph-name="Z.locl" 
d="M328 778v109l434 426h-424v117h596v-109l-436 -426h448v-117h-618z" />
    <glyph glyph-name="f.salt" 
d="M401 0v696h-288v152h288v209q0 188 103 297.5t274 109.5q158 0 256.5 -92.5t122.5 -255.5l-158 -24q-37 223 -221 223q-100 0 -156.5 -68.5t-56.5 -197.5v-201h547v-152h-547v-696h-164z" />
    <glyph glyph-name="g.salt" 
d="M942 1085h164v-1153q0 -181 -129 -302.5t-326 -121.5q-167 0 -285.5 85t-162.5 227l151 53q33 -104 108 -160.5t189 -56.5q128 0 209.5 80.5t81.5 204.5v161q-55 -61 -142 -97t-184 -36q-220 0 -356.5 160t-136.5 414q0 256 137 414.5t356 158.5q101 0 187.5 -36.5
t138.5 -98.5v104zM942 442v211q0 140 -88 227t-229 87q-155 0 -246.5 -114.5t-91.5 -309.5q0 -192 91.5 -307t246.5 -115q143 0 230 87.5t87 233.5z" />
    <glyph glyph-name="gbreve.salt" 
d="M942 1085h164v-1153q0 -181 -129 -302.5t-326 -121.5q-167 0 -285.5 85t-162.5 227l151 53q33 -104 108 -160.5t189 -56.5q128 0 209.5 80.5t81.5 204.5v161q-55 -61 -142 -97t-184 -36q-220 0 -356.5 160t-136.5 414q0 256 137 414.5t356 158.5q101 0 187.5 -36.5
t138.5 -98.5v104zM942 442v211q0 140 -88 227t-229 87q-155 0 -246.5 -114.5t-91.5 -309.5q0 -192 91.5 -307t246.5 -115q143 0 230 87.5t87 233.5zM371 1452h116q11 -55 49.5 -85t100.5 -30q127 0 151 115h115q0 -115 -73.5 -184.5t-192.5 -69.5t-192.5 69.5t-73.5 184.5z
" />
    <glyph glyph-name="gcircumflex.salt" 
d="M942 1085h164v-1153q0 -181 -129 -302.5t-326 -121.5q-167 0 -285.5 85t-162.5 227l151 53q33 -104 108 -160.5t189 -56.5q128 0 209.5 80.5t81.5 204.5v161q-55 -61 -142 -97t-184 -36q-220 0 -356.5 160t-136.5 414q0 256 137 414.5t356 158.5q101 0 187.5 -36.5
t138.5 -98.5v104zM942 442v211q0 140 -88 227t-229 87q-155 0 -246.5 -114.5t-91.5 -309.5q0 -192 91.5 -307t246.5 -115q143 0 230 87.5t87 233.5zM907 1274l-125 -96l-145 186l-145 -186l-125 96l139 176h262z" />
    <glyph glyph-name="uni0123.salt" 
d="M942 1085h164v-1153q0 -181 -129 -302.5t-326 -121.5q-167 0 -285.5 85t-162.5 227l151 53q33 -104 108 -160.5t189 -56.5q128 0 209.5 80.5t81.5 204.5v161q-55 -61 -142 -97t-184 -36q-220 0 -356.5 160t-136.5 414q0 256 137 414.5t356 158.5q101 0 187.5 -36.5
t138.5 -98.5v104zM942 442v211q0 140 -88 227t-229 87q-155 0 -246.5 -114.5t-91.5 -309.5q0 -192 91.5 -307t246.5 -115q143 0 230 87.5t87 233.5zM733 1573v-92q-36 -6 -49.5 -22.5t-13.5 -53.5h75v-193h-215v160q0 90 53 141.5t150 59.5z" />
    <glyph glyph-name="gdotaccent.salt" 
d="M942 1085h164v-1153q0 -181 -129 -302.5t-326 -121.5q-167 0 -285.5 85t-162.5 227l151 53q33 -104 108 -160.5t189 -56.5q128 0 209.5 80.5t81.5 204.5v161q-55 -61 -142 -97t-184 -36q-220 0 -356.5 160t-136.5 414q0 256 137 414.5t356 158.5q101 0 187.5 -36.5
t138.5 -98.5v104zM942 442v211q0 140 -88 227t-229 87q-155 0 -246.5 -114.5t-91.5 -309.5q0 -192 91.5 -307t246.5 -115q143 0 230 87.5t87 233.5zM528 1219v215h217v-215h-217z" />
    <glyph glyph-name="j.salt" 
d="M113 -117l161 25q17 -118 87 -184t176 -66q128 0 195 87.5t67 254.5v936h-520v149h684v-1093q0 -227 -114 -355.5t-312 -128.5q-170 0 -287 105q-116 104 -137 270zM772 1188v215h217v-215h-217z" />
    <glyph glyph-name="uni0237.salt" 
d="M113 -117l161 25q17 -118 87 -184t176 -66q128 0 195 87.5t67 254.5v936h-520v149h684v-1093q0 -227 -114 -355.5t-312 -128.5q-170 0 -287 105q-116 104 -137 270z" />
    <glyph glyph-name="jcircumflex.salt" 
d="M113 -117l161 25q17 -118 87 -184t176 -66q128 0 195 87.5t67 254.5v936h-520v149h684v-1093q0 -227 -114 -355.5t-312 -128.5q-170 0 -287 105q-116 104 -137 270zM1151 1243l-125 -96l-145 186l-146 -186l-125 96l140 176h262z" />
    <glyph glyph-name="r.salt" 
d="M586 680v-528h395v-152h-858v152h299v784h-299v149h455v-102q32 60 98 96.5t141 36.5q137 0 224 -99t106 -276l-162 -22q-27 248 -190 248q-94 0 -151.5 -79t-57.5 -208z" />
    <glyph glyph-name="racute.salt" 
d="M586 680v-528h395v-152h-858v152h299v784h-299v149h455v-102q32 60 98 96.5t141 36.5q137 0 224 -99t106 -276l-162 -22q-27 248 -190 248q-94 0 -151.5 -79t-57.5 -208zM537 1219l165 256h242l-229 -256h-178z" />
    <glyph glyph-name="rcaron.salt" 
d="M586 680v-528h395v-152h-858v152h299v784h-299v149h455v-102q32 60 98 96.5t141 36.5q137 0 224 -99t106 -276l-162 -22q-27 248 -190 248q-94 0 -151.5 -79t-57.5 -208zM782 1491l125 -94l-139 -178h-262l-139 178l125 94l145 -184z" />
    <glyph glyph-name="uni0157.salt" 
d="M586 680v-528h395v-152h-858v152h299v784h-299v149h455v-102q32 60 98 96.5t141 36.5q137 0 224 -99t106 -276l-162 -22q-27 248 -190 248q-94 0 -151.5 -79t-57.5 -208zM457 -481v98q36 6 49.5 23.5t13.5 56.5h-76v201h215v-168q0 -94 -52.5 -148.5t-149.5 -62.5z" />
    <glyph glyph-name="longs.salt" 
d="M420 0v696h-307v152h307v229q0 178 102 282.5t271 104.5q142 0 243 -95t121 -245l-158 -26q-13 101 -70 159t-136 58q-99 0 -154 -62t-55 -184v-1069h-164z" />
    <glyph glyph-name="t.salt" 
d="M446 1434h164v-349h504v-149h-504v-584q0 -122 44 -176.5t139 -54.5q82 0 130.5 53.5t80.5 169.5l153 -39q-77 -336 -364 -336q-166 0 -256.5 98t-90.5 281v588h-333v149h333v349z" />
    <glyph glyph-name="tbar.salt" 
d="M1004 344l153 -39q-77 -336 -364 -336q-166 0 -256.5 98t-90.5 281v193h-333v139h333v256h-333v149h333v349h164v-349h504v-149h-504v-256h504v-139h-504v-189q0 -122 44 -176.5t139 -54.5q82 0 130.5 53.5t80.5 169.5z" />
    <glyph glyph-name="tcaron.salt" 
d="M446 1434h164v-349h504v-149h-504v-584q0 -122 44 -176.5t139 -54.5q82 0 130.5 53.5t80.5 169.5l153 -39q-77 -336 -364 -336q-166 0 -256.5 98t-90.5 281v588h-333v149h333v349zM768 1180v98q36 6 49.5 23.5t13.5 56.5h-75v201h215v-168q0 -94 -53 -148.5t-150 -62.5z
" />
    <glyph glyph-name="uni0163.salt" 
d="M446 1434h164v-349h504v-149h-504v-584q0 -122 44 -176.5t139 -54.5q82 0 130.5 53.5t80.5 169.5l153 -39q-77 -336 -364 -336q-166 0 -256.5 98t-90.5 281v588h-333v149h333v349zM1030 -297q0 -92 -64.5 -148.5t-172.5 -56.5q-86 0 -152 38t-102 106l110 63
q26 -47 59.5 -66.5t84.5 -19.5q50 0 79 23.5t27 60.5q0 36 -28.5 57t-77.5 21q-53 0 -109 -35l-100 55l116 201h127l-77 -133q42 10 75 10q88 0 146.5 -50.5t58.5 -125.5z" />
    <glyph glyph-name="uni021B.salt" 
d="M446 1434h164v-349h504v-149h-504v-584q0 -122 44 -176.5t139 -54.5q82 0 130.5 53.5t80.5 169.5l153 -39q-77 -336 -364 -336q-166 0 -256.5 98t-90.5 281v588h-333v149h333v349zM676 -510v98q36 6 49.5 23.5t13.5 56.5h-75v201h215v-168q0 -94 -53 -148.5t-150 -62.5z
" />
    <glyph glyph-name="uni1E6D.salt" 
d="M446 1434h164v-349h504v-149h-504v-584q0 -122 44 -176.5t139 -54.5q82 0 130.5 53.5t80.5 169.5l153 -39q-77 -336 -364 -336q-166 0 -256.5 98t-90.5 281v588h-333v149h333v349zM666 -346v215h217v-215h-217z" />
    <glyph glyph-name="a.ss02" 
d="M942 1085h164v-1085h-164v104q-55 -62 -142 -98.5t-184 -36.5q-220 0 -356.5 160t-136.5 414q0 256 137 414.5t356 158.5q101 0 187.5 -36.5t138.5 -98.5v104zM942 442v211q0 140 -88 227t-229 87q-155 0 -246.5 -114.5t-91.5 -309.5q0 -192 91.5 -307t246.5 -115
q143 0 230 87.5t87 233.5z" />
    <glyph glyph-name="aacute.ss02" 
d="M942 1085h164v-1085h-164v104q-55 -62 -142 -98.5t-184 -36.5q-220 0 -356.5 160t-136.5 414q0 256 137 414.5t356 158.5q101 0 187.5 -36.5t138.5 -98.5v104zM942 442v211q0 140 -88 227t-229 87q-155 0 -246.5 -114.5t-91.5 -309.5q0 -192 91.5 -307t246.5 -115
q143 0 230 87.5t87 233.5zM530 1219l166 256h242l-229 -256h-179z" />
    <glyph glyph-name="abreve.ss02" 
d="M942 1085h164v-1085h-164v104q-55 -62 -142 -98.5t-184 -36.5q-220 0 -356.5 160t-136.5 414q0 256 137 414.5t356 158.5q101 0 187.5 -36.5t138.5 -98.5v104zM942 442v211q0 140 -88 227t-229 87q-155 0 -246.5 -114.5t-91.5 -309.5q0 -192 91.5 -307t246.5 -115
q143 0 230 87.5t87 233.5zM365 1452h116q11 -55 49.5 -85t100.5 -30q127 0 151 115h115q0 -115 -73.5 -184.5t-192.5 -69.5t-192.5 69.5t-73.5 184.5z" />
    <glyph glyph-name="uni01CE.ss02" 
d="M942 1085h164v-1085h-164v104q-55 -62 -142 -98.5t-184 -36.5q-220 0 -356.5 160t-136.5 414q0 256 137 414.5t356 158.5q101 0 187.5 -36.5t138.5 -98.5v104zM942 442v211q0 140 -88 227t-229 87q-155 0 -246.5 -114.5t-91.5 -309.5q0 -192 91.5 -307t246.5 -115
q143 0 230 87.5t87 233.5zM776 1491l125 -94l-139 -178h-262l-140 178l125 94l146 -184z" />
    <glyph glyph-name="acircumflex.ss02" 
d="M942 1085h164v-1085h-164v104q-55 -62 -142 -98.5t-184 -36.5q-220 0 -356.5 160t-136.5 414q0 256 137 414.5t356 158.5q101 0 187.5 -36.5t138.5 -98.5v104zM942 442v211q0 140 -88 227t-229 87q-155 0 -246.5 -114.5t-91.5 -309.5q0 -192 91.5 -307t246.5 -115
q143 0 230 87.5t87 233.5zM901 1274l-125 -96l-145 186l-146 -186l-125 96l140 176h262z" />
    <glyph glyph-name="uni1EAD.ss02" 
d="M942 1085h164v-1085h-164v104q-55 -62 -142 -98.5t-184 -36.5q-220 0 -356.5 160t-136.5 414q0 256 137 414.5t356 158.5q101 0 187.5 -36.5t138.5 -98.5v104zM942 442v211q0 140 -88 227t-229 87q-155 0 -246.5 -114.5t-91.5 -309.5q0 -192 91.5 -307t246.5 -115
q143 0 230 87.5t87 233.5zM535 -346v215h217v-215h-217zM901 1274l-125 -96l-145 186l-146 -186l-125 96l140 176h262z" />
    <glyph glyph-name="adieresis.ss02" 
d="M942 1085h164v-1085h-164v104q-55 -62 -142 -98.5t-184 -36.5q-220 0 -356.5 160t-136.5 414q0 256 137 414.5t356 158.5q101 0 187.5 -36.5t138.5 -98.5v104zM942 442v211q0 140 -88 227t-229 87q-155 0 -246.5 -114.5t-91.5 -309.5q0 -192 91.5 -307t246.5 -115
q143 0 230 87.5t87 233.5zM317 1219v208h209v-208h-209zM735 1219v208h209v-208h-209z" />
    <glyph glyph-name="uni01DF.ss02" 
d="M942 1085h164v-1085h-164v104q-55 -62 -142 -98.5t-184 -36.5q-220 0 -356.5 160t-136.5 414q0 256 137 414.5t356 158.5q101 0 187.5 -36.5t138.5 -98.5v104zM942 442v211q0 140 -88 227t-229 87q-155 0 -246.5 -114.5t-91.5 -309.5q0 -192 91.5 -307t246.5 -115
q143 0 230 87.5t87 233.5zM317 1219v208h209v-208h-209zM735 1219v208h209v-208h-209zM293 1497v139h676v-139h-676z" />
    <glyph glyph-name="uni1EA1.ss02" 
d="M942 1085h164v-1085h-164v104q-55 -62 -142 -98.5t-184 -36.5q-220 0 -356.5 160t-136.5 414q0 256 137 414.5t356 158.5q101 0 187.5 -36.5t138.5 -98.5v104zM942 442v211q0 140 -88 227t-229 87q-155 0 -246.5 -114.5t-91.5 -309.5q0 -192 91.5 -307t246.5 -115
q143 0 230 87.5t87 233.5zM524 -346v215h217v-215h-217z" />
    <glyph glyph-name="agrave.ss02" 
d="M942 1085h164v-1085h-164v104q-55 -62 -142 -98.5t-184 -36.5q-220 0 -356.5 160t-136.5 414q0 256 137 414.5t356 158.5q101 0 187.5 -36.5t138.5 -98.5v104zM942 442v211q0 140 -88 227t-229 87q-155 0 -246.5 -114.5t-91.5 -309.5q0 -192 91.5 -307t246.5 -115
q143 0 230 87.5t87 233.5zM733 1219h-180l-227 256h241z" />
    <glyph glyph-name="amacron.ss02" 
d="M942 1085h164v-1085h-164v104q-55 -62 -142 -98.5t-184 -36.5q-220 0 -356.5 160t-136.5 414q0 256 137 414.5t356 158.5q101 0 187.5 -36.5t138.5 -98.5v104zM942 442v211q0 140 -88 227t-229 87q-155 0 -246.5 -114.5t-91.5 -309.5q0 -192 91.5 -307t246.5 -115
q143 0 230 87.5t87 233.5zM293 1219v139h676v-139h-676z" />
    <glyph glyph-name="aogonek.ss02" 
d="M942 1085h164v-1085h-164v104q-55 -62 -142 -98.5t-184 -36.5q-220 0 -356.5 160t-136.5 414q0 256 137 414.5t356 158.5q101 0 187.5 -36.5t138.5 -98.5v104zM942 442v211q0 140 -88 227t-229 87q-155 0 -246.5 -114.5t-91.5 -309.5q0 -192 91.5 -307t246.5 -115
q143 0 230 87.5t87 233.5zM735 -246q0 84 69 153.5t212 131.5l90 -39q-122 -69 -172.5 -118.5t-50.5 -100.5q0 -68 90 -68q83 0 190 64l64 -127q-139 -74 -254 -74q-109 0 -173.5 48t-64.5 130z" />
    <glyph glyph-name="aring.ss02" 
d="M942 1085h164v-1085h-164v104q-55 -62 -142 -98.5t-184 -36.5q-220 0 -356.5 160t-136.5 414q0 194 79 334t220 200q-60 66 -60 152q0 97 68 158t174 61t175 -61.5t69 -157.5q0 -81 -53 -146q96 -42 147 -102v104zM494 1229q0 -50 30.5 -81.5t79.5 -31.5t80 31.5t31 81.5
t-30 80t-81 30q-50 0 -80 -30.5t-30 -79.5zM942 442v211q0 140 -88 227t-229 87q-155 0 -246.5 -114.5t-91.5 -309.5q0 -192 91.5 -307t246.5 -115q143 0 230 87.5t87 233.5z" />
    <glyph glyph-name="aringacute.ss02" 
d="M516 1417l166 256h242l-230 -256h-178zM942 1085h164v-1085h-164v104q-55 -62 -142 -98.5t-184 -36.5q-220 0 -356.5 160t-136.5 414q0 194 79 334t220 200q-60 66 -60 152q0 97 68 158t174 61t175 -61.5t69 -157.5q0 -81 -53 -146q96 -42 147 -102v104zM494 1229
q0 -50 30.5 -81.5t79.5 -31.5t80 31.5t31 81.5t-30 80t-81 30q-50 0 -80 -30.5t-30 -79.5zM942 442v211q0 140 -88 227t-229 87q-155 0 -246.5 -114.5t-91.5 -309.5q0 -192 91.5 -307t246.5 -115q143 0 230 87.5t87 233.5z" />
    <glyph glyph-name="atilde.ss02" 
d="M942 1085h164v-1085h-164v104q-55 -62 -142 -98.5t-184 -36.5q-220 0 -356.5 160t-136.5 414q0 256 137 414.5t356 158.5q101 0 187.5 -36.5t138.5 -98.5v104zM942 442v211q0 140 -88 227t-229 87q-155 0 -246.5 -114.5t-91.5 -309.5q0 -192 91.5 -307t246.5 -115
q143 0 230 87.5t87 233.5zM606 1253q-78 35 -110 35q-57 0 -72 -69h-121q6 103 56 159t135 56q65 0 161 -45q13 -8 50.5 -20.5t62.5 -12.5q57 0 72 67h118q-4 -99 -55 -157t-133 -58q-59 0 -164 45z" />
    <glyph glyph-name="zero.locl" 
d="M1157 717q0 -358 -136 -553t-386 -195t-386 195t-136 553t136 552.5t386 194.5t386 -194.5t136 -552.5zM362 301l439 956q-73 48 -166 48q-170 0 -259 -150t-89 -438q0 -269 75 -416zM983 717q0 265 -78 418l-438 -957q71 -47 168 -47q172 0 260 148.5t88 437.5z" />
    <glyph glyph-name="one.locl" 
d="M725 162h473v-162h-1126v162h479v987q-66 -74 -167.5 -131.5t-223.5 -89.5l-47 155q170 53 272 129q99 75 190 222h150v-1272z" />
    <glyph glyph-name="two.locl" 
d="M692 508q-135 -55 -205 -92q-175 -91 -188 -254h840v-162h-1018v104q0 162 67 263q69 102 168 161q99 58 258 123q124 50 203 94q176 97 176 265q0 127 -98 211t-242 84q-171 0 -274 -92t-103 -242q0 -93 48 -201l-164 -55q-58 131 -58 256q0 218 153.5 355.5
t397.5 137.5q218 0 366 -129.5t148 -324.5q0 -145 -65 -240q-64 -94 -160 -147q-102 -57 -250 -115z" />
    <glyph glyph-name="three.locl" 
d="M1167 444q0 -135 -70 -244.5t-188.5 -170t-259.5 -60.5q-233 0 -381.5 124.5t-185.5 355.5l170 30q26 -172 127.5 -260t267.5 -88q144 0 245 87t101 226q0 153 -97.5 231.5t-289.5 78.5h-198v127l503 393h-723v160h949v-177l-482 -366h4q238 0 373 -118.5t135 -328.5z
" />
    <glyph glyph-name="four.locl" 
d="M821 0v303h-749v176q241 206 377 428q139 226 194 527h176q-55 -309 -184 -542.5t-346 -426.5h532v426h174v-426h203v-162h-203v-303h-174z" />
    <glyph glyph-name="five.locl" 
d="M1178 459q0 -139 -72 -251.5t-194 -175.5t-267 -63q-219 0 -364.5 108.5t-188.5 301.5l168 43q64 -291 385 -291q147 0 253 94t106 234q0 139 -96.5 230t-243.5 91q-118 0 -209 -45.5t-168 -146.5l-156 45l154 801h772v-160h-627l-92 -459q127 121 330 121
q221 0 365.5 -135t144.5 -342z" />
    <glyph glyph-name="six.locl" 
d="M672 -31q-257 0 -408 154q-151 157 -151 440q0 382 213.5 621.5t584.5 279.5l25 -157q-259 -31 -426 -175t-211 -378q67 79 168 122.5t221 43.5q210 0 350 -135.5t140 -338.5q0 -201 -146 -339t-360 -138zM1004 444q0 142 -92.5 230t-245.5 88q-149 0 -252 -90.5
t-103 -227.5q0 -138 99 -226.5t249 -88.5q152 0 246 88q99 89 99 227z" />
    <glyph glyph-name="seven.locl" 
d="M92 1434h1086v-193q-294 -300 -437 -596q-148 -303 -174 -645h-176q29 364 184.5 693.5t419.5 580.5h-729v-234h-174v394z" />
    <glyph glyph-name="eight.locl" 
d="M1157 408q0 -193 -147.5 -316t-374.5 -123t-374.5 123t-147.5 316q0 117 63 215t168 145q-180 110 -180 307q0 170 132.5 279.5t338.5 109.5q207 0 340 -109.5t133 -279.5q0 -196 -182 -307q105 -47 168 -145t63 -215zM336 1071q0 -108 81 -171.5t218 -63.5
q136 0 218.5 64.5t82.5 170.5q0 104 -84 170t-217 66t-216 -65.5t-83 -170.5zM983 412q0 129 -94 205.5t-254 76.5q-158 0 -253 -76.5t-95 -205.5q0 -127 96 -204t252 -77t252 76.5t96 204.5z" />
    <glyph glyph-name="nine.locl" 
d="M1157 891q0 -384 -192.5 -622t-565.5 -300l-26 160q250 41 406 184t194 365q-63 -78 -162.5 -120t-222.5 -42q-221 0 -358.5 132.5t-137.5 336.5q0 207 148 343t374 136q244 0 393.5 -158t149.5 -415zM963 989q0 133 -99 224.5t-250 91.5q-155 0 -251.5 -89.5
t-96.5 -230.5q0 -142 90.5 -226.5t243.5 -84.5q164 0 263.5 87t99.5 228z" />
    <glyph glyph-name="one.salt" 
d="M72 0v152h483v1065l-440 -265v166l460 273h144v-1239h479v-152h-1126z" />
    <glyph glyph-name="two.salt" 
d="M274 178v-26h873v-152h-1036v174q0 126 67 211q63 80 153 130.5t269 119.5q122 47 219 94q195 98 195 260q0 128 -95.5 205.5t-254.5 77.5q-184 0 -293 -99.5t-117 -273.5l-162 8q6 231 162.5 372.5t409.5 141.5q226 0 370 -121.5t144 -310.5q0 -136 -72 -229
q-72 -91 -174 -146q-96 -49 -268 -116q-165 -66 -211 -90q-179 -88 -179 -230z" />
    <glyph glyph-name="three.salt" 
d="M1167 397q0 -189 -142 -308.5t-368 -119.5q-236 0 -387.5 120t-187.5 345l160 29q29 -170 135 -256t278 -86q158 0 253.5 75.5t95.5 200.5q0 117 -84 186.5t-224 69.5h-172v148h164q131 0 206 63.5t75 175.5q0 103 -82.5 167.5t-216.5 64.5q-150 0 -250 -87t-125 -231
l-160 25q31 196 178 319t357 123q203 0 333 -105.5t130 -268.5q0 -102 -54 -185t-147 -131q108 -41 171.5 -132t63.5 -202z" />
    <glyph glyph-name="four.salt" 
d="M971 446h227v-151h-227v-295h-164v295h-715v166l701 930h178v-945zM262 446h545v715z" />
    <glyph glyph-name="six.salt" 
d="M664 -31q-264 0 -407.5 176.5t-143.5 501.5q0 347 154 560.5t403 213.5q182 0 307.5 -106t157.5 -287l-162 -29q-23 128 -104 200.5t-199 72.5q-164 0 -276 -159.5t-118 -405.5q62 86 167 137t225 51q207 0 348 -133.5t141 -329.5q0 -194 -141.5 -328.5t-351.5 -134.5z
M993 434q0 134 -97 224t-243 90q-143 0 -241.5 -90.5t-98.5 -223.5q0 -130 102 -221.5t249 -91.5q140 0 234.5 90t94.5 223z" />
    <glyph glyph-name="seven.salt" 
d="M319 0l689 1241h-752v-227h-164v377h1086v-170l-674 -1221h-185z" />
    <glyph glyph-name="nine.salt" 
d="M1157 723q0 -362 -138 -558t-392 -196q-177 0 -300 101t-161 278l160 39q29 -128 106 -197t195 -69q171 0 265 144.5t101 420.5q-57 -90 -156.5 -139t-224.5 -49q-218 0 -358.5 131.5t-140.5 326.5q0 198 139 331.5t354 133.5q264 0 407.5 -180.5t143.5 -517.5zM952 958
q0 134 -100 224t-242 90q-145 0 -239 -88q-95 -89 -95 -226t94.5 -224t243.5 -87q142 0 240 88.5t98 222.5z" />
    <glyph glyph-name="_452" 
d="M72 0v162h479v1087l-436 -276v174l456 287h154v-1272h473v-162h-1126z" />
    <glyph glyph-name="_453" 
d="M285 188v-26h862v-162h-1036v180q0 131 67 219t164 142q91 51 254 118q126 51 217 97q191 100 191 264q0 126 -97 205q-95 80 -243 80q-177 0 -284.5 -102.5t-115.5 -276.5l-172 8q6 234 166 382t406 148q145 0 262.5 -56.5t184.5 -158.5t67 -229q0 -141 -72 -238
q-68 -91 -174 -149q-113 -61 -264 -121q-142 -56 -209 -92q-174 -87 -174 -232z" />
    <glyph glyph-name="_454" 
d="M1167 410q0 -195 -142 -318t-368 -123q-236 0 -387 125t-188 355l170 30q26 -172 129.5 -260t275.5 -88q154 0 245 75.5t91 203.5q0 121 -79.5 190.5t-215.5 69.5h-176v157h166q129 0 199.5 63.5t70.5 180.5q0 105 -78 169.5t-210 64.5q-146 0 -243 -88t-122 -236
l-170 27q31 203 176.5 329.5t358.5 126.5q204 0 333.5 -109t129.5 -278q0 -104 -53.5 -190t-147.5 -133q109 -43 172 -135.5t63 -208.5z" />
    <glyph glyph-name="_455" 
d="M975 465h223v-162h-223v-303h-174v303h-709v176l694 955h189v-969zM274 465h527v723z" />
    <glyph glyph-name="_456" 
d="M666 -31q-266 0 -409.5 181.5t-143.5 517.5q0 361 152.5 578.5t404.5 217.5q183 0 308 -108t157 -297l-172 -31q-23 131 -100 204t-193 73q-160 0 -267.5 -158.5t-113.5 -405.5q63 83 164.5 133t216.5 50q205 0 346 -138.5t141 -339.5q0 -202 -140.5 -339.5
t-350.5 -137.5zM983 449q0 136 -94.5 226.5t-235.5 90.5q-139 0 -234 -91.5t-95 -225.5t99 -226t243 -92q136 0 226.5 90.5t90.5 227.5z" />
    <glyph glyph-name="_457" 
d="M317 0l678 1274h-729v-234h-174v394h1086v-181l-666 -1253h-195z" />
    <glyph glyph-name="_458" 
d="M1157 748q0 -375 -137 -577t-393 -202q-177 0 -300.5 104t-160.5 287l168 41q59 -270 293 -270q164 0 254.5 144.5t101.5 422.5q-60 -91 -155.5 -138.5t-217.5 -47.5q-215 0 -356 136.5t-141 336.5q0 206 139 342.5t354 136.5q261 0 406 -186.5t145 -529.5zM942 989
q0 134 -97.5 225t-236.5 91q-141 0 -229 -88q-90 -90 -90 -228q0 -142 89 -228.5t236 -86.5q143 0 234 88q94 88 94 227z" />
    <glyph glyph-name="zero.subs" 
d="M299 123q0 215 88 331.5t248 116.5q164 0 251 -115.5t87 -332.5t-87 -333t-251 -116q-160 0 -248 117t-88 332zM831 123q0 317 -196 317q-195 0 -195 -317q0 -318 195 -318q196 0 196 318z" />
    <glyph glyph-name="one.subs" 
d="M711 -176h286v-131h-725v131h297v530q-77 -83 -239 -123l-37 127q104 29 169.5 72t127.5 123h121v-729z" />
    <glyph glyph-name="two.subs" 
d="M666 -25q-111 -41 -160 -72.5t-60 -78.5h512v-131h-651v78q0 90 43 151q40 56 96 89.5t166 76.5q90 39 123 55q103 56 103 144q0 69 -54.5 113t-140.5 44q-92 0 -150.5 -49t-58.5 -127q0 -48 27 -112l-133 -43q-35 84 -35 155q0 135 98 217q100 86 252 86q148 0 242 -82
q94 -79 94 -206q0 -87 -45 -144q-40 -53 -99 -87.5t-169 -76.5z" />
    <glyph glyph-name="three.subs" 
d="M985 -45q0 -120 -97.5 -200.5t-234.5 -80.5q-152 0 -248.5 76t-119.5 215l139 27q13 -91 73.5 -140t155.5 -49q81 0 136 45.5t55 116.5q0 78 -55 118t-160 40h-140v94l302 205h-441v131h615l2 -141l-271 -187q131 -6 210 -77t79 -193z" />
    <glyph glyph-name="four.subs" 
d="M877 -6h120v-133h-120v-168h-142v168h-463v137q151 133 231.5 262t110.5 293h146q-58 -356 -320 -559h295v225h142v-225z" />
    <glyph glyph-name="five.subs" 
d="M985 -27q0 -128 -99 -213.5t-243 -85.5q-136 0 -232.5 66.5t-125.5 179.5l135 37q47 -152 223 -152q85 0 143 47.5t58 120.5q0 70 -54.5 117t-138.5 47q-130 0 -215 -94l-127 33l94 477h504v-131h-385l-49 -221q80 59 191 59q138 0 229.5 -83t91.5 -204z" />
    <glyph glyph-name="six.subs" 
d="M979 -37q0 -122 -94 -205.5t-228 -83.5q-172 0 -268 98t-96 279q0 221 137 359t377 161l20 -129q-165 -20 -264.5 -95.5t-124.5 -199.5q82 97 232 97q135 0 221 -80q88 -79 88 -201zM838 -39q0 73 -51 116.5t-138 43.5q-85 0 -141.5 -45.5t-56.5 -114.5q0 -68 56 -113
t138 -45q85 0 139 44.5t54 113.5z" />
    <glyph glyph-name="seven.subs" 
d="M285 553h700v-160q-188 -167 -270 -332q-84 -167 -99 -368h-149q15 207 115 403q102 194 258 326h-414v-131h-141v262z" />
    <glyph glyph-name="eight.subs" 
d="M973 -61q0 -116 -94 -189q-94 -76 -244 -76q-148 0 -242 76q-94 73 -94 189q0 67 38.5 125t100.5 88q-108 68 -108 182q0 103 86 170t219 67q135 0 222 -67t87 -170q0 -118 -110 -182q63 -29 101 -87.5t38 -125.5zM471 328q0 -55 44.5 -88t119.5 -33q78 0 123 32.5
t45 88.5q0 54 -46.5 86t-121.5 32q-73 0 -118.5 -32.5t-45.5 -85.5zM831 -53q0 66 -52.5 104.5t-143.5 38.5q-88 0 -141.5 -38.5t-53.5 -104.5q0 -63 54.5 -102.5t140.5 -39.5q90 0 143 39t53 103z" />
    <glyph glyph-name="nine.subs" 
d="M979 217q0 -229 -123 -368t-367 -175l-20 129q153 25 246.5 98.5t118.5 188.5q-76 -88 -232 -88q-136 0 -222.5 79t-86.5 202q0 124 95 206t241 82q159 0 254.5 -97t95.5 -257zM823 283q0 68 -55 112.5t-139 44.5q-86 0 -140.5 -44t-54.5 -113q0 -70 51.5 -114t135.5 -44
q91 0 146.5 44t55.5 114z" />
    <glyph glyph-name="zero.dnom" 
d="M299 -61q0 215 88 331.5t248 116.5q164 0 251 -115.5t87 -332.5t-87 -333t-251 -116q-160 0 -248 117t-88 332zM831 -61q0 317 -196 317q-195 0 -195 -317q0 -318 195 -318q196 0 196 318z" />
    <glyph glyph-name="one.dnom" 
d="M711 -360h286v-132h-725v132h297v530q-77 -83 -239 -123l-37 127q104 29 169.5 72t127.5 123h121v-729z" />
    <glyph glyph-name="two.dnom" 
d="M666 -209q-111 -41 -160 -72.5t-60 -78.5h512v-132h-651v78q0 91 43 152q40 56 96 89.5t166 76.5q90 39 123 55q103 56 103 143q0 69 -54.5 113.5t-140.5 44.5q-92 0 -150.5 -49t-58.5 -127q0 -48 27 -113l-133 -43q-35 84 -35 156q0 135 98 217q100 86 252 86
q148 0 242 -82q94 -79 94 -207q0 -86 -45 -143q-40 -53 -99 -87.5t-169 -76.5z" />
    <glyph glyph-name="three.dnom" 
d="M985 -229q0 -120 -97.5 -200.5t-234.5 -80.5q-152 0 -248.5 76t-119.5 215l139 26q13 -91 73.5 -139.5t155.5 -48.5q81 0 136 45.5t55 116.5q0 78 -55 118t-160 40h-140v94l302 205h-441v131h615l2 -142l-271 -186q131 -6 210 -77t79 -193z" />
    <glyph glyph-name="four.dnom" 
d="M877 -190h120v-134h-120v-168h-142v168h-463v138q151 133 231.5 262t110.5 293h146q-58 -356 -320 -559h295v225h142v-225z" />
    <glyph glyph-name="five.dnom" 
d="M985 -211q0 -128 -99 -213.5t-243 -85.5q-136 0 -232.5 66.5t-125.5 179.5l135 37q47 -152 223 -152q85 0 143 47.5t58 120.5q0 70 -54.5 117t-138.5 47q-130 0 -215 -94l-127 32l94 478h504v-131h-385l-49 -222q82 60 191 60q138 0 229.5 -83t91.5 -204z" />
    <glyph glyph-name="six.dnom" 
d="M979 -221q0 -122 -94 -205.5t-228 -83.5q-172 0 -268 98t-96 279q0 221 137 359t377 161l20 -129q-165 -20 -264.5 -95.5t-124.5 -199.5q81 96 232 96q136 0 221 -79q88 -79 88 -201zM838 -223q0 73 -51 116.5t-138 43.5q-85 0 -141.5 -45.5t-56.5 -114.5q0 -68 56 -113
t138 -45q85 0 139 44.5t54 113.5z" />
    <glyph glyph-name="seven.dnom" 
d="M285 369h700v-160q-187 -167 -270 -330q-84 -170 -99 -371h-149q15 209 115 404q102 194 258 326h-414v-132h-141v263z" />
    <glyph glyph-name="eight.dnom" 
d="M973 -246q0 -115 -94 -188q-94 -76 -244 -76q-148 0 -242 76q-94 73 -94 188q0 67 38.5 125t100.5 88q-108 67 -108 183q0 103 86 170t219 67q135 0 222 -67t87 -170q0 -119 -110 -183q63 -29 101 -87.5t38 -125.5zM471 143q0 -55 44.5 -87.5t119.5 -32.5q78 0 123 32
t45 88q0 54 -46.5 86.5t-121.5 32.5q-73 0 -118.5 -32.5t-45.5 -86.5zM831 -238q0 66 -52.5 105t-143.5 39q-88 0 -141.5 -39t-53.5 -105q0 -63 54.5 -102t140.5 -39q90 0 143 38.5t53 102.5z" />
    <glyph glyph-name="nine.dnom" 
d="M979 33q0 -229 -123 -368t-367 -175l-20 129q153 25 246.5 98.5t118.5 188.5q-76 -88 -232 -88q-136 0 -222.5 78.5t-86.5 201.5q0 124 95.5 206.5t240.5 82.5q159 0 254.5 -97t95.5 -257zM823 98q0 68 -55 113t-139 45q-86 0 -140.5 -44.5t-54.5 -113.5
q0 -70 51.5 -113.5t135.5 -43.5q91 0 146.5 43.5t55.5 113.5z" />
    <glyph glyph-name="zero.numr" 
d="M299 1208q0 215 88 332t248 117q164 0 251 -116t87 -333t-87 -332.5t-251 -115.5q-160 0 -248 116.5t-88 331.5zM831 1208q0 318 -196 318q-195 0 -195 -318q0 -317 195 -317q196 0 196 317z" />
    <glyph glyph-name="one.numr" 
d="M711 909h286v-131h-725v131h297v531q-77 -83 -239 -123l-37 127q105 29 170.5 72t126.5 122h121v-729z" />
    <glyph glyph-name="two.numr" 
d="M666 1061q-110 -41 -159.5 -73t-60.5 -79h512v-131h-651v78q0 92 43 150q40 57 96 91t166 77q90 39 123 55q103 56 103 143q0 69 -54.5 113.5t-140.5 44.5q-92 0 -150.5 -49t-58.5 -127q0 -48 27 -113l-133 -43q-35 84 -35 156q0 135 98 217q100 86 252 86q148 0 242 -82
q94 -79 94 -207q0 -86 -45 -143q-40 -53 -99 -87.5t-169 -76.5z" />
    <glyph glyph-name="three.numr" 
d="M985 1040q0 -120 -97.5 -200t-234.5 -80q-152 0 -248.5 76t-119.5 215l139 26q13 -91 73.5 -139.5t155.5 -48.5q81 0 136 45.5t55 116.5q0 78 -55 117.5t-160 39.5h-140v95l302 204h-441v131h615l2 -141l-271 -186q131 -6 210 -77.5t79 -193.5z" />
    <glyph glyph-name="four.numr" 
d="M877 1079h120v-133h-120v-168h-142v168h-463v137q151 133 231.5 262t110.5 293h146q-58 -356 -320 -559h295v226h142v-226z" />
    <glyph glyph-name="five.numr" 
d="M985 1059q0 -128 -99 -213.5t-243 -85.5q-136 0 -232.5 66.5t-125.5 179.5l135 36q47 -151 223 -151q85 0 143 47.5t58 120.5q0 70 -54.5 117t-138.5 47q-129 0 -215 -95l-127 33l94 477h504v-131h-385l-49 -221q82 60 191 60q138 0 229.5 -83t91.5 -204z" />
    <glyph glyph-name="six.numr" 
d="M979 1049q0 -122 -94 -205.5t-228 -83.5q-172 0 -268 98t-96 279q0 221 137 359t377 161l20 -129q-165 -20 -264.5 -95.5t-124.5 -199.5q81 96 232 96q135 0 221 -80q88 -79 88 -200zM838 1047q0 72 -51 115.5t-138 43.5q-85 0 -141.5 -45t-56.5 -114q0 -68 56 -113
t138 -45q85 0 139 44.5t54 113.5z" />
    <glyph glyph-name="seven.numr" 
d="M285 1638h700v-159q-188 -167 -270 -332q-84 -167 -99 -369h-149q15 209 115 404q102 193 258 325h-414v-131h-141v262z" />
    <glyph glyph-name="eight.numr" 
d="M973 1024q0 -114 -94 -190q-95 -74 -244 -74q-147 0 -242 74q-94 76 -94 190q0 67 38.5 125t100.5 88q-108 67 -108 182q0 103 86 170.5t219 67.5q135 0 222 -67.5t87 -170.5q0 -118 -110 -182q63 -29 101 -87.5t38 -125.5zM471 1413q0 -55 44.5 -88t119.5 -33
q78 0 123 32.5t45 88.5q0 54 -46.5 86.5t-121.5 32.5q-73 0 -118.5 -32.5t-45.5 -86.5zM831 1032q0 66 -52.5 105t-143.5 39q-88 0 -141.5 -39t-53.5 -105q0 -63 54.5 -102t140.5 -39q90 0 143 38.5t53 102.5z" />
    <glyph glyph-name="nine.numr" 
d="M979 1303q0 -229 -123 -368t-367 -175l-20 129q153 25 246.5 98.5t118.5 188.5q-77 -89 -232 -89q-136 0 -222.5 79t-86.5 202q0 124 95.5 206.5t240.5 82.5q159 0 254.5 -97t95.5 -257zM823 1368q0 68 -55 113t-139 45q-86 0 -140.5 -44.5t-54.5 -113.5q0 -70 51.5 -114
t135.5 -44q91 0 146.5 44t55.5 114z" />
    <glyph glyph-name="zero.sups" 
d="M299 1208q0 215 88 332t248 117q164 0 251 -116t87 -333t-87 -332.5t-251 -115.5q-160 0 -248 116.5t-88 331.5zM831 1208q0 318 -196 318q-195 0 -195 -318q0 -317 195 -317q196 0 196 317z" />
    <glyph glyph-name="one.sups" 
d="M711 909h286v-131h-725v131h297v531q-77 -83 -239 -123l-37 127q105 29 170.5 72t126.5 122h121v-729z" />
    <glyph glyph-name="two.sups" 
d="M666 1061q-110 -41 -159.5 -73t-60.5 -79h512v-131h-651v78q0 92 43 150q40 57 96 91t166 77q90 39 123 55q103 56 103 143q0 69 -54.5 113.5t-140.5 44.5q-92 0 -150.5 -49t-58.5 -127q0 -48 27 -113l-133 -43q-35 84 -35 156q0 135 98 217q100 86 252 86q148 0 242 -82
q94 -79 94 -207q0 -86 -45 -143q-40 -53 -99 -87.5t-169 -76.5z" />
    <glyph glyph-name="three.sups" 
d="M985 1040q0 -120 -97.5 -200t-234.5 -80q-152 0 -248.5 76t-119.5 215l139 26q13 -91 73.5 -139.5t155.5 -48.5q81 0 136 45.5t55 116.5q0 78 -55 117.5t-160 39.5h-140v95l302 204h-441v131h615l2 -141l-271 -186q131 -6 210 -77.5t79 -193.5z" />
    <glyph glyph-name="four.sups" 
d="M877 1079h120v-133h-120v-168h-142v168h-463v137q151 133 231.5 262t110.5 293h146q-58 -356 -320 -559h295v226h142v-226z" />
    <glyph glyph-name="five.sups" 
d="M985 1059q0 -128 -99 -213.5t-243 -85.5q-136 0 -232.5 66.5t-125.5 179.5l135 36q47 -151 223 -151q85 0 143 47.5t58 120.5q0 70 -54.5 117t-138.5 47q-129 0 -215 -95l-127 33l94 477h504v-131h-385l-49 -221q82 60 191 60q138 0 229.5 -83t91.5 -204z" />
    <glyph glyph-name="six.sups" 
d="M979 1049q0 -122 -94 -205.5t-228 -83.5q-172 0 -268 98t-96 279q0 221 137 359t377 161l20 -129q-165 -20 -264.5 -95.5t-124.5 -199.5q81 96 232 96q135 0 221 -80q88 -79 88 -200zM838 1047q0 72 -51 115.5t-138 43.5q-85 0 -141.5 -45t-56.5 -114q0 -68 56 -113
t138 -45q85 0 139 44.5t54 113.5z" />
    <glyph glyph-name="seven.sups" 
d="M285 1638h700v-159q-188 -167 -270 -332q-84 -167 -99 -369h-149q15 209 115 404q102 193 258 325h-414v-131h-141v262z" />
    <glyph glyph-name="eight.sups" 
d="M973 1024q0 -114 -94 -190q-95 -74 -244 -74q-147 0 -242 74q-94 76 -94 190q0 67 38.5 125t100.5 88q-108 67 -108 182q0 103 86 170.5t219 67.5q135 0 222 -67.5t87 -170.5q0 -118 -110 -182q63 -29 101 -87.5t38 -125.5zM471 1413q0 -55 44.5 -88t119.5 -33
q78 0 123 32.5t45 88.5q0 54 -46.5 86.5t-121.5 32.5q-73 0 -118.5 -32.5t-45.5 -86.5zM831 1032q0 66 -52.5 105t-143.5 39q-88 0 -141.5 -39t-53.5 -105q0 -63 54.5 -102t140.5 -39q90 0 143 38.5t53 102.5z" />
    <glyph glyph-name="nine.sups" 
d="M979 1303q0 -229 -123 -368t-367 -175l-20 129q153 25 246.5 98.5t118.5 188.5q-77 -89 -232 -89q-136 0 -222.5 79t-86.5 202q0 124 95.5 206.5t240.5 82.5q159 0 254.5 -97t95.5 -257zM823 1368q0 68 -55 113t-139 45q-86 0 -140.5 -44.5t-54.5 -113.5q0 -70 51.5 -114
t135.5 -44q91 0 146.5 44t55.5 114z" />
    <glyph glyph-name="question.salt" 
d="M539 393v119q0 89 32 143q33 56 78 95t131 94q105 71 132 98q54 53 61 135v4q0 97 -88.5 160.5t-218.5 63.5q-159 0 -265.5 -95t-126.5 -270l-172 23q27 234 183 367.5t381 133.5q134 0 244 -49t173.5 -137t63.5 -197q0 -100 -39 -168q-34 -63 -82 -104.5t-141 -97.5
q-97 -60 -135.5 -101.5t-38.5 -99.5v-117h-172zM512 0v246h248v-246h-248z" />
    <glyph glyph-name="questiondown.salt" 
d="M731 692v-119q-2 -52 -15 -94t-30 -71t-51.5 -60t-63.5 -51.5t-82 -54.5q-106 -71 -134 -101q-52 -52 -58 -137q0 -97 88.5 -160t218.5 -63q159 0 265 94.5t126 269.5l172 -22q-27 -234 -182.5 -368t-380.5 -134q-134 0 -244 49t-173.5 137t-63.5 197q0 99 37 166
q36 65 84.5 107t140.5 98q98 60 136 101t38 99v117h172zM758 1085v-245h-248v245h248z" />
    <glyph glyph-name="braceleft.case" 
d="M508 -16v522q0 41 -23.5 63.5t-66.5 22.5h-92v160h92q43 0 66.5 22.5t23.5 63.5v479q0 149 82 230t231 81h125v-160h-92q-94 0 -133 -39t-39 -133v-438q0 -165 -139 -186q139 -21 139 -187v-481q0 -94 39 -133t133 -39h92v-160h-125q-149 0 -231 81.5t-82 230.5z" />
    <glyph glyph-name="braceright.case" 
d="M449 -328h-125v160h92q94 0 133 39t39 133v481q0 166 139 187q-139 21 -139 186v438q0 94 -39 133t-133 39h-92v160h125q149 0 231 -81t82 -230v-479q0 -41 23.5 -63.5t66.5 -22.5h92v-160h-92q-43 0 -66.5 -22.5t-23.5 -63.5v-522q0 -149 -82 -230.5t-231 -81.5z" />
    <glyph glyph-name="bracketleft.case" 
d="M393 -328v1956h484v-160h-310v-1636h310v-160h-484z" />
    <glyph glyph-name="bracketright.case" 
d="M877 -328h-484v160h309v1636h-309v160h484v-1956z" />
    <glyph glyph-name="parenleft.case" 
d="M379 668q0 276 100.5 541t290.5 487l125 -97q-164 -190 -253 -433.5t-89 -497.5q0 -250 89.5 -493.5t250.5 -434.5l-127 -96q-188 221 -287.5 484.5t-99.5 539.5z" />
    <glyph glyph-name="parenright.case" 
d="M506 -358l-127 96q161 191 250.5 434.5t89.5 493.5q0 254 -89 497.5t-253 433.5l125 97q190 -222 290.5 -487t100.5 -541t-99.5 -539.5t-287.5 -484.5z" />
    <glyph glyph-name="emdash.locl" 
d="M0 653v162h1270v-162h-1270z" />
    <glyph glyph-name="endash.locl" 
d="M154 653v162h962v-162h-962z" />
    <glyph glyph-name="hyphen.locl" 
d="M328 653v162h614v-162h-614z" />
    <glyph glyph-name="uni00AD.locl" 
d="M328 653v162h614v-162h-614z" />
    <glyph glyph-name="guillemotleft.case" 
d="M438 678q172 -187 234 -387l-164 -53q-38 124 -107 226t-190 214q121 112 190 214t107 226l164 -53q-62 -200 -234 -387zM829 678q172 -187 234 -387l-164 -53q-38 124 -107 226t-190 214q121 112 190 214t107 226l164 -53q-62 -200 -234 -387z" />
    <glyph glyph-name="guillemotright.case" 
d="M834 678q-172 187 -234 387l164 53q38 -124 107 -226t190 -214q-121 -112 -190 -214t-107 -226l-164 53q62 200 234 387zM440 678q-171 185 -233 387l164 53q38 -124 107 -226t190 -214q-121 -112 -190 -214t-107 -226l-164 53q62 202 233 387z" />
    <glyph glyph-name="guilsinglleft.case" 
d="M633 678q171 -185 233 -387l-164 -53q-39 124 -107 226t-189 214q121 112 189 214t107 226l164 -53q-62 -202 -233 -387z" />
    <glyph glyph-name="guilsinglright.case" 
d="M864 678q-121 -112 -190 -214t-107 -226l-164 53q62 200 234 387q-172 187 -234 387l164 53q38 -124 107 -226t190 -214z" />
    <glyph glyph-name="guillemotleft.case_salt" 
d="M471 291l-231 385l231 387h174l-225 -387l225 -385h-174zM858 291l-231 385l231 387h174l-225 -387l225 -385h-174z" />
    <glyph glyph-name="guillemotright.case_salt" 
d="M1032 676l-231 -385h-174l225 385l-225 387h174zM643 676l-231 -385h-174l225 385l-225 387h174z" />
    <glyph glyph-name="guilsinglleft.case_salt" 
d="M664 291l-232 385l232 387h174l-226 -387l226 -385h-174z" />
    <glyph glyph-name="guilsinglright.case_salt" 
d="M606 291h-174l225 385l-225 387h174l232 -387z" />
    <glyph glyph-name="guillemotleft.salt" 
d="M471 188l-231 385l231 388h174l-225 -388l225 -385h-174zM858 188l-231 385l231 388h174l-225 -388l225 -385h-174z" />
    <glyph glyph-name="guillemotright.salt" 
d="M1032 573l-231 -385h-174l225 385l-225 388h174zM643 573l-231 -385h-174l225 385l-225 388h174z" />
    <glyph glyph-name="guilsinglleft.salt" 
d="M664 188l-232 385l232 388h174l-226 -388l226 -385h-174z" />
    <glyph glyph-name="guilsinglright.salt" 
d="M606 188h-174l225 385l-225 388h174l232 -388z" />
    <glyph glyph-name="arrowup.salt" 
d="M553 188v918l-420 -262l-82 133l584 354l584 -354l-80 -133l-422 262v-918h-164z" />
    <glyph glyph-name="uni2197.salt" 
d="M92 360l645 646l-475 110l41 154l651 -158l162 -670l-160 -39l-114 488l-637 -641z" />
    <glyph glyph-name="arrowright.salt" 
d="M51 784h914l-263 422l142 80l354 -577l-354 -580l-142 82l263 420h-914v153z" />
    <glyph glyph-name="uni2198.salt" 
d="M737 442l-645 645l113 111l637 -641l114 487l160 -38l-162 -670l-651 -158l-41 154z" />
    <glyph glyph-name="arrowdown.salt" 
d="M553 389v918h164v-918l422 262l80 -133l-584 -354l-584 354l82 133z" />
    <glyph glyph-name="uni2199.salt" 
d="M1178 1087l-646 -645l476 -110l-41 -154l-652 158l-161 670l159 38l115 -487l637 641z" />
    <glyph glyph-name="arrowleft.salt" 
d="M305 784h914v-153h-914l262 -420l-141 -82l-354 580l354 577l141 -80z" />
    <glyph glyph-name="uni2196.salt" 
d="M532 1006l646 -646l-113 -110l-637 641l-115 -488l-159 39l161 670l652 158l41 -154z" />
    <glyph glyph-name="arrowboth.salt" 
d="M1069 1286l354 -577l-354 -580l-141 82l262 420h-1108l260 -420l-139 -82l-357 580l357 577l139 -80l-260 -422h1108l-262 422z" />
    <glyph glyph-name="arrowupdn.salt" 
d="M717 266l422 264l80 -133l-584 -354l-584 354l82 133l420 -264v963l-420 -264l-82 133l584 354l584 -354l-80 -133l-422 264v-963z" />
    <glyph glyph-name="uni21B3.salt" 
d="M844 1286l354 -577l-354 -580l-142 82l263 420h-914v803h162v-650h752l-263 422z" />
    <glyph glyph-name="at.case" 
d="M786 893q0 41 -36.5 66.5t-96.5 25.5q-72 0 -116.5 -38t-55.5 -107l-131 22q17 111 99.5 179.5t203.5 68.5q122 0 193.5 -63.5t71.5 -172.5v-344q0 -33 12 -45t47 -12q125 0 125 326q0 250 -124 396t-327 146q-216 0 -348.5 -170.5t-132.5 -453.5q0 -294 134.5 -459.5
t363.5 -165.5q181 0 362 107l60 -109q-192 -121 -422 -121q-291 0 -461 201.5t-170 546.5q0 218 75.5 388t215.5 264.5t323 94.5q265 0 424.5 -182.5t159.5 -482.5q0 -449 -260 -449q-118 0 -152 94q-36 -44 -92.5 -69t-122.5 -25q-117 0 -186.5 57t-69.5 154q0 93 57 146
t185 79q116 26 154 47.5t38 59.5zM629 680q-82 -25 -112 -48.5t-30 -64.5q0 -44 32.5 -68t92.5 -24q74 0 124 40t50 101v134q-10 -17 -41.5 -30.5t-115.5 -39.5z" />
    <glyph glyph-name="ampersand.salt" 
d="M1235 178l-94 -119l-123 111q-67 -95 -181 -148t-255 -53q-234 0 -370 114t-136 314q0 245 241 414q-78 87 -111.5 159t-33.5 158q0 143 107 239.5t268 96.5q168 0 282.5 -98.5t143.5 -271.5l-154 -25q-23 123 -93 186.5t-179 63.5q-96 0 -156.5 -54t-60.5 -139
q0 -78 61 -162.5t213 -220.5l328 -292v372h153v-415q0 -37 -8 -89zM897 279l-408 366q-34 29 -73 68q-185 -132 -185 -316q0 -136 92 -209t259 -73q238 0 315 164z" />
    <glyph glyph-name="_666" horiz-adv-x="0" 
d="M-877 1389q0 97 68 158t174 61t175 -61.5t69 -157.5q0 -97 -69 -159.5t-175 -62.5t-174 62.5t-68 159.5zM-524 1389q0 50 -30 80t-81 30q-49 0 -79.5 -30.5t-30.5 -79.5q0 -50 30.5 -81.5t79.5 -31.5t80 31.5t31 81.5z" />
    <glyph glyph-name="_674" horiz-adv-x="0" 
d="M-227 942l-414 -231v14l-344 -193l-62 105l400 231v-14l354 201z" />
    <glyph glyph-name="_676" horiz-adv-x="0" 
d="M-221 915l-500 -280v8l-262 -145l-64 116l377 213v-8l381 217z" />
    <glyph glyph-name="_677" horiz-adv-x="0" 
d="M-743 1239v219h217v-219h-217z" />
    </font>
</defs>
</svg>
