<?xml version="1.0" standalone="no"?>
<!DOCTYPE svg PUBLIC "-//W3C//DTD SVG 1.1//EN" "http://www.w3.org/Graphics/SVG/1.1/DTD/svg11.dtd" >
<svg xmlns="http://www.w3.org/2000/svg" xmlns:xlink="http://www.w3.org/1999/xlink" version="1.1">
<metadata>
Created by FontForge 20170731 at Mon Jan 31 23:31:34 2022
 By Aleksey,,,
Copyright by Timo Gaessner, Millieu Grotesque. All rights reserved.
</metadata>
<defs>
<font id="MaisonMonoTRIAL-Bold" horiz-adv-x="1269" >
  <font-face 
    font-family="Maison Mono TRIAL Bold"
    font-weight="700"
    font-stretch="normal"
    units-per-em="2048"
    panose-1="2 0 0 0 0 0 0 0 0 0"
    ascent="1587"
    descent="-461"
    x-height="1085"
    cap-height="1434"
    bbox="-43 -492 1313 1464"
    underline-thickness="102"
    underline-position="-307"
    unicode-range="U+000D-F8FF"
  />
<missing-glyph horiz-adv-x="1331" 
d="M66 0v866q0 156 80 293.5t218.5 221t299.5 83.5q163 0 302.5 -83.5t219.5 -221t80 -293.5v-866h-58l-133 133l-139 -133l-129 133l-145 -133l-142 133l-129 -133l-137 133l-135 -133h-53zM803 625l129 129l131 -129l29 28l-131 129l131 131l-29 29l-131 -131l-129 131
l-29 -29l129 -131l-129 -129zM270 625l129 129l131 -129l29 28l-131 129l131 131l-29 29l-131 -131l-129 131l-28 -29l129 -131l-129 -129z" />
    <glyph glyph-name=".notdef" horiz-adv-x="1331" 
d="M66 0v866q0 156 80 293.5t218.5 221t299.5 83.5q163 0 302.5 -83.5t219.5 -221t80 -293.5v-866h-58l-133 133l-139 -133l-129 133l-145 -133l-142 133l-129 -133l-137 133l-135 -133h-53zM803 625l129 129l131 -129l29 28l-131 129l131 131l-29 29l-131 -131l-129 131
l-29 -29l129 -131l-129 -129zM270 625l129 129l131 -129l29 28l-131 129l131 131l-29 29l-131 -131l-129 131l-28 -29l129 -131l-129 -129z" />
    <glyph glyph-name=".null" horiz-adv-x="0" 
 />
    <glyph glyph-name="nonmarkingreturn" horiz-adv-x="682" 
 />
    <glyph glyph-name="NULL" horiz-adv-x="0" 
 />
    <glyph glyph-name="NULL" horiz-adv-x="0" 
 />
    <glyph glyph-name="CR" unicode="&#xd;" horiz-adv-x="0" 
 />
    <glyph glyph-name="space" unicode=" " 
 />
    <glyph glyph-name="comma" unicode="," 
d="M276 -346v186q79 14 99 46.5t20 113.5h-119v342h359v-328q0 -156 -86.5 -251.5t-272.5 -108.5z" />
    <glyph glyph-name="period" unicode="." 
d="M276 0v342h359v-342h-359z" />
    <glyph glyph-name="A" unicode="A" 
d="M16 0l498 1434h244l495 -1434h-295l-84 250h-489l-84 -250h-285zM477 516h309l-155 492z" />
    <glyph glyph-name="B" unicode="B" 
d="M141 0v1434h580q176 0 292.5 -117.5t116.5 -292.5q0 -155 -77 -254q131 -141 131 -324q0 -199 -133 -329q-123 -117 -314 -117h-596zM418 887h303q19 0 38.5 5t42.5 18t37.5 42.5t14.5 71.5q0 70 -40 106.5t-93 36.5h-303v-280zM418 266h319q18 0 37.5 3.5t44 15.5
t43.5 31t32 52.5t13 77.5q0 83 -50 129t-120 46h-319v-355z" />
    <glyph glyph-name="C" unicode="C" 
d="M920 528l258 -43q-8 -143 -73.5 -260t-181 -186.5t-259.5 -69.5q-122 0 -217.5 44t-167.5 134.5t-110 240t-38 351.5q0 359 143 542t390 183q144 0 259.5 -69.5t181 -186.5t73.5 -260l-258 -43q-26 293 -256 293q-136 0 -196 -104t-60 -355q0 -195 28 -305.5t81.5 -154
t146.5 -43.5q230 0 256 292z" />
    <glyph glyph-name="D" unicode="D" 
d="M422 266h231q57 0 95.5 11.5t70.5 41t50.5 83t28 136.5t9.5 201q0 170 -24 262t-74.5 129t-142.5 37h-244v-901zM145 0v1434h521q518 0 518 -695q0 -201 -37.5 -346t-109.5 -230t-166.5 -124t-217.5 -39h-508z" />
    <glyph glyph-name="E" unicode="E" 
d="M217 0v1434h907v-267h-630v-280h573v-266h-573v-355h630v-266h-907z" />
    <glyph glyph-name="F" unicode="F" 
d="M215 0v1434h909v-267h-632v-317h575v-266h-575v-584h-277z" />
    <glyph glyph-name="G" unicode="G" 
d="M580 494v256h594v-242q0 -235 -147.5 -387t-383.5 -152q-122 0 -217.5 44t-167 134.5t-109.5 240t-38 351.5q0 359 143 542t389 183q213 0 356 -149.5t158 -374.5l-258 -35q-26 293 -256 293q-136 0 -196 -104t-60 -355q0 -195 28 -305.5t81.5 -154t146.5 -43.5
q126 0 189 70.5t65 187.5h-317z" />
    <glyph glyph-name="H" unicode="H" 
d="M119 0v1434h276v-547h492v547h276v-1434h-276v621h-492v-621h-276z" />
    <glyph glyph-name="I" unicode="I" 
d="M176 0v266h322v901h-322v267h918v-267h-320v-901h320v-266h-918z" />
    <glyph glyph-name="J" unicode="J" 
d="M61 485l265 43q6 -62 22 -112.5t46 -92t79.5 -64.5t114.5 -23q128 0 191 71.5t63 188.5v671h-510v267h786v-926q0 -241 -139 -390t-391 -149q-144 0 -263 69.5t-188 187t-76 259.5z" />
    <glyph glyph-name="K" unicode="K" 
d="M162 0v1434h276v-603l451 603h311l-471 -625l545 -809h-334l-387 584l-115 -156v-428h-276z" />
    <glyph glyph-name="L" unicode="L" 
d="M252 0v1434h276v-1168h592v-266h-868z" />
    <glyph glyph-name="M" unicode="M" 
d="M129 0v1434h264l246 -736l246 736h264v-1434h-277v889l-145 -426h-176l-145 426v-889h-277z" />
    <glyph glyph-name="N" unicode="N" 
d="M141 0v1434h256l508 -920v920h279v-1434h-252l-514 920v-920h-277z" />
    <glyph glyph-name="O" unicode="O" 
d="M623 236q93 0 146 43t80.5 153.5t27.5 306.5q0 250 -59.5 354.5t-194.5 104.5q-136 0 -195 -104t-59 -355q0 -195 27.5 -305.5t81 -154t145.5 -43.5zM623 -31q-122 0 -217.5 44t-166.5 134.5t-109 240t-38 351.5q0 360 142.5 542.5t388.5 182.5t388 -182.5t142 -542.5
q0 -162 -25 -290.5t-70.5 -218t-111.5 -148.5t-146 -86t-177 -27z" />
    <glyph glyph-name="P" unicode="P" 
d="M195 0v1434h516q185 0 316.5 -130.5t131.5 -320.5q0 -191 -127 -321t-321 -130h-240v-532h-276zM471 799h242q72 0 121 54.5t49 129.5q0 86 -51 135t-119 49h-242v-368z" />
    <glyph glyph-name="Q" unicode="Q" 
d="M979 -78v-256q-236 0 -359 79.5t-143 242.5q-385 99 -385 751q0 360 142.5 542.5t388.5 182.5t388 -182.5t142 -542.5q0 -334 -101.5 -519t-285.5 -234q0 -36 53.5 -50t159.5 -14zM623 236q93 0 146 43t80.5 153.5t27.5 306.5q0 250 -59.5 354.5t-194.5 104.5
q-136 0 -195 -104t-59 -355q0 -195 27.5 -305.5t81 -154t145.5 -43.5z" />
    <glyph glyph-name="R" unicode="R" 
d="M188 0v1434h517q117 0 217 -56t159.5 -156.5t59.5 -222.5q0 -136 -54.5 -228.5t-173.5 -158.5l289 -612h-307l-266 563h-164v-563h-277zM465 829h240q22 0 45.5 6.5t51 22.5t45 51.5t17.5 85.5q0 79 -48 125.5t-111 46.5h-240v-338z" />
    <glyph glyph-name="S" unicode="S" 
d="M88 500l256 47q6 -46 14 -81t29.5 -81.5t52.5 -76t86.5 -51t128.5 -21.5q107 0 178.5 47t71.5 141q0 82 -60 131t-202 86q-87 22 -151.5 45t-128 58.5t-103.5 78.5t-65 105.5t-25 140.5q0 77 31 147.5t88.5 126t149 88.5t204.5 33q186 0 323 -101t183 -294l-256 -55
q-9 33 -27 63t-47.5 58.5t-74.5 45.5t-101 17q-91 0 -144 -38t-53 -91q0 -21 9 -39.5t29.5 -34.5t41 -28t57.5 -25.5t64 -22t74 -22.5q161 -52 225 -85q176 -89 220 -255q16 -60 16 -133q0 -202 -144 -328.5t-383 -126.5q-126 0 -224.5 34.5t-158 86.5t-100.5 126t-58.5 141
t-25.5 143z" />
    <glyph glyph-name="T" unicode="T" 
d="M498 0v1167h-420v267h1116v-267h-420v-1167h-276z" />
    <glyph glyph-name="U" unicode="U" 
d="M104 508v926h277v-934q0 -120 63 -192t191 -72t191 71.5t63 188.5v938h276v-926q0 -235 -147 -387t-383 -152t-383.5 152t-147.5 387z" />
    <glyph glyph-name="V" unicode="V" 
d="M514 0l-457 1434h289l295 -988l287 988h286l-450 -1434h-250z" />
    <glyph glyph-name="W" unicode="W" 
d="M217 0l-156 1434h277l82 -840l133 491h164l133 -491l82 840h276l-155 -1434h-260l-158 668l-158 -668h-260z" />
    <glyph glyph-name="X" unicode="X" 
d="M39 0l438 752l-395 682h315l238 -453l242 453h305l-394 -674l443 -760h-316l-284 530l-287 -530h-305z" />
    <glyph glyph-name="Y" unicode="Y" 
d="M500 0v604l-467 830h305l301 -568l307 568h303l-473 -830v-604h-276z" />
    <glyph glyph-name="Z" unicode="Z" 
d="M117 0v260l665 907h-637v267h1008v-260l-670 -908h670v-266h-1036z" />
    <glyph glyph-name="a" unicode="a" 
d="M393 717l-248 41q8 85 49 155t102 113t133.5 66.5t148.5 23.5q112 0 208 -42t157 -124t61 -188v-492q0 -26 14.5 -35.5t46.5 -9.5l39 6l43 -215q-80 -47 -164 -47q-47 0 -91.5 18.5t-65.5 36.5l-21 19q-11 -8 -32.5 -20.5t-89.5 -33t-138 -20.5q-190 0 -305 94t-115 256
q0 69 21.5 122.5t57.5 89.5t93.5 62.5t119.5 41.5t146 27q87 12 130.5 32t43.5 62t-32.5 73t-114.5 31q-41 0 -71 -5.5t-57.5 -20.5t-44.5 -44t-24 -73zM737 338v162l-3 -3q-3 -3 -11.5 -7.5t-21 -10t-35.5 -11t-52 -9.5q-43 -6 -70.5 -10.5t-59.5 -14.5t-50 -23t-30.5 -34
t-12.5 -49q0 -104 168 -103h6q19 0 43 4t56 14.5t52.5 35t20.5 59.5z" />
    <glyph glyph-name="b" unicode="b" 
d="M453 643v-199q0 -97 61.5 -158t171.5 -61q115 0 170 76t55 242q0 167 -55 242t-170 75q-110 0 -171.5 -60.5t-61.5 -156.5zM186 0v1434h267v-387q4 3 10.5 7.5t30 16.5t49.5 21t67.5 16.5t85.5 7.5q220 0 351 -150t131 -423t-131 -423.5t-351 -150.5q-68 0 -131 21
t-92 42l-29 21v-53h-258z" />
    <glyph glyph-name="c" unicode="c" 
d="M848 412l254 -41q-21 -177 -145.5 -289.5t-311.5 -112.5q-218 0 -347.5 150.5t-129.5 423.5t129.5 423t347.5 150q187 0 311.5 -112t145.5 -289l-254 -41q-26 186 -201 186q-113 0 -163 -74.5t-50 -242.5q0 -167 50.5 -242.5t160.5 -75.5q177 0 203 187z" />
    <glyph glyph-name="d" unicode="d" 
d="M817 442v203q0 96 -61.5 155.5t-171.5 59.5q-115 0 -170.5 -75.5t-55.5 -241.5q0 -165 56 -241.5t170 -76.5q110 0 171.5 60.5t61.5 156.5zM825 0v53q-4 -3 -11.5 -9t-32.5 -20.5t-52.5 -25.5t-70 -20t-85.5 -9q-220 0 -350.5 150.5t-130.5 423.5t130.5 423t350.5 150
q45 0 87 -7t69.5 -17t48 -20.5t30.5 -17.5l9 -7v387h266v-1434h-258z" />
    <glyph glyph-name="e" unicode="e" 
d="M842 358l245 -84q-46 -133 -159 -219t-283 -86q-222 0 -354.5 150.5t-132.5 423.5t130.5 423t348.5 150q220 0 351.5 -150t131.5 -423v-80h-692q9 -121 60 -179.5t153 -58.5q84 0 133 40t68 93zM438 694h398q-40 166 -199 166q-156 0 -199 -166z" />
    <glyph glyph-name="f" unicode="f" 
d="M387 0v643h-201v248h201v252q0 145 102.5 233t258.5 88q162 0 269.5 -99.5t121.5 -287.5l-248 -39q-19 170 -143 170q-25 0 -44 -7.5t-28.5 -17.5t-15 -23t-6.5 -21t-1 -15v-233h447v-248h-447v-643h-266z" />
    <glyph glyph-name="g" unicode="g" 
d="M862 442v203q0 96 -61.5 155.5t-171.5 59.5q-115 0 -170.5 -75.5t-55.5 -241.5q0 -165 56 -241.5t170 -76.5q110 0 171.5 60.5t61.5 156.5zM215 -127l248 43q28 -162 207 -162q192 0 192 211v72q-10 -8 -29 -19t-83 -30t-132 -19q-220 0 -350.5 150.5t-130.5 423.5
t130.5 423t350.5 150q68 0 131 -21t92 -42l29 -21v53h258v-1116q0 -201 -126.5 -331t-327.5 -130q-193 0 -316.5 99t-142.5 266z" />
    <glyph glyph-name="h" unicode="h" 
d="M203 0v1434h266v-377q11 7 31 16.5t77.5 26t110.5 16.5q188 0 308 -130t120 -329v-657h-266v664q0 89 -48 142.5t-145 53.5q-93 0 -140.5 -48.5t-47.5 -129.5v-682h-266z" />
    <glyph glyph-name="i" unicode="i" 
d="M160 0v256h379v573h-334v256h600v-829h323v-256h-968zM539 1182v252h266v-252h-266z" />
    <glyph glyph-name="j" unicode="j" 
d="M86 -125l250 43q23 -154 207 -154q95 0 136.5 56.5t41.5 146.5v862h-391v256h657v-1114q0 -211 -108.5 -337t-331.5 -126q-205 0 -323.5 98.5t-137.5 268.5zM721 1182v252h266v-252h-266z" />
    <glyph glyph-name="k" unicode="k" 
d="M240 0v1434h266v-719l309 370h320l-334 -399l391 -686h-287l-276 483l-123 -149v-334h-266z" />
    <glyph glyph-name="l" unicode="l" 
d="M133 0v256h375v922h-295v256h561v-1178h365v-256h-1006z" />
    <glyph glyph-name="m" unicode="m" 
d="M100 0v1085h258v-32q9 7 24.5 17.5t60.5 28t87 17.5q37 0 71 -8.5t55.5 -20.5t38 -24t23.5 -21l7 -8l8.5 8.5t25 20t41 25t55 19.5t69.5 9q120 0 196 -74.5t76 -197.5v-844h-262v799q0 9 -4 21t-24 26t-52 14q-40 0 -57 -19t-17 -36v-805h-262v799q0 9 -4 21t-24 26
t-52 14q-38 0 -54.5 -19t-16.5 -36v-805h-267z" />
    <glyph glyph-name="n" unicode="n" 
d="M186 0v1085h258v-53q4 3 11 9t30.5 20.5t48.5 25.5t63 20t75 9q188 0 307 -130t119 -329v-657h-267v666q0 89 -47 141.5t-143 52.5q-95 0 -141.5 -47t-46.5 -129v-684h-267z" />
    <glyph glyph-name="o" unicode="o" 
d="M635 225q110 0 160.5 75.5t50.5 242.5q0 168 -50 242.5t-161 74.5t-161 -74.5t-50 -242.5q0 -167 50.5 -242.5t160.5 -75.5zM635 -31q-218 0 -347.5 150.5t-129.5 423.5t129.5 423t347.5 150t347.5 -150t129.5 -423t-129.5 -423.5t-347.5 -150.5z" />
    <glyph glyph-name="p" unicode="p" 
d="M453 655v-223q0 -92 63 -149.5t170 -57.5q114 0 169.5 76.5t55.5 241.5q0 166 -55.5 241.5t-169.5 75.5q-107 0 -170 -57t-63 -148zM186 -461v1546h258v-53q4 3 11.5 9t32.5 20.5t52.5 25.5t70 20t85.5 9q220 0 351 -150t131 -423t-131 -423.5t-351 -150.5q-71 0 -132 17
t-86 34l-25 17v-498h-267z" />
    <glyph glyph-name="q" unicode="q" 
d="M817 -461v498q-3 -3 -10 -7.5t-30 -16t-49 -20.5t-68 -16.5t-87 -7.5q-220 0 -350.5 150.5t-130.5 423.5t130.5 423t350.5 150q68 0 131 -21t92 -42l29 -21v53h258v-1546h-266zM817 432v223q0 91 -63 148t-170 57q-115 0 -170.5 -75.5t-55.5 -241.5q0 -165 56 -241.5
t170 -76.5q107 0 170 57.5t63 149.5z" />
    <glyph glyph-name="r" unicode="r" 
d="M141 0v256h269v573h-244v256h502v-53q1 2 8 10t23 21t35.5 24.5t49 20t60.5 8.5q58 0 112 -24t101.5 -71.5t77.5 -130t34 -188.5l-258 -40q-9 100 -45.5 149t-93.5 49q-53 0 -74.5 -24t-21.5 -50v-530h387v-256h-922z" />
    <glyph glyph-name="s" unicode="s" 
d="M170 373l246 45q6 -38 19.5 -70t39 -63.5t70 -49.5t102.5 -18q96 0 142.5 33t46.5 78q0 16 -6.5 29.5t-21.5 24.5t-27.5 18.5t-37.5 15t-36.5 11t-39.5 10t-34 7.5q-48 12 -81 21t-79 25.5t-77.5 33.5t-66 43.5t-55 56.5t-34 72t-13.5 90q0 34 10 73t39 86t73 84
t119.5 62t170.5 25q93 0 169.5 -28t127 -75.5t83.5 -102.5t50 -117l-235 -52q-24 59 -67 95t-128 36q-82 0 -114.5 -28.5t-32.5 -59.5q0 -41 45.5 -63.5t158.5 -50.5q156 -39 217 -66q162 -73 184 -225q3 -24 3 -51q0 -63 -25.5 -124t-76.5 -115t-142 -87t-209 -33
q-98 0 -178 26.5t-132 68t-89 96.5t-54.5 107.5t-23.5 105.5z" />
    <glyph glyph-name="t" unicode="t" 
d="M377 291v538h-201v256h201v349h266v-349h447v-256h-447v-518q0 -10 2.5 -21t10.5 -27.5t29 -27t52 -10.5q62 0 92.5 34t44.5 142l250 -41q-18 -114 -55 -192.5t-90 -121t-111 -60t-131 -17.5q-155 0 -257.5 88.5t-102.5 233.5z" />
    <glyph glyph-name="u" unicode="u" 
d="M166 428v657h266v-665q0 -88 52 -141.5t149 -53.5q96 0 147 48t51 128v684h267v-1085h-258v53l-12 -9t-33.5 -20.5t-51.5 -25.5t-65 -20t-76 -9q-189 0 -312.5 130.5t-123.5 328.5z" />
    <glyph glyph-name="v" unicode="v" 
d="M522 0l-434 1085h277l272 -675l272 675h273l-434 -1085h-226z" />
    <glyph glyph-name="w" unicode="w" 
d="M197 0l-240 1085h260l143 -663l166 663h222l165 -661l144 661h256l-240 -1085h-250l-188 678l-189 -678h-249z" />
    <glyph glyph-name="x" unicode="x" 
d="M100 0l381 567l-348 518h305l197 -292l196 292h299l-346 -514l385 -571h-305l-233 346l-234 -346h-297z" />
    <glyph glyph-name="y" unicode="y" 
d="M113 -391l102 205q89 -58 152 -58q44 0 65 17t31 49l88 237l-434 1026h278l279 -684l262 684h274l-536 -1376q-76 -198 -279 -198q-68 0 -138.5 24.5t-106.5 48.5z" />
    <glyph glyph-name="z" unicode="z" 
d="M150 0v223l557 606h-535v256h915v-229l-550 -600h583v-256h-970z" />
    <glyph glyph-name="nbspace" unicode="&#xa0;" horiz-adv-x="0" 
 />
    <glyph glyph-name="Agrave" unicode="&#xc0;" 
d="M16 0l498 1434h244l495 -1434h-295l-84 250h-489l-84 -250h-285zM477 516h309l-155 492z" />
    <glyph glyph-name="Aacute" unicode="&#xc1;" 
d="M16 0l498 1434h244l495 -1434h-295l-84 250h-489l-84 -250h-285zM477 516h309l-155 492z" />
    <glyph glyph-name="Acircumflex" unicode="&#xc2;" 
d="M16 0l498 1434h244l495 -1434h-295l-84 250h-489l-84 -250h-285zM477 516h309l-155 492z" />
    <glyph glyph-name="Atilde" unicode="&#xc3;" 
d="M16 0l498 1434h244l495 -1434h-295l-84 250h-489l-84 -250h-285zM477 516h309l-155 492z" />
    <glyph glyph-name="Adieresis" unicode="&#xc4;" 
d="M16 0l498 1434h244l495 -1434h-295l-84 250h-489l-84 -250h-285zM477 516h309l-155 492z" />
    <glyph glyph-name="Aring" unicode="&#xc5;" 
d="M16 0l498 1434h244l495 -1434h-295l-84 250h-489l-84 -250h-285zM477 516h309l-155 492z" />
    <glyph glyph-name="Ccedilla" unicode="&#xc7;" 
d="M920 528l258 -43q-8 -143 -73.5 -260t-181 -186.5t-259.5 -69.5q-122 0 -217.5 44t-167.5 134.5t-110 240t-38 351.5q0 359 143 542t390 183q144 0 259.5 -69.5t181 -186.5t73.5 -260l-258 -43q-26 293 -256 293q-136 0 -196 -104t-60 -355q0 -195 28 -305.5t81.5 -154
t146.5 -43.5q230 0 256 292z" />
    <glyph glyph-name="Egrave" unicode="&#xc8;" 
d="M217 0v1434h907v-267h-630v-280h573v-266h-573v-355h630v-266h-907z" />
    <glyph glyph-name="Eacute" unicode="&#xc9;" 
d="M217 0v1434h907v-267h-630v-280h573v-266h-573v-355h630v-266h-907z" />
    <glyph glyph-name="Ecircumflex" unicode="&#xca;" 
d="M217 0v1434h907v-267h-630v-280h573v-266h-573v-355h630v-266h-907z" />
    <glyph glyph-name="Edieresis" unicode="&#xcb;" 
d="M217 0v1434h907v-267h-630v-280h573v-266h-573v-355h630v-266h-907z" />
    <glyph glyph-name="Igrave" unicode="&#xcc;" 
d="M176 0v266h322v901h-322v267h918v-267h-320v-901h320v-266h-918z" />
    <glyph glyph-name="Iacute" unicode="&#xcd;" 
d="M176 0v266h322v901h-322v267h918v-267h-320v-901h320v-266h-918z" />
    <glyph glyph-name="Icircumflex" unicode="&#xce;" 
d="M176 0v266h322v901h-322v267h918v-267h-320v-901h320v-266h-918z" />
    <glyph glyph-name="Idieresis" unicode="&#xcf;" 
d="M176 0v266h322v901h-322v267h918v-267h-320v-901h320v-266h-918z" />
    <glyph glyph-name="Eth" unicode="&#xd0;" 
d="M422 266h231q57 0 95.5 11.5t70.5 41t50.5 83t28 136.5t9.5 201q0 170 -24 262t-74.5 129t-142.5 37h-244v-901zM145 0v1434h521q518 0 518 -695q0 -201 -37.5 -346t-109.5 -230t-166.5 -124t-217.5 -39h-508z" />
    <glyph glyph-name="Ntilde" unicode="&#xd1;" 
d="M141 0v1434h256l508 -920v920h279v-1434h-252l-514 920v-920h-277z" />
    <glyph glyph-name="Ograve" unicode="&#xd2;" 
d="M623 236q93 0 146 43t80.5 153.5t27.5 306.5q0 250 -59.5 354.5t-194.5 104.5q-136 0 -195 -104t-59 -355q0 -195 27.5 -305.5t81 -154t145.5 -43.5zM623 -31q-122 0 -217.5 44t-166.5 134.5t-109 240t-38 351.5q0 360 142.5 542.5t388.5 182.5t388 -182.5t142 -542.5
q0 -162 -25 -290.5t-70.5 -218t-111.5 -148.5t-146 -86t-177 -27z" />
    <glyph glyph-name="Oacute" unicode="&#xd3;" 
d="M623 236q93 0 146 43t80.5 153.5t27.5 306.5q0 250 -59.5 354.5t-194.5 104.5q-136 0 -195 -104t-59 -355q0 -195 27.5 -305.5t81 -154t145.5 -43.5zM623 -31q-122 0 -217.5 44t-166.5 134.5t-109 240t-38 351.5q0 360 142.5 542.5t388.5 182.5t388 -182.5t142 -542.5
q0 -162 -25 -290.5t-70.5 -218t-111.5 -148.5t-146 -86t-177 -27z" />
    <glyph glyph-name="Ocircumflex" unicode="&#xd4;" 
d="M623 236q93 0 146 43t80.5 153.5t27.5 306.5q0 250 -59.5 354.5t-194.5 104.5q-136 0 -195 -104t-59 -355q0 -195 27.5 -305.5t81 -154t145.5 -43.5zM623 -31q-122 0 -217.5 44t-166.5 134.5t-109 240t-38 351.5q0 360 142.5 542.5t388.5 182.5t388 -182.5t142 -542.5
q0 -162 -25 -290.5t-70.5 -218t-111.5 -148.5t-146 -86t-177 -27z" />
    <glyph glyph-name="Otilde" unicode="&#xd5;" 
d="M623 236q93 0 146 43t80.5 153.5t27.5 306.5q0 250 -59.5 354.5t-194.5 104.5q-136 0 -195 -104t-59 -355q0 -195 27.5 -305.5t81 -154t145.5 -43.5zM623 -31q-122 0 -217.5 44t-166.5 134.5t-109 240t-38 351.5q0 360 142.5 542.5t388.5 182.5t388 -182.5t142 -542.5
q0 -162 -25 -290.5t-70.5 -218t-111.5 -148.5t-146 -86t-177 -27z" />
    <glyph glyph-name="Odieresis" unicode="&#xd6;" 
d="M623 236q93 0 146 43t80.5 153.5t27.5 306.5q0 250 -59.5 354.5t-194.5 104.5q-136 0 -195 -104t-59 -355q0 -195 27.5 -305.5t81 -154t145.5 -43.5zM623 -31q-122 0 -217.5 44t-166.5 134.5t-109 240t-38 351.5q0 360 142.5 542.5t388.5 182.5t388 -182.5t142 -542.5
q0 -162 -25 -290.5t-70.5 -218t-111.5 -148.5t-146 -86t-177 -27z" />
    <glyph glyph-name="Ugrave" unicode="&#xd9;" 
d="M104 508v926h277v-934q0 -120 63 -192t191 -72t191 71.5t63 188.5v938h276v-926q0 -235 -147 -387t-383 -152t-383.5 152t-147.5 387z" />
    <glyph glyph-name="Uacute" unicode="&#xda;" 
d="M104 508v926h277v-934q0 -120 63 -192t191 -72t191 71.5t63 188.5v938h276v-926q0 -235 -147 -387t-383 -152t-383.5 152t-147.5 387z" />
    <glyph glyph-name="Ucircumflex" unicode="&#xdb;" 
d="M104 508v926h277v-934q0 -120 63 -192t191 -72t191 71.5t63 188.5v938h276v-926q0 -235 -147 -387t-383 -152t-383.5 152t-147.5 387z" />
    <glyph glyph-name="Udieresis" unicode="&#xdc;" 
d="M104 508v926h277v-934q0 -120 63 -192t191 -72t191 71.5t63 188.5v938h276v-926q0 -235 -147 -387t-383 -152t-383.5 152t-147.5 387z" />
    <glyph glyph-name="Yacute" unicode="&#xdd;" 
d="M500 0v604l-467 830h305l301 -568l307 568h303l-473 -830v-604h-276z" />
    <glyph glyph-name="agrave" unicode="&#xe0;" 
d="M393 717l-248 41q8 85 49 155t102 113t133.5 66.5t148.5 23.5q112 0 208 -42t157 -124t61 -188v-492q0 -26 14.5 -35.5t46.5 -9.5l39 6l43 -215q-80 -47 -164 -47q-47 0 -91.5 18.5t-65.5 36.5l-21 19q-11 -8 -32.5 -20.5t-89.5 -33t-138 -20.5q-190 0 -305 94t-115 256
q0 69 21.5 122.5t57.5 89.5t93.5 62.5t119.5 41.5t146 27q87 12 130.5 32t43.5 62t-32.5 73t-114.5 31q-41 0 -71 -5.5t-57.5 -20.5t-44.5 -44t-24 -73zM737 338v162l-3 -3q-3 -3 -11.5 -7.5t-21 -10t-35.5 -11t-52 -9.5q-43 -6 -70.5 -10.5t-59.5 -14.5t-50 -23t-30.5 -34
t-12.5 -49q0 -104 168 -103h6q19 0 43 4t56 14.5t52.5 35t20.5 59.5z" />
    <glyph glyph-name="aacute" unicode="&#xe1;" 
d="M393 717l-248 41q8 85 49 155t102 113t133.5 66.5t148.5 23.5q112 0 208 -42t157 -124t61 -188v-492q0 -26 14.5 -35.5t46.5 -9.5l39 6l43 -215q-80 -47 -164 -47q-47 0 -91.5 18.5t-65.5 36.5l-21 19q-11 -8 -32.5 -20.5t-89.5 -33t-138 -20.5q-190 0 -305 94t-115 256
q0 69 21.5 122.5t57.5 89.5t93.5 62.5t119.5 41.5t146 27q87 12 130.5 32t43.5 62t-32.5 73t-114.5 31q-41 0 -71 -5.5t-57.5 -20.5t-44.5 -44t-24 -73zM737 338v162l-3 -3q-3 -3 -11.5 -7.5t-21 -10t-35.5 -11t-52 -9.5q-43 -6 -70.5 -10.5t-59.5 -14.5t-50 -23t-30.5 -34
t-12.5 -49q0 -104 168 -103h6q19 0 43 4t56 14.5t52.5 35t20.5 59.5z" />
    <glyph glyph-name="acircumflex" unicode="&#xe2;" 
d="M393 717l-248 41q8 85 49 155t102 113t133.5 66.5t148.5 23.5q112 0 208 -42t157 -124t61 -188v-492q0 -26 14.5 -35.5t46.5 -9.5l39 6l43 -215q-80 -47 -164 -47q-47 0 -91.5 18.5t-65.5 36.5l-21 19q-11 -8 -32.5 -20.5t-89.5 -33t-138 -20.5q-190 0 -305 94t-115 256
q0 69 21.5 122.5t57.5 89.5t93.5 62.5t119.5 41.5t146 27q87 12 130.5 32t43.5 62t-32.5 73t-114.5 31q-41 0 -71 -5.5t-57.5 -20.5t-44.5 -44t-24 -73zM737 338v162l-3 -3q-3 -3 -11.5 -7.5t-21 -10t-35.5 -11t-52 -9.5q-43 -6 -70.5 -10.5t-59.5 -14.5t-50 -23t-30.5 -34
t-12.5 -49q0 -104 168 -103h6q19 0 43 4t56 14.5t52.5 35t20.5 59.5z" />
    <glyph glyph-name="atilde" unicode="&#xe3;" 
d="M393 717l-248 41q8 85 49 155t102 113t133.5 66.5t148.5 23.5q112 0 208 -42t157 -124t61 -188v-492q0 -26 14.5 -35.5t46.5 -9.5l39 6l43 -215q-80 -47 -164 -47q-47 0 -91.5 18.5t-65.5 36.5l-21 19q-11 -8 -32.5 -20.5t-89.5 -33t-138 -20.5q-190 0 -305 94t-115 256
q0 69 21.5 122.5t57.5 89.5t93.5 62.5t119.5 41.5t146 27q87 12 130.5 32t43.5 62t-32.5 73t-114.5 31q-41 0 -71 -5.5t-57.5 -20.5t-44.5 -44t-24 -73zM737 338v162l-3 -3q-3 -3 -11.5 -7.5t-21 -10t-35.5 -11t-52 -9.5q-43 -6 -70.5 -10.5t-59.5 -14.5t-50 -23t-30.5 -34
t-12.5 -49q0 -104 168 -103h6q19 0 43 4t56 14.5t52.5 35t20.5 59.5z" />
    <glyph glyph-name="adieresis" unicode="&#xe4;" 
d="M393 717l-248 41q8 85 49 155t102 113t133.5 66.5t148.5 23.5q112 0 208 -42t157 -124t61 -188v-492q0 -26 14.5 -35.5t46.5 -9.5l39 6l43 -215q-80 -47 -164 -47q-47 0 -91.5 18.5t-65.5 36.5l-21 19q-11 -8 -32.5 -20.5t-89.5 -33t-138 -20.5q-190 0 -305 94t-115 256
q0 69 21.5 122.5t57.5 89.5t93.5 62.5t119.5 41.5t146 27q87 12 130.5 32t43.5 62t-32.5 73t-114.5 31q-41 0 -71 -5.5t-57.5 -20.5t-44.5 -44t-24 -73zM737 338v162l-3 -3q-3 -3 -11.5 -7.5t-21 -10t-35.5 -11t-52 -9.5q-43 -6 -70.5 -10.5t-59.5 -14.5t-50 -23t-30.5 -34
t-12.5 -49q0 -104 168 -103h6q19 0 43 4t56 14.5t52.5 35t20.5 59.5z" />
    <glyph glyph-name="aring" unicode="&#xe5;" 
d="M393 717l-248 41q8 85 49 155t102 113t133.5 66.5t148.5 23.5q112 0 208 -42t157 -124t61 -188v-492q0 -26 14.5 -35.5t46.5 -9.5l39 6l43 -215q-80 -47 -164 -47q-47 0 -91.5 18.5t-65.5 36.5l-21 19q-11 -8 -32.5 -20.5t-89.5 -33t-138 -20.5q-190 0 -305 94t-115 256
q0 69 21.5 122.5t57.5 89.5t93.5 62.5t119.5 41.5t146 27q87 12 130.5 32t43.5 62t-32.5 73t-114.5 31q-41 0 -71 -5.5t-57.5 -20.5t-44.5 -44t-24 -73zM737 338v162l-3 -3q-3 -3 -11.5 -7.5t-21 -10t-35.5 -11t-52 -9.5q-43 -6 -70.5 -10.5t-59.5 -14.5t-50 -23t-30.5 -34
t-12.5 -49q0 -104 168 -103h6q19 0 43 4t56 14.5t52.5 35t20.5 59.5z" />
    <glyph glyph-name="ccedilla" unicode="&#xe7;" 
d="M848 412l254 -41q-21 -177 -145.5 -289.5t-311.5 -112.5q-218 0 -347.5 150.5t-129.5 423.5t129.5 423t347.5 150q187 0 311.5 -112t145.5 -289l-254 -41q-26 186 -201 186q-113 0 -163 -74.5t-50 -242.5q0 -167 50.5 -242.5t160.5 -75.5q177 0 203 187z" />
    <glyph glyph-name="egrave" unicode="&#xe8;" 
d="M842 358l245 -84q-46 -133 -159 -219t-283 -86q-222 0 -354.5 150.5t-132.5 423.5t130.5 423t348.5 150q220 0 351.5 -150t131.5 -423v-80h-692q9 -121 60 -179.5t153 -58.5q84 0 133 40t68 93zM438 694h398q-40 166 -199 166q-156 0 -199 -166z" />
    <glyph glyph-name="eacute" unicode="&#xe9;" 
d="M842 358l245 -84q-46 -133 -159 -219t-283 -86q-222 0 -354.5 150.5t-132.5 423.5t130.5 423t348.5 150q220 0 351.5 -150t131.5 -423v-80h-692q9 -121 60 -179.5t153 -58.5q84 0 133 40t68 93zM438 694h398q-40 166 -199 166q-156 0 -199 -166z" />
    <glyph glyph-name="ecircumflex" unicode="&#xea;" 
d="M842 358l245 -84q-46 -133 -159 -219t-283 -86q-222 0 -354.5 150.5t-132.5 423.5t130.5 423t348.5 150q220 0 351.5 -150t131.5 -423v-80h-692q9 -121 60 -179.5t153 -58.5q84 0 133 40t68 93zM438 694h398q-40 166 -199 166q-156 0 -199 -166z" />
    <glyph glyph-name="edieresis" unicode="&#xeb;" 
d="M842 358l245 -84q-46 -133 -159 -219t-283 -86q-222 0 -354.5 150.5t-132.5 423.5t130.5 423t348.5 150q220 0 351.5 -150t131.5 -423v-80h-692q9 -121 60 -179.5t153 -58.5q84 0 133 40t68 93zM438 694h398q-40 166 -199 166q-156 0 -199 -166z" />
    <glyph glyph-name="igrave" unicode="&#xec;" 
d="M160 0v256h379v573h-334v256h600v-829h323v-256h-968z" />
    <glyph glyph-name="iacute" unicode="&#xed;" 
d="M160 0v256h379v573h-334v256h600v-829h323v-256h-968z" />
    <glyph glyph-name="icircumflex" unicode="&#xee;" 
d="M160 0v256h379v573h-334v256h600v-829h323v-256h-968z" />
    <glyph glyph-name="idieresis" unicode="&#xef;" 
d="M160 0v256h379v573h-334v256h600v-829h323v-256h-968z" />
    <glyph glyph-name="ntilde" unicode="&#xf1;" 
d="M186 0v1085h258v-53q4 3 11 9t30.5 20.5t48.5 25.5t63 20t75 9q188 0 307 -130t119 -329v-657h-267v666q0 89 -47 141.5t-143 52.5q-95 0 -141.5 -47t-46.5 -129v-684h-267z" />
    <glyph glyph-name="ograve" unicode="&#xf2;" 
d="M635 225q110 0 160.5 75.5t50.5 242.5q0 168 -50 242.5t-161 74.5t-161 -74.5t-50 -242.5q0 -167 50.5 -242.5t160.5 -75.5zM635 -31q-218 0 -347.5 150.5t-129.5 423.5t129.5 423t347.5 150t347.5 -150t129.5 -423t-129.5 -423.5t-347.5 -150.5z" />
    <glyph glyph-name="oacute" unicode="&#xf3;" 
d="M635 225q110 0 160.5 75.5t50.5 242.5q0 168 -50 242.5t-161 74.5t-161 -74.5t-50 -242.5q0 -167 50.5 -242.5t160.5 -75.5zM635 -31q-218 0 -347.5 150.5t-129.5 423.5t129.5 423t347.5 150t347.5 -150t129.5 -423t-129.5 -423.5t-347.5 -150.5z" />
    <glyph glyph-name="ocircumflex" unicode="&#xf4;" 
d="M635 225q110 0 160.5 75.5t50.5 242.5q0 168 -50 242.5t-161 74.5t-161 -74.5t-50 -242.5q0 -167 50.5 -242.5t160.5 -75.5zM635 -31q-218 0 -347.5 150.5t-129.5 423.5t129.5 423t347.5 150t347.5 -150t129.5 -423t-129.5 -423.5t-347.5 -150.5z" />
    <glyph glyph-name="otilde" unicode="&#xf5;" 
d="M635 225q110 0 160.5 75.5t50.5 242.5q0 168 -50 242.5t-161 74.5t-161 -74.5t-50 -242.5q0 -167 50.5 -242.5t160.5 -75.5zM635 -31q-218 0 -347.5 150.5t-129.5 423.5t129.5 423t347.5 150t347.5 -150t129.5 -423t-129.5 -423.5t-347.5 -150.5z" />
    <glyph glyph-name="odieresis" unicode="&#xf6;" 
d="M635 225q110 0 160.5 75.5t50.5 242.5q0 168 -50 242.5t-161 74.5t-161 -74.5t-50 -242.5q0 -167 50.5 -242.5t160.5 -75.5zM635 -31q-218 0 -347.5 150.5t-129.5 423.5t129.5 423t347.5 150t347.5 -150t129.5 -423t-129.5 -423.5t-347.5 -150.5z" />
    <glyph glyph-name="ugrave" unicode="&#xf9;" 
d="M166 428v657h266v-665q0 -88 52 -141.5t149 -53.5q96 0 147 48t51 128v684h267v-1085h-258v53l-12 -9t-33.5 -20.5t-51.5 -25.5t-65 -20t-76 -9q-189 0 -312.5 130.5t-123.5 328.5z" />
    <glyph glyph-name="uacute" unicode="&#xfa;" 
d="M166 428v657h266v-665q0 -88 52 -141.5t149 -53.5q96 0 147 48t51 128v684h267v-1085h-258v53l-12 -9t-33.5 -20.5t-51.5 -25.5t-65 -20t-76 -9q-189 0 -312.5 130.5t-123.5 328.5z" />
    <glyph glyph-name="ucircumflex" unicode="&#xfb;" 
d="M166 428v657h266v-665q0 -88 52 -141.5t149 -53.5q96 0 147 48t51 128v684h267v-1085h-258v53l-12 -9t-33.5 -20.5t-51.5 -25.5t-65 -20t-76 -9q-189 0 -312.5 130.5t-123.5 328.5z" />
    <glyph glyph-name="udieresis" unicode="&#xfc;" 
d="M166 428v657h266v-665q0 -88 52 -141.5t149 -53.5q96 0 147 48t51 128v684h267v-1085h-258v53l-12 -9t-33.5 -20.5t-51.5 -25.5t-65 -20t-76 -9q-189 0 -312.5 130.5t-123.5 328.5z" />
    <glyph glyph-name="yacute" unicode="&#xfd;" 
d="M113 -391l102 205q89 -58 152 -58q44 0 65 17t31 49l88 237l-434 1026h278l279 -684l262 684h274l-536 -1376q-76 -198 -279 -198q-68 0 -138.5 24.5t-106.5 48.5z" />
    <glyph glyph-name="ydieresis" unicode="&#xff;" 
d="M113 -391l102 205q89 -58 152 -58q44 0 65 17t31 49l88 237l-434 1026h278l279 -684l262 684h274l-536 -1376q-76 -198 -279 -198q-68 0 -138.5 24.5t-106.5 48.5z" />
    <glyph glyph-name="dotlessi" unicode="&#x131;" 
d="M160 0v256h379v573h-334v256h600v-829h323v-256h-968z" />
    <glyph glyph-name="Lslash" unicode="&#x141;" 
d="M252 0v1434h276v-1168h592v-266h-868z" />
    <glyph glyph-name="lslash" unicode="&#x142;" 
d="M133 0v256h375v922h-295v256h561v-1178h365v-256h-1006z" />
    <glyph glyph-name="Scaron" unicode="&#x160;" 
d="M88 500l256 47q6 -46 14 -81t29.5 -81.5t52.5 -76t86.5 -51t128.5 -21.5q107 0 178.5 47t71.5 141q0 82 -60 131t-202 86q-87 22 -151.5 45t-128 58.5t-103.5 78.5t-65 105.5t-25 140.5q0 77 31 147.5t88.5 126t149 88.5t204.5 33q186 0 323 -101t183 -294l-256 -55
q-9 33 -27 63t-47.5 58.5t-74.5 45.5t-101 17q-91 0 -144 -38t-53 -91q0 -21 9 -39.5t29.5 -34.5t41 -28t57.5 -25.5t64 -22t74 -22.5q161 -52 225 -85q176 -89 220 -255q16 -60 16 -133q0 -202 -144 -328.5t-383 -126.5q-126 0 -224.5 34.5t-158 86.5t-100.5 126t-58.5 141
t-25.5 143z" />
    <glyph glyph-name="scaron" unicode="&#x161;" 
d="M170 373l246 45q6 -38 19.5 -70t39 -63.5t70 -49.5t102.5 -18q96 0 142.5 33t46.5 78q0 16 -6.5 29.5t-21.5 24.5t-27.5 18.5t-37.5 15t-36.5 11t-39.5 10t-34 7.5q-48 12 -81 21t-79 25.5t-77.5 33.5t-66 43.5t-55 56.5t-34 72t-13.5 90q0 34 10 73t39 86t73 84
t119.5 62t170.5 25q93 0 169.5 -28t127 -75.5t83.5 -102.5t50 -117l-235 -52q-24 59 -67 95t-128 36q-82 0 -114.5 -28.5t-32.5 -59.5q0 -41 45.5 -63.5t158.5 -50.5q156 -39 217 -66q162 -73 184 -225q3 -24 3 -51q0 -63 -25.5 -124t-76.5 -115t-142 -87t-209 -33
q-98 0 -178 26.5t-132 68t-89 96.5t-54.5 107.5t-23.5 105.5z" />
    <glyph glyph-name="Ydieresis" unicode="&#x178;" 
d="M500 0v604l-467 830h305l301 -568l307 568h303l-473 -830v-604h-276z" />
    <glyph glyph-name="Zcaron" unicode="&#x17d;" 
d="M117 0v260l665 907h-637v267h1008v-260l-670 -908h670v-266h-1036z" />
    <glyph glyph-name="zcaron" unicode="&#x17e;" 
d="M150 0v223l557 606h-535v256h915v-229l-550 -600h583v-256h-970z" />
    <glyph glyph-name="apple" unicode="&#xf8ff;" horiz-adv-x="1404" 
d="M102 0v866q0 156 80 293.5t218.5 221t299.5 83.5q122 0 234.5 -49.5t193 -131t128 -191.5t47.5 -226v-866h-58l-133 133l-139 -133l-129 133l-146 -133l-141 133l-129 -133l-137 133l-135 -133h-54zM819 772q0 -59 42 -101t102 -42t103.5 42.5t43.5 100.5
q0 61 -43.5 104.5t-103.5 43.5t-102 -43t-42 -105zM297 772q0 -59 42.5 -101t102.5 -42q61 0 103.5 42t42.5 101q0 62 -42.5 105t-103.5 43q-60 0 -102.5 -43.5t-42.5 -104.5z" />
    </font>
</defs>
</svg>
